EstrangeloMarcus-Regular.ufo
<glyph name="quotedbl" format="2">
  <advance width="996"/>
  <unicode hex="0022"/>
  <note>
quotedbl
</note>
  <outline>
    <contour>
      <point x="713" y="681" type="curve" smooth="yes"/>
      <point x="748" y="681"/>
      <point x="768" y="704"/>
      <point x="775" y="750" type="curve" smooth="yes"/>
      <point x="845" y="1236" type="line"/>
      <point x="579" y="1236" type="line"/>
      <point x="650" y="750" type="line" smooth="yes"/>
      <point x="657" y="704"/>
      <point x="678" y="681"/>
    </contour>
    <contour>
      <point x="283" y="681" type="curve" smooth="yes"/>
      <point x="318" y="681"/>
      <point x="339" y="704"/>
      <point x="346" y="750" type="curve" smooth="yes"/>
      <point x="416" y="1236" type="line"/>
      <point x="150" y="1236" type="line"/>
      <point x="220" y="750" type="line" smooth="yes"/>
      <point x="227" y="704"/>
      <point x="248" y="681"/>
    </contour>
  </outline>
</glyph>
<glyph name="dollar" format="2">
  <advance width="1030"/>
  <unicode hex="0024"/>
  <note>
dollar
</note>
  <outline>
    <contour>
      <point x="535" y="-133" type="line"/>
      <point x="626" y="-133" type="line"/>
      <point x="626" y="-15" type="line"/>
      <point x="785" y="8"/>
      <point x="887" y="114"/>
      <point x="887" y="273" type="curve" smooth="yes"/>
      <point x="887" y="352"/>
      <point x="862" y="414"/>
      <point x="813" y="458" type="curve" smooth="yes"/>
      <point x="774" y="493"/>
      <point x="712" y="523"/>
      <point x="626" y="546" type="curve"/>
      <point x="626" y="792" type="line"/>
      <point x="667" y="775"/>
      <point x="692" y="741"/>
      <point x="702" y="692" type="curve"/>
      <point x="861" y="712" type="line"/>
      <point x="838" y="843"/>
      <point x="760" y="916"/>
      <point x="626" y="932" type="curve"/>
      <point x="626" y="994" type="line"/>
      <point x="535" y="994" type="line"/>
      <point x="535" y="932" type="line"/>
      <point x="392" y="917"/>
      <point x="296" y="818"/>
      <point x="296" y="677" type="curve" smooth="yes"/>
      <point x="296" y="536"/>
      <point x="376" y="442"/>
      <point x="535" y="397" type="curve"/>
      <point x="535" y="133" type="line"/>
      <point x="482" y="158"/>
      <point x="448" y="205"/>
      <point x="435" y="273" type="curve"/>
      <point x="271" y="255" type="line"/>
      <point x="296" y="91"/>
      <point x="384" y="0"/>
      <point x="535" y="-18" type="curve"/>
    </contour>
    <contour>
      <point x="626" y="124" type="curve"/>
      <point x="626" y="370" type="line"/>
      <point x="697" y="349"/>
      <point x="732" y="309"/>
      <point x="732" y="250" type="curve" smooth="yes"/>
      <point x="732" y="179"/>
      <point x="697" y="137"/>
    </contour>
    <contour>
      <point x="535" y="576" type="line"/>
      <point x="480" y="599"/>
      <point x="453" y="636"/>
      <point x="453" y="685" type="curve" smooth="yes"/>
      <point x="453" y="740"/>
      <point x="480" y="776"/>
      <point x="535" y="794" type="curve"/>
    </contour>
  </outline>
</glyph>
<glyph name="percent" format="2">
  <advance width="1412"/>
  <unicode hex="0025"/>
  <note>
percent
</note>
  <outline>
    <contour>
      <point x="465" y="-1" type="line"/>
      <point x="596" y="-1" type="line"/>
      <point x="1084" y="973" type="line"/>
      <point x="957" y="973" type="line"/>
    </contour>
    <contour>
      <point x="464" y="486" type="curve" smooth="yes"/>
      <point x="599" y="486"/>
      <point x="666" y="567"/>
      <point x="666" y="730" type="curve" smooth="yes"/>
      <point x="666" y="892"/>
      <point x="598" y="973"/>
      <point x="461" y="973" type="curve" smooth="yes"/>
      <point x="326" y="973"/>
      <point x="259" y="892"/>
      <point x="259" y="730" type="curve" smooth="yes"/>
      <point x="259" y="567"/>
      <point x="327" y="486"/>
    </contour>
    <contour>
      <point x="461" y="587" type="curve" smooth="yes"/>
      <point x="418" y="587"/>
      <point x="396" y="635"/>
      <point x="396" y="731" type="curve" smooth="yes"/>
      <point x="396" y="826"/>
      <point x="418" y="874"/>
      <point x="461" y="874" type="curve" smooth="yes"/>
      <point x="504" y="874"/>
      <point x="525" y="826"/>
      <point x="525" y="731" type="curve" smooth="yes"/>
      <point x="525" y="635"/>
      <point x="504" y="587"/>
    </contour>
    <contour>
      <point x="1087" y="-3" type="curve" smooth="yes"/>
      <point x="1222" y="-3"/>
      <point x="1289" y="78"/>
      <point x="1289" y="241" type="curve" smooth="yes"/>
      <point x="1289" y="404"/>
      <point x="1221" y="485"/>
      <point x="1085" y="485" type="curve" smooth="yes"/>
      <point x="950" y="485"/>
      <point x="882" y="404"/>
      <point x="882" y="241" type="curve" smooth="yes"/>
      <point x="882" y="78"/>
      <point x="950" y="-3"/>
    </contour>
    <contour>
      <point x="1084" y="98" type="curve" smooth="yes"/>
      <point x="1041" y="98"/>
      <point x="1020" y="146"/>
      <point x="1020" y="242" type="curve" smooth="yes"/>
      <point x="1020" y="338"/>
      <point x="1041" y="386"/>
      <point x="1084" y="386" type="curve" smooth="yes"/>
      <point x="1127" y="386"/>
      <point x="1148" y="338"/>
      <point x="1148" y="242" type="curve" smooth="yes"/>
      <point x="1148" y="146"/>
      <point x="1127" y="98"/>
    </contour>
  </outline>
</glyph>
<glyph name="quotesingle" format="2">
  <advance width="565"/>
  <unicode hex="0027"/>
  <note>
quotesingle
</note>
  <outline>
    <contour>
      <point x="283" y="655" type="curve" smooth="yes"/>
      <point x="318" y="655"/>
      <point x="339" y="680"/>
      <point x="346" y="730" type="curve" smooth="yes"/>
      <point x="416" y="1255" type="line"/>
      <point x="150" y="1255" type="line"/>
      <point x="220" y="730" type="line" smooth="yes"/>
      <point x="227" y="680"/>
      <point x="248" y="655"/>
    </contour>
  </outline>
</glyph>
<glyph name="parenright" format="2">
  <advance width="682"/>
  <unicode hex="0029"/>
  <note>
parenright
</note>
  <outline>
    <contour>
      <point x="162" y="-75" type="curve"/>
      <point x="285" y="-75" type="line"/>
      <point x="416" y="124"/>
      <point x="482" y="329"/>
      <point x="482" y="540" type="curve" smooth="yes"/>
      <point x="482" y="747"/>
      <point x="415" y="945"/>
      <point x="281" y="1135" type="curve"/>
      <point x="161" y="1135" type="line"/>
      <point x="262" y="913"/>
      <point x="312" y="710"/>
      <point x="312" y="527" type="curve" smooth="yes"/>
      <point x="312" y="434"/>
      <point x="300" y="337"/>
      <point x="276" y="235" type="curve" smooth="yes"/>
      <point x="255" y="146"/>
      <point x="217" y="42"/>
    </contour>
  </outline>
</glyph>
<glyph name="asterisk" format="2">
  <advance width="1002"/>
  <unicode hex="002A"/>
  <note>
asterisk
</note>
  <outline>
    <contour>
      <point x="578" y="-7" type="curve"/>
      <point x="617" y="-3"/>
      <point x="637" y="18"/>
      <point x="637" y="55" type="curve"/>
      <point x="625" y="96" type="line"/>
      <point x="617" y="113"/>
      <point x="611" y="132"/>
      <point x="607" y="151" type="curve"/>
      <point x="628" y="161" type="line"/>
      <point x="649" y="177" type="line"/>
      <point x="714" y="110" type="line"/>
      <point x="730" y="99"/>
      <point x="743" y="94"/>
      <point x="754" y="94" type="curve"/>
      <point x="791" y="99"/>
      <point x="809" y="118"/>
      <point x="809" y="149" type="curve" smooth="yes"/>
      <point x="809" y="176"/>
      <point x="796" y="193"/>
      <point x="771" y="202" type="curve"/>
      <point x="678" y="225" type="line"/>
      <point x="681" y="249" type="line"/>
      <point x="678" y="273" type="line"/>
      <point x="752" y="294" type="line" smooth="yes"/>
      <point x="789" y="304"/>
      <point x="807" y="323"/>
      <point x="807" y="352" type="curve" smooth="yes"/>
      <point x="807" y="391"/>
      <point x="789" y="411"/>
      <point x="752" y="411" type="curve"/>
      <point x="737" y="408"/>
      <point x="721" y="398"/>
      <point x="704" y="381" type="curve" smooth="yes"/>
      <point x="647" y="325" type="line"/>
      <point x="636" y="334"/>
      <point x="622" y="340"/>
      <point x="607" y="344" type="curve"/>
      <point x="626" y="404" type="line"/>
      <point x="637" y="447" type="line"/>
      <point x="631" y="486"/>
      <point x="613" y="505"/>
      <point x="583" y="505" type="curve"/>
      <point x="549" y="498" type="line"/>
      <point x="533" y="489"/>
      <point x="525" y="472"/>
      <point x="525" y="447" type="curve" smooth="yes"/>
      <point x="525" y="440"/>
      <point x="532" y="410"/>
      <point x="547" y="357" type="curve"/>
      <point x="547" y="352"/>
      <point x="548" y="348"/>
      <point x="549" y="345" type="curve"/>
      <point x="530" y="338" type="line"/>
      <point x="509" y="323" type="line"/>
      <point x="465" y="369" type="line" smooth="yes"/>
      <point x="442" y="393"/>
      <point x="421" y="405"/>
      <point x="403" y="405" type="curve" smooth="yes"/>
      <point x="368" y="405"/>
      <point x="351" y="387"/>
      <point x="351" y="352" type="curve" smooth="yes"/>
      <point x="351" y="326"/>
      <point x="364" y="309"/>
      <point x="391" y="301" type="curve" smooth="yes"/>
      <point x="482" y="271" type="line"/>
      <point x="480" y="249" type="line"/>
      <point x="482" y="228" type="line"/>
      <point x="406" y="208" type="line"/>
      <point x="369" y="194"/>
      <point x="351" y="174"/>
      <point x="351" y="147" type="curve"/>
      <point x="354" y="131"/>
      <point x="358" y="119"/>
      <point x="363" y="110" type="curve"/>
      <point x="372" y="99"/>
      <point x="386" y="94"/>
      <point x="404" y="94" type="curve" smooth="yes"/>
      <point x="418" y="94"/>
      <point x="430" y="97"/>
      <point x="439" y="104" type="curve"/>
      <point x="485" y="149" type="line"/>
      <point x="493" y="160"/>
      <point x="501" y="169"/>
      <point x="509" y="175" type="curve"/>
      <point x="523" y="164"/>
      <point x="537" y="157"/>
      <point x="552" y="154" type="curve"/>
      <point x="533" y="96" type="line" smooth="yes"/>
      <point x="528" y="78"/>
      <point x="525" y="63"/>
      <point x="525" y="51" type="curve" smooth="yes"/>
      <point x="525" y="12"/>
      <point x="543" y="-7"/>
    </contour>
    <contour>
      <point x="582" y="209" type="curve" smooth="yes"/>
      <point x="557" y="209"/>
      <point x="544" y="222"/>
      <point x="544" y="247" type="curve" smooth="yes"/>
      <point x="544" y="274"/>
      <point x="557" y="288"/>
      <point x="582" y="288" type="curve" smooth="yes"/>
      <point x="608" y="288"/>
      <point x="621" y="276"/>
      <point x="621" y="251" type="curve" smooth="yes"/>
      <point x="621" y="223"/>
      <point x="608" y="209"/>
    </contour>
  </outline>
</glyph>
<glyph name="comma" format="2">
  <advance width="515"/>
  <unicode hex="002C"/>
  <note>
comma
</note>
  <outline>
    <contour>
      <point x="177" y="-263" type="curve"/>
      <point x="306" y="-163"/>
      <point x="371" y="-49"/>
      <point x="371" y="80" type="curve" smooth="yes"/>
      <point x="371" y="115"/>
      <point x="362" y="145"/>
      <point x="344" y="168" type="curve" smooth="yes"/>
      <point x="325" y="195"/>
      <point x="298" y="208"/>
      <point x="263" y="208" type="curve" smooth="yes"/>
      <point x="204" y="208"/>
      <point x="160" y="161"/>
      <point x="160" y="102" type="curve" smooth="yes"/>
      <point x="160" y="44"/>
      <point x="186" y="8"/>
      <point x="238" y="-5" type="curve"/>
      <point x="238" y="-54"/>
      <point x="208" y="-93"/>
      <point x="149" y="-121" type="curve"/>
      <point x="168" y="-134"/>
      <point x="177" y="-181"/>
    </contour>
  </outline>
</glyph>
<glyph name="zero" format="2">
  <advance width="919"/>
  <unicode hex="0030"/>
  <note>
zero
</note>
  <outline>
    <contour>
      <point x="451" y="1" type="curve" smooth="yes"/>
      <point x="651" y="1"/>
      <point x="751" y="158"/>
      <point x="751" y="472" type="curve" smooth="yes"/>
      <point x="751" y="787"/>
      <point x="651" y="944"/>
      <point x="451" y="944" type="curve" smooth="yes"/>
      <point x="251" y="944"/>
      <point x="151" y="787"/>
      <point x="151" y="474" type="curve" smooth="yes"/>
      <point x="151" y="159"/>
      <point x="251" y="1"/>
    </contour>
    <contour>
      <point x="451" y="147" type="curve" smooth="yes"/>
      <point x="430" y="147"/>
      <point x="411" y="154"/>
      <point x="394" y="168" type="curve" smooth="yes"/>
      <point x="356" y="199"/>
      <point x="337" y="300"/>
      <point x="337" y="472" type="curve" smooth="yes"/>
      <point x="337" y="580"/>
      <point x="343" y="657"/>
      <point x="355" y="703" type="curve" smooth="yes"/>
      <point x="372" y="766"/>
      <point x="404" y="797"/>
      <point x="451" y="797" type="curve" smooth="yes"/>
      <point x="472" y="797"/>
      <point x="491" y="790"/>
      <point x="508" y="776" type="curve" smooth="yes"/>
      <point x="547" y="745"/>
      <point x="566" y="643"/>
      <point x="566" y="472" type="curve" smooth="yes"/>
      <point x="566" y="364"/>
      <point x="560" y="287"/>
      <point x="548" y="241" type="curve" smooth="yes"/>
      <point x="531" y="178"/>
      <point x="499" y="147"/>
    </contour>
  </outline>
</glyph>
<glyph name="three" format="2">
  <advance width="938"/>
  <unicode hex="0033"/>
  <note>
three
</note>
  <outline>
    <contour>
      <point x="469" y="6" type="curve" smooth="yes"/>
      <point x="554" y="6"/>
      <point x="627" y="33"/>
      <point x="686" y="88" type="curve" smooth="yes"/>
      <point x="748" y="144"/>
      <point x="779" y="214"/>
      <point x="779" y="299" type="curve" smooth="yes"/>
      <point x="779" y="410"/>
      <point x="712" y="495"/>
      <point x="604" y="518" type="curve"/>
      <point x="693" y="567"/>
      <point x="737" y="631"/>
      <point x="737" y="712" type="curve" smooth="yes"/>
      <point x="737" y="769"/>
      <point x="715" y="821"/>
      <point x="672" y="866" type="curve" smooth="yes"/>
      <point x="619" y="921"/>
      <point x="550" y="949"/>
      <point x="463" y="949" type="curve" smooth="yes"/>
      <point x="412" y="949"/>
      <point x="366" y="939"/>
      <point x="325" y="920" type="curve" smooth="yes"/>
      <point x="249" y="885"/>
      <point x="200" y="814"/>
      <point x="178" y="708" type="curve"/>
      <point x="341" y="680" type="line"/>
      <point x="351" y="762"/>
      <point x="390" y="803"/>
      <point x="458" y="803" type="curve" smooth="yes"/>
      <point x="525" y="803"/>
      <point x="559" y="769"/>
      <point x="559" y="701" type="curve" smooth="yes"/>
      <point x="559" y="619"/>
      <point x="510" y="579"/>
      <point x="412" y="582" type="curve"/>
      <point x="392" y="438" type="line"/>
      <point x="424" y="447"/>
      <point x="451" y="451"/>
      <point x="474" y="451" type="curve" smooth="yes"/>
      <point x="513" y="451"/>
      <point x="543" y="436"/>
      <point x="566" y="407" type="curve" smooth="yes"/>
      <point x="587" y="380"/>
      <point x="597" y="346"/>
      <point x="597" y="306" type="curve" smooth="yes"/>
      <point x="597" y="264"/>
      <point x="586" y="229"/>
      <point x="565" y="200" type="curve" smooth="yes"/>
      <point x="541" y="169"/>
      <point x="508" y="153"/>
      <point x="467" y="153" type="curve" smooth="yes"/>
      <point x="391" y="153"/>
      <point x="347" y="198"/>
      <point x="336" y="288" type="curve"/>
      <point x="165" y="267" type="line"/>
      <point x="174" y="186"/>
      <point x="207" y="122"/>
      <point x="264" y="75" type="curve" smooth="yes"/>
      <point x="319" y="29"/>
      <point x="387" y="6"/>
    </contour>
  </outline>
</glyph>
<glyph name="five" format="2">
  <advance width="935"/>
  <unicode hex="0035"/>
  <note>
five
</note>
  <outline>
    <contour>
      <point x="463" y="-7" type="curve" smooth="yes"/>
      <point x="570" y="-7"/>
      <point x="653" y="34"/>
      <point x="713" y="116" type="curve" smooth="yes"/>
      <point x="757" y="175"/>
      <point x="779" y="243"/>
      <point x="779" y="319" type="curve" smooth="yes"/>
      <point x="779" y="404"/>
      <point x="754" y="476"/>
      <point x="703" y="535" type="curve" smooth="yes"/>
      <point x="650" y="596"/>
      <point x="582" y="627"/>
      <point x="497" y="627" type="curve" smooth="yes"/>
      <point x="456" y="627"/>
      <point x="416" y="617"/>
      <point x="376" y="597" type="curve"/>
      <point x="404" y="754" type="line"/>
      <point x="738" y="754" type="line"/>
      <point x="738" y="920" type="line"/>
      <point x="270" y="920" type="line"/>
      <point x="179" y="439" type="line"/>
      <point x="323" y="419" type="line"/>
      <point x="363" y="464"/>
      <point x="409" y="486"/>
      <point x="460" y="486" type="curve" smooth="yes"/>
      <point x="551" y="486"/>
      <point x="597" y="429"/>
      <point x="597" y="316" type="curve" smooth="yes"/>
      <point x="597" y="195"/>
      <point x="553" y="135"/>
      <point x="465" y="135" type="curve" smooth="yes"/>
      <point x="429" y="135"/>
      <point x="399" y="148"/>
      <point x="375" y="174" type="curve" smooth="yes"/>
      <point x="352" y="198"/>
      <point x="339" y="228"/>
      <point x="334" y="265" type="curve"/>
      <point x="158" y="247" type="line"/>
      <point x="169" y="166"/>
      <point x="202" y="103"/>
      <point x="258" y="58" type="curve" smooth="yes"/>
      <point x="312" y="15"/>
      <point x="380" y="-7"/>
    </contour>
  </outline>
</glyph>
<glyph name="six" format="2">
  <advance width="893"/>
  <unicode hex="0036"/>
  <note>
six
</note>
  <outline>
    <contour>
      <point x="475" y="0" type="curve" smooth="yes"/>
      <point x="566" y="0"/>
      <point x="638" y="30"/>
      <point x="693" y="89" type="curve" smooth="yes"/>
      <point x="746" y="147"/>
      <point x="772" y="222"/>
      <point x="772" y="313" type="curve" smooth="yes"/>
      <point x="772" y="395"/>
      <point x="748" y="465"/>
      <point x="700" y="523" type="curve" smooth="yes"/>
      <point x="649" y="584"/>
      <point x="584" y="615"/>
      <point x="503" y="615" type="curve" smooth="yes"/>
      <point x="438" y="615"/>
      <point x="383" y="589"/>
      <point x="339" y="537" type="curve"/>
      <point x="350" y="710"/>
      <point x="397" y="797"/>
      <point x="482" y="797" type="curve" smooth="yes"/>
      <point x="541" y="797"/>
      <point x="575" y="763"/>
      <point x="584" y="694" type="curve"/>
      <point x="755" y="713" type="line"/>
      <point x="729" y="866"/>
      <point x="642" y="943"/>
      <point x="493" y="943" type="curve" smooth="yes"/>
      <point x="268" y="943"/>
      <point x="155" y="784"/>
      <point x="155" y="465" type="curve" smooth="yes"/>
      <point x="155" y="155"/>
      <point x="262" y="0"/>
    </contour>
    <contour>
      <point x="484" y="147" type="curve" smooth="yes"/>
      <point x="441" y="147"/>
      <point x="408" y="167"/>
      <point x="384" y="208" type="curve" smooth="yes"/>
      <point x="364" y="241"/>
      <point x="354" y="281"/>
      <point x="354" y="327" type="curve" smooth="yes"/>
      <point x="354" y="432"/>
      <point x="394" y="485"/>
      <point x="475" y="485" type="curve" smooth="yes"/>
      <point x="558" y="485"/>
      <point x="599" y="427"/>
      <point x="599" y="311" type="curve" smooth="yes"/>
      <point x="599" y="202"/>
      <point x="561" y="147"/>
    </contour>
  </outline>
</glyph>
<glyph name="seven" format="2">
  <advance width="893"/>
  <unicode hex="0037"/>
  <note>
seven
</note>
  <outline>
    <contour>
      <point x="280" y="5" type="curve"/>
      <point x="450" y="5" type="line"/>
      <point x="450" y="86"/>
      <point x="463" y="179"/>
      <point x="490" y="282" type="curve" smooth="yes"/>
      <point x="547" y="497"/>
      <point x="637" y="665"/>
      <point x="761" y="787" type="curve"/>
      <point x="761" y="916" type="line"/>
      <point x="156" y="916" type="line"/>
      <point x="156" y="751" type="line"/>
      <point x="558" y="751" type="line"/>
      <point x="475" y="647"/>
      <point x="409" y="530"/>
      <point x="360" y="400" type="curve" smooth="yes"/>
      <point x="309" y="266"/>
      <point x="283" y="134"/>
    </contour>
  </outline>
</glyph>
<glyph name="eight" format="2">
  <advance width="864"/>
  <unicode hex="0038"/>
  <note>
eight
</note>
  <outline>
    <contour>
      <point x="457" y="1" type="curve" smooth="yes"/>
      <point x="633" y="1"/>
      <point x="755" y="113"/>
      <point x="755" y="289" type="curve" smooth="yes"/>
      <point x="755" y="398"/>
      <point x="703" y="474"/>
      <point x="598" y="516" type="curve"/>
      <point x="683" y="553"/>
      <point x="726" y="617"/>
      <point x="726" y="707" type="curve" smooth="yes"/>
      <point x="726" y="784"/>
      <point x="698" y="843"/>
      <point x="643" y="886" type="curve" smooth="yes"/>
      <point x="592" y="925"/>
      <point x="528" y="945"/>
      <point x="449" y="945" type="curve" smooth="yes"/>
      <point x="369" y="945"/>
      <point x="304" y="926"/>
      <point x="254" y="887" type="curve" smooth="yes"/>
      <point x="199" y="844"/>
      <point x="171" y="784"/>
      <point x="171" y="707" type="curve" smooth="yes"/>
      <point x="171" y="616"/>
      <point x="215" y="553"/>
      <point x="302" y="516" type="curve"/>
      <point x="199" y="472"/>
      <point x="148" y="394"/>
      <point x="148" y="282" type="curve" smooth="yes"/>
      <point x="148" y="195"/>
      <point x="178" y="125"/>
      <point x="239" y="74" type="curve" smooth="yes"/>
      <point x="296" y="25"/>
      <point x="368" y="1"/>
    </contour>
    <contour>
      <point x="454" y="144" type="curve" smooth="yes"/>
      <point x="411" y="144"/>
      <point x="378" y="160"/>
      <point x="355" y="191" type="curve" smooth="yes"/>
      <point x="334" y="219"/>
      <point x="323" y="255"/>
      <point x="323" y="299" type="curve" smooth="yes"/>
      <point x="323" y="379"/>
      <point x="372" y="440"/>
      <point x="451" y="440" type="curve" smooth="yes"/>
      <point x="491" y="440"/>
      <point x="523" y="426"/>
      <point x="547" y="398" type="curve" smooth="yes"/>
      <point x="569" y="371"/>
      <point x="580" y="338"/>
      <point x="580" y="297" type="curve" smooth="yes"/>
      <point x="580" y="195"/>
      <point x="538" y="144"/>
    </contour>
    <contour>
      <point x="449" y="582" type="curve" smooth="yes"/>
      <point x="376" y="582"/>
      <point x="339" y="619"/>
      <point x="339" y="694" type="curve" smooth="yes"/>
      <point x="339" y="768"/>
      <point x="376" y="805"/>
      <point x="450" y="805" type="curve" smooth="yes"/>
      <point x="523" y="805"/>
      <point x="559" y="768"/>
      <point x="559" y="695" type="curve" smooth="yes"/>
      <point x="559" y="620"/>
      <point x="522" y="582"/>
    </contour>
  </outline>
</glyph>
<glyph name="nine" format="2">
  <advance width="908"/>
  <unicode hex="0039"/>
  <note>
nine
</note>
  <outline>
    <contour>
      <point x="435" y="2" type="curve" smooth="yes"/>
      <point x="661" y="2"/>
      <point x="774" y="161"/>
      <point x="774" y="480" type="curve" smooth="yes"/>
      <point x="774" y="791"/>
      <point x="667" y="946"/>
      <point x="453" y="946" type="curve" smooth="yes"/>
      <point x="364" y="946"/>
      <point x="291" y="916"/>
      <point x="236" y="856" type="curve" smooth="yes"/>
      <point x="183" y="798"/>
      <point x="157" y="724"/>
      <point x="157" y="633" type="curve" smooth="yes"/>
      <point x="157" y="551"/>
      <point x="181" y="481"/>
      <point x="228" y="424" type="curve" smooth="yes"/>
      <point x="279" y="361"/>
      <point x="344" y="330"/>
      <point x="424" y="330" type="curve" smooth="yes"/>
      <point x="491" y="330"/>
      <point x="546" y="356"/>
      <point x="591" y="408" type="curve"/>
      <point x="580" y="235"/>
      <point x="532" y="148"/>
      <point x="449" y="148" type="curve" smooth="yes"/>
      <point x="388" y="148"/>
      <point x="354" y="182"/>
      <point x="346" y="251" type="curve"/>
      <point x="175" y="232" type="line"/>
      <point x="200" y="79"/>
      <point x="287" y="2"/>
    </contour>
    <contour>
      <point x="454" y="460" type="curve" smooth="yes"/>
      <point x="372" y="460"/>
      <point x="331" y="518"/>
      <point x="331" y="633" type="curve" smooth="yes"/>
      <point x="331" y="744"/>
      <point x="369" y="799"/>
      <point x="445" y="799" type="curve" smooth="yes"/>
      <point x="488" y="799"/>
      <point x="521" y="779"/>
      <point x="545" y="738" type="curve" smooth="yes"/>
      <point x="565" y="705"/>
      <point x="575" y="665"/>
      <point x="575" y="619" type="curve" smooth="yes"/>
      <point x="575" y="513"/>
      <point x="535" y="460"/>
    </contour>
  </outline>
</glyph>
<glyph name="less" format="2">
  <advance width="936"/>
  <unicode hex="003C"/>
  <note>
less
</note>
  <outline>
    <contour>
      <point x="790" y="-27" type="line"/>
      <point x="790" y="151" type="line"/>
      <point x="349" y="326" type="line"/>
      <point x="790" y="495" type="line"/>
      <point x="790" y="675" type="line"/>
      <point x="157" y="401" type="line"/>
      <point x="157" y="248" type="line"/>
    </contour>
  </outline>
</glyph>
<glyph name="greater" format="2">
  <advance width="950"/>
  <unicode hex="003E"/>
  <note>
greater
</note>
  <outline>
    <contour>
      <point x="151" y="7" type="line"/>
      <point x="785" y="283" type="line"/>
      <point x="785" y="434" type="line"/>
      <point x="151" y="708" type="line"/>
      <point x="151" y="531" type="line"/>
      <point x="593" y="359" type="line"/>
      <point x="151" y="185" type="line"/>
    </contour>
  </outline>
</glyph>
<glyph name="C" format="2">
  <advance width="1229"/>
  <unicode hex="0043"/>
  <note>
C
</note>
  <outline>
    <contour>
      <point x="665" y="-33" type="curve" smooth="yes"/>
      <point x="816" y="-33"/>
      <point x="947" y="29"/>
      <point x="1057" y="152" type="curve" smooth="yes"/>
      <point x="1086" y="184"/>
      <point x="1100" y="207"/>
      <point x="1100" y="222" type="curve" smooth="yes"/>
      <point x="1100" y="248"/>
      <point x="1087" y="261"/>
      <point x="1060" y="261" type="curve" smooth="yes"/>
      <point x="1051" y="261"/>
      <point x="1029" y="243"/>
      <point x="992" y="207" type="curve" smooth="yes"/>
      <point x="947" y="162"/>
      <point x="904" y="128"/>
      <point x="865" y="105" type="curve" smooth="yes"/>
      <point x="802" y="69"/>
      <point x="735" y="51"/>
      <point x="663" y="51" type="curve" smooth="yes"/>
      <point x="540" y="51"/>
      <point x="433" y="98"/>
      <point x="344" y="192" type="curve" smooth="yes"/>
      <point x="255" y="284"/>
      <point x="211" y="392"/>
      <point x="211" y="516" type="curve" smooth="yes"/>
      <point x="211" y="663" type="line" smooth="yes"/>
      <point x="211" y="783"/>
      <point x="250" y="887"/>
      <point x="329" y="976" type="curve" smooth="yes"/>
      <point x="410" y="1067"/>
      <point x="510" y="1113"/>
      <point x="629" y="1113" type="curve" smooth="yes"/>
      <point x="728" y="1113"/>
      <point x="816" y="1083"/>
      <point x="893" y="1024" type="curve" smooth="yes"/>
      <point x="938" y="989"/>
      <point x="967" y="950"/>
      <point x="978" y="907" type="curve" smooth="yes"/>
      <point x="990" y="860"/>
      <point x="997" y="837"/>
      <point x="998" y="836" type="curve" smooth="yes"/>
      <point x="1005" y="828"/>
      <point x="1015" y="824"/>
      <point x="1026" y="824" type="curve" smooth="yes"/>
      <point x="1054" y="824"/>
      <point x="1068" y="843"/>
      <point x="1068" y="881" type="curve" smooth="yes"/>
      <point x="1068" y="1114" type="line" smooth="yes"/>
      <point x="1068" y="1151"/>
      <point x="1054" y="1170"/>
      <point x="1026" y="1170" type="curve" smooth="yes"/>
      <point x="1003" y="1170"/>
      <point x="989" y="1155"/>
      <point x="984" y="1126" type="curve"/>
      <point x="984" y="1055" type="line"/>
      <point x="884" y="1150"/>
      <point x="765" y="1197"/>
      <point x="626" y="1197" type="curve" smooth="yes"/>
      <point x="347" y="1197"/>
      <point x="127" y="956"/>
      <point x="127" y="675" type="curve" smooth="yes"/>
      <point x="127" y="504" type="line" smooth="yes"/>
      <point x="127" y="391"/>
      <point x="167" y="286"/>
      <point x="246" y="187" type="curve" smooth="yes"/>
      <point x="363" y="40"/>
      <point x="502" y="-33"/>
    </contour>
  </outline>
</glyph>
<glyph name="F" format="2">
  <advance width="1241"/>
  <unicode hex="0046"/>
  <note>
F
</note>
  <outline>
    <contour>
      <point x="206" y="-1" type="curve" smooth="yes"/>
      <point x="432" y="-1" type="line" smooth="yes"/>
      <point x="469" y="-1"/>
      <point x="488" y="13"/>
      <point x="488" y="41" type="curve" smooth="yes"/>
      <point x="488" y="70"/>
      <point x="469" y="84"/>
      <point x="432" y="84" type="curve" smooth="yes"/>
      <point x="361" y="84" type="line"/>
      <point x="361" y="565" type="line"/>
      <point x="662" y="565" type="line"/>
      <point x="662" y="494" type="line" smooth="yes"/>
      <point x="662" y="457"/>
      <point x="676" y="438"/>
      <point x="705" y="438" type="curve" smooth="yes"/>
      <point x="733" y="438"/>
      <point x="747" y="457"/>
      <point x="747" y="494" type="curve" smooth="yes"/>
      <point x="747" y="720" type="line" smooth="yes"/>
      <point x="747" y="757"/>
      <point x="733" y="776"/>
      <point x="705" y="776" type="curve" smooth="yes"/>
      <point x="676" y="776"/>
      <point x="662" y="757"/>
      <point x="662" y="720" type="curve" smooth="yes"/>
      <point x="662" y="649" type="line"/>
      <point x="361" y="649" type="line"/>
      <point x="361" y="1086" type="line"/>
      <point x="1005" y="1086" type="line"/>
      <point x="1004" y="1015" type="line" smooth="yes"/>
      <point x="1003" y="978"/>
      <point x="1018" y="959"/>
      <point x="1047" y="959" type="curve" smooth="yes"/>
      <point x="1075" y="959"/>
      <point x="1089" y="978"/>
      <point x="1089" y="1015" type="curve" smooth="yes"/>
      <point x="1089" y="1170" type="line"/>
      <point x="206" y="1171" type="line" smooth="yes"/>
      <point x="169" y="1171"/>
      <point x="150" y="1157"/>
      <point x="150" y="1129" type="curve" smooth="yes"/>
      <point x="150" y="1100"/>
      <point x="169" y="1086"/>
      <point x="206" y="1086" type="curve" smooth="yes"/>
      <point x="277" y="1086" type="line"/>
      <point x="277" y="84" type="line"/>
      <point x="206" y="84" type="line" smooth="yes"/>
      <point x="169" y="84"/>
      <point x="150" y="70"/>
      <point x="150" y="41" type="curve" smooth="yes"/>
      <point x="150" y="13"/>
      <point x="169" y="-1"/>
    </contour>
  </outline>
</glyph>
<glyph name="P" format="2">
  <advance width="1192"/>
  <unicode hex="0050"/>
  <note>
P
</note>
  <outline>
    <contour>
      <point x="206" y="-2" type="curve" smooth="yes"/>
      <point x="432" y="-2" type="line" smooth="yes"/>
      <point x="469" y="-2"/>
      <point x="488" y="12"/>
      <point x="488" y="40" type="curve" smooth="yes"/>
      <point x="488" y="69"/>
      <point x="469" y="83"/>
      <point x="432" y="83" type="curve" smooth="yes"/>
      <point x="361" y="83" type="line"/>
      <point x="361" y="479" type="line"/>
      <point x="496" y="475" type="line" smooth="yes"/>
      <point x="553" y="473"/>
      <point x="600" y="473"/>
      <point x="637" y="476" type="curve" smooth="yes"/>
      <point x="688" y="479"/>
      <point x="731" y="486"/>
      <point x="768" y="498" type="curve" smooth="yes"/>
      <point x="849" y="525"/>
      <point x="914" y="565"/>
      <point x="963" y="618" type="curve" smooth="yes"/>
      <point x="1017" y="677"/>
      <point x="1044" y="747"/>
      <point x="1044" y="828" type="curve" smooth="yes"/>
      <point x="1044" y="930"/>
      <point x="1003" y="1013"/>
      <point x="922" y="1078" type="curve" smooth="yes"/>
      <point x="846" y="1139"/>
      <point x="756" y="1169"/>
      <point x="652" y="1169" type="curve" smooth="yes"/>
      <point x="206" y="1170" type="line" smooth="yes"/>
      <point x="169" y="1170"/>
      <point x="150" y="1156"/>
      <point x="150" y="1128" type="curve" smooth="yes"/>
      <point x="150" y="1099"/>
      <point x="169" y="1085"/>
      <point x="206" y="1085" type="curve" smooth="yes"/>
      <point x="277" y="1085" type="line"/>
      <point x="277" y="83" type="line"/>
      <point x="206" y="83" type="line" smooth="yes"/>
      <point x="169" y="83"/>
      <point x="150" y="69"/>
      <point x="150" y="40" type="curve" smooth="yes"/>
      <point x="150" y="12"/>
      <point x="169" y="-2"/>
    </contour>
    <contour>
      <point x="361" y="563" type="line"/>
      <point x="361" y="1085" type="line"/>
      <point x="660" y="1085" type="line" smooth="yes"/>
      <point x="737" y="1085"/>
      <point x="805" y="1062"/>
      <point x="864" y="1016" type="curve" smooth="yes"/>
      <point x="928" y="966"/>
      <point x="960" y="903"/>
      <point x="960" y="828" type="curve" smooth="yes"/>
      <point x="960" y="749"/>
      <point x="923" y="684"/>
      <point x="850" y="632" type="curve" smooth="yes"/>
      <point x="785" y="586"/>
      <point x="711" y="563"/>
      <point x="629" y="563" type="curve" smooth="yes"/>
    </contour>
  </outline>
</glyph>
<glyph name="X" format="2">
  <advance width="1449"/>
  <unicode hex="0058"/>
  <note>
X
</note>
  <outline>
    <contour>
      <point x="206" y="-2" type="curve" smooth="yes"/>
      <point x="452" y="-2" type="line" smooth="yes"/>
      <point x="489" y="-2"/>
      <point x="508" y="12"/>
      <point x="508" y="40" type="curve" smooth="yes"/>
      <point x="508" y="69"/>
      <point x="489" y="83"/>
      <point x="452" y="83" type="curve" smooth="yes"/>
      <point x="381" y="83" type="line"/>
      <point x="723" y="529" type="line"/>
      <point x="1070" y="83" type="line"/>
      <point x="999" y="83" type="line" smooth="yes"/>
      <point x="962" y="83"/>
      <point x="943" y="69"/>
      <point x="943" y="40" type="curve" smooth="yes"/>
      <point x="943" y="12"/>
      <point x="962" y="-2"/>
      <point x="999" y="-2" type="curve" smooth="yes"/>
      <point x="1245" y="-2" type="line" smooth="yes"/>
      <point x="1282" y="-2"/>
      <point x="1301" y="12"/>
      <point x="1301" y="40" type="curve" smooth="yes"/>
      <point x="1301" y="69"/>
      <point x="1282" y="83"/>
      <point x="1245" y="83" type="curve" smooth="yes"/>
      <point x="1174" y="83" type="line"/>
      <point x="775" y="598" type="line"/>
      <point x="1149" y="1085" type="line"/>
      <point x="1220" y="1085" type="line" smooth="yes"/>
      <point x="1257" y="1085"/>
      <point x="1276" y="1099"/>
      <point x="1276" y="1128" type="curve" smooth="yes"/>
      <point x="1276" y="1156"/>
      <point x="1257" y="1170"/>
      <point x="1220" y="1170" type="curve" smooth="yes"/>
      <point x="974" y="1170" type="line" smooth="yes"/>
      <point x="937" y="1170"/>
      <point x="918" y="1156"/>
      <point x="918" y="1128" type="curve" smooth="yes"/>
      <point x="918" y="1099"/>
      <point x="937" y="1085"/>
      <point x="974" y="1085" type="curve" smooth="yes"/>
      <point x="1045" y="1085" type="line"/>
      <point x="723" y="666" type="line"/>
      <point x="399" y="1085" type="line"/>
      <point x="470" y="1085" type="line" smooth="yes"/>
      <point x="507" y="1085"/>
      <point x="526" y="1099"/>
      <point x="526" y="1128" type="curve" smooth="yes"/>
      <point x="526" y="1156"/>
      <point x="507" y="1170"/>
      <point x="470" y="1170" type="curve" smooth="yes"/>
      <point x="224" y="1170" type="line" smooth="yes"/>
      <point x="187" y="1170"/>
      <point x="168" y="1156"/>
      <point x="168" y="1128" type="curve" smooth="yes"/>
      <point x="168" y="1099"/>
      <point x="187" y="1085"/>
      <point x="224" y="1085" type="curve" smooth="yes"/>
      <point x="295" y="1085" type="line"/>
      <point x="671" y="598" type="line"/>
      <point x="277" y="83" type="line"/>
      <point x="206" y="83" type="line" smooth="yes"/>
      <point x="169" y="83"/>
      <point x="150" y="69"/>
      <point x="150" y="40" type="curve" smooth="yes"/>
      <point x="150" y="12"/>
      <point x="169" y="-2"/>
    </contour>
  </outline>
</glyph>
<glyph name="Y" format="2">
  <advance width="1371"/>
  <unicode hex="0059"/>
  <note>
Y
</note>
  <outline>
    <contour>
      <point x="575" y="-2" type="curve" smooth="yes"/>
      <point x="802" y="-2" type="line" smooth="yes"/>
      <point x="839" y="-2"/>
      <point x="858" y="12"/>
      <point x="858" y="40" type="curve" smooth="yes"/>
      <point x="858" y="69"/>
      <point x="839" y="83"/>
      <point x="802" y="83" type="curve" smooth="yes"/>
      <point x="731" y="83" type="line"/>
      <point x="731" y="527" type="line"/>
      <point x="1094" y="1085" type="line"/>
      <point x="1165" y="1085" type="line" smooth="yes"/>
      <point x="1202" y="1085"/>
      <point x="1221" y="1099"/>
      <point x="1221" y="1128" type="curve" smooth="yes"/>
      <point x="1221" y="1156"/>
      <point x="1202" y="1170"/>
      <point x="1165" y="1170" type="curve" smooth="yes"/>
      <point x="919" y="1170" type="line" smooth="yes"/>
      <point x="882" y="1170"/>
      <point x="863" y="1156"/>
      <point x="863" y="1128" type="curve" smooth="yes"/>
      <point x="863" y="1099"/>
      <point x="882" y="1085"/>
      <point x="919" y="1085" type="curve" smooth="yes"/>
      <point x="990" y="1085" type="line"/>
      <point x="689" y="612" type="line"/>
      <point x="381" y="1085" type="line"/>
      <point x="452" y="1085" type="line" smooth="yes"/>
      <point x="489" y="1085"/>
      <point x="508" y="1099"/>
      <point x="508" y="1128" type="curve" smooth="yes"/>
      <point x="508" y="1156"/>
      <point x="489" y="1170"/>
      <point x="452" y="1170" type="curve" smooth="yes"/>
      <point x="206" y="1170" type="line" smooth="yes"/>
      <point x="169" y="1170"/>
      <point x="150" y="1156"/>
      <point x="150" y="1128" type="curve" smooth="yes"/>
      <point x="150" y="1099"/>
      <point x="169" y="1085"/>
      <point x="206" y="1085" type="curve" smooth="yes"/>
      <point x="277" y="1085" type="line"/>
      <point x="646" y="527" type="line"/>
      <point x="646" y="83" type="line"/>
      <point x="575" y="83" type="line" smooth="yes"/>
      <point x="538" y="83"/>
      <point x="519" y="69"/>
      <point x="519" y="40" type="curve" smooth="yes"/>
      <point x="519" y="12"/>
      <point x="538" y="-2"/>
    </contour>
  </outline>
</glyph>
<glyph name="q" format="2">
  <advance width="1229"/>
  <unicode hex="0071"/>
  <note>
q
</note>
  <outline>
    <contour>
      <point x="845" y="-486" type="curve" smooth="yes"/>
      <point x="1070" y="-486" type="line" smooth="yes"/>
      <point x="1108" y="-486"/>
      <point x="1127" y="-472"/>
      <point x="1127" y="-444" type="curve" smooth="yes"/>
      <point x="1127" y="-419"/>
      <point x="1110" y="-405"/>
      <point x="1077" y="-401" type="curve"/>
      <point x="1000" y="-402" type="line"/>
      <point x="1000" y="677" type="line"/>
      <point x="1077" y="676" type="line"/>
      <point x="1110" y="681"/>
      <point x="1127" y="695"/>
      <point x="1127" y="720" type="curve" smooth="yes"/>
      <point x="1127" y="748"/>
      <point x="1108" y="762"/>
      <point x="1071" y="762" type="curve" smooth="yes"/>
      <point x="916" y="762" type="line"/>
      <point x="916" y="629" type="line"/>
      <point x="830" y="748"/>
      <point x="714" y="807"/>
      <point x="569" y="807" type="curve" smooth="yes"/>
      <point x="334" y="807"/>
      <point x="146" y="622"/>
      <point x="146" y="387" type="curve" smooth="yes"/>
      <point x="146" y="154"/>
      <point x="336" y="-32"/>
      <point x="569" y="-32" type="curve" smooth="yes"/>
      <point x="714" y="-32"/>
      <point x="829" y="27"/>
      <point x="916" y="145" type="curve"/>
      <point x="916" y="-402" type="line"/>
      <point x="840" y="-401" type="line"/>
      <point x="806" y="-405"/>
      <point x="789" y="-419"/>
      <point x="789" y="-444" type="curve" smooth="yes"/>
      <point x="789" y="-472"/>
      <point x="808" y="-486"/>
    </contour>
    <contour>
      <point x="570" y="44" type="curve" smooth="yes"/>
      <point x="378" y="44"/>
      <point x="223" y="195"/>
      <point x="223" y="387" type="curve" smooth="yes"/>
      <point x="223" y="579"/>
      <point x="378" y="730"/>
      <point x="570" y="730" type="curve" smooth="yes"/>
      <point x="762" y="730"/>
      <point x="918" y="579"/>
      <point x="918" y="387" type="curve" smooth="yes"/>
      <point x="918" y="196"/>
      <point x="762" y="44"/>
    </contour>
  </outline>
</glyph>
<glyph name="u" format="2">
  <advance width="1273"/>
  <unicode hex="0075"/>
  <note>
u
</note>
  <outline>
    <contour>
      <point x="543" y="-33" type="curve" smooth="yes"/>
      <point x="676" y="-33"/>
      <point x="800" y="19"/>
      <point x="915" y="123" type="curve"/>
      <point x="915" y="0" type="line"/>
      <point x="1070" y="0" type="line" smooth="yes"/>
      <point x="1107" y="0"/>
      <point x="1126" y="14"/>
      <point x="1126" y="42" type="curve" smooth="yes"/>
      <point x="1126" y="67"/>
      <point x="1109" y="81"/>
      <point x="1075" y="85" type="curve"/>
      <point x="999" y="84" type="line"/>
      <point x="999" y="762" type="line"/>
      <point x="844" y="762" type="line" smooth="yes"/>
      <point x="807" y="762"/>
      <point x="788" y="748"/>
      <point x="788" y="720" type="curve" smooth="yes"/>
      <point x="788" y="695"/>
      <point x="805" y="680"/>
      <point x="838" y="676" type="curve"/>
      <point x="915" y="677" type="line"/>
      <point x="915" y="239" type="line"/>
      <point x="801" y="114"/>
      <point x="676" y="51"/>
      <point x="539" y="51" type="curve" smooth="yes"/>
      <point x="432" y="51"/>
      <point x="357" y="131"/>
      <point x="357" y="239" type="curve" smooth="yes"/>
      <point x="357" y="762" type="line"/>
      <point x="202" y="762" type="line" smooth="yes"/>
      <point x="165" y="762"/>
      <point x="146" y="748"/>
      <point x="146" y="720" type="curve" smooth="yes"/>
      <point x="146" y="695"/>
      <point x="163" y="680"/>
      <point x="196" y="676" type="curve"/>
      <point x="273" y="677" type="line"/>
      <point x="273" y="239" type="line" smooth="yes"/>
      <point x="273" y="78"/>
      <point x="382" y="-33"/>
    </contour>
  </outline>
</glyph>
<glyph name="z" format="2">
  <advance width="1015"/>
  <unicode hex="007A"/>
  <note>
z
</note>
  <outline>
    <contour>
      <point x="150" y="0" type="line"/>
      <point x="864" y="0" type="line"/>
      <point x="864" y="159" type="line" smooth="yes"/>
      <point x="864" y="194"/>
      <point x="850" y="212"/>
      <point x="822" y="212" type="curve" smooth="yes"/>
      <point x="797" y="212"/>
      <point x="782" y="195"/>
      <point x="778" y="161" type="curve"/>
      <point x="779" y="85" type="line"/>
      <point x="266" y="84" type="line"/>
      <point x="844" y="687" type="line"/>
      <point x="844" y="762" type="line"/>
      <point x="172" y="762" type="line"/>
      <point x="172" y="603" type="line" smooth="yes"/>
      <point x="172" y="568"/>
      <point x="186" y="550"/>
      <point x="214" y="550" type="curve" smooth="yes"/>
      <point x="239" y="550"/>
      <point x="254" y="567"/>
      <point x="258" y="601" type="curve"/>
      <point x="257" y="677" type="line"/>
      <point x="725" y="677" type="line"/>
      <point x="150" y="75" type="line"/>
    </contour>
  </outline>
</glyph>
<glyph name="braceright" format="2">
  <advance width="1034"/>
  <unicode hex="007D"/>
  <note>
braceright
</note>
  <outline>
    <contour>
      <point x="282" y="-110" type="curve" smooth="yes"/>
      <point x="299" y="-110"/>
      <point x="336" y="-83"/>
      <point x="394" y="-30" type="curve" smooth="yes"/>
      <point x="520" y="86"/>
      <point x="603" y="204"/>
      <point x="643" y="325" type="curve"/>
      <point x="746" y="304" type="line"/>
      <point x="763" y="304"/>
      <point x="771" y="308"/>
      <point x="771" y="317" type="curve"/>
      <point x="767" y="329"/>
      <point x="764" y="336"/>
      <point x="761" y="339" type="curve"/>
      <point x="676" y="460" type="line"/>
      <point x="667" y="467"/>
      <point x="663" y="476"/>
      <point x="663" y="486" type="curve" smooth="yes"/>
      <point x="663" y="496"/>
      <point x="667" y="502"/>
      <point x="676" y="503" type="curve" smooth="yes"/>
      <point x="684" y="503"/>
      <point x="695" y="497"/>
      <point x="709" y="484" type="curve" smooth="yes"/>
      <point x="808" y="397" type="line" smooth="yes"/>
      <point x="816" y="390"/>
      <point x="825" y="385"/>
      <point x="836" y="382" type="curve"/>
      <point x="848" y="382"/>
      <point x="854" y="394"/>
      <point x="854" y="417" type="curve" smooth="yes"/>
      <point x="854" y="497" type="line"/>
      <point x="868" y="500"/>
      <point x="887" y="510"/>
      <point x="912" y="527" type="curve" smooth="yes"/>
      <point x="934" y="543"/>
      <point x="945" y="557"/>
      <point x="945" y="570" type="curve" smooth="yes"/>
      <point x="945" y="592"/>
      <point x="915" y="618"/>
      <point x="854" y="648" type="curve"/>
      <point x="854" y="737" type="line" smooth="yes"/>
      <point x="854" y="753"/>
      <point x="848" y="761"/>
      <point x="836" y="761" type="curve"/>
      <point x="824" y="759" type="line"/>
      <point x="813" y="750" type="line"/>
      <point x="704" y="653" type="line"/>
      <point x="680" y="644" type="line"/>
      <point x="673" y="644"/>
      <point x="667" y="649"/>
      <point x="663" y="659" type="curve"/>
      <point x="669" y="676" type="line"/>
      <point x="756" y="798" type="line"/>
      <point x="767" y="824" type="line"/>
      <point x="767" y="833"/>
      <point x="757" y="837"/>
      <point x="737" y="837" type="curve"/>
      <point x="637" y="822" type="line"/>
      <point x="601" y="931"/>
      <point x="534" y="1035"/>
      <point x="435" y="1132" type="curve" smooth="yes"/>
      <point x="350" y="1215"/>
      <point x="299" y="1257"/>
      <point x="280" y="1257" type="curve" smooth="yes"/>
      <point x="268" y="1257"/>
      <point x="262" y="1252"/>
      <point x="262" y="1242" type="curve"/>
      <point x="310" y="1181" type="line"/>
      <point x="373" y="1106" type="line"/>
      <point x="405" y="1054" type="line"/>
      <point x="446" y="984" type="line"/>
      <point x="488" y="887" type="line"/>
      <point x="497" y="856"/>
      <point x="501" y="835"/>
      <point x="501" y="822" type="curve"/>
      <point x="431" y="826" type="line" smooth="yes"/>
      <point x="418" y="827"/>
      <point x="410" y="824"/>
      <point x="409" y="817" type="curve" smooth="yes"/>
      <point x="409" y="808"/>
      <point x="414" y="798"/>
      <point x="425" y="785" type="curve" smooth="yes"/>
      <point x="520" y="677" type="line"/>
      <point x="525" y="670"/>
      <point x="527" y="664"/>
      <point x="527" y="661" type="curve" smooth="yes"/>
      <point x="527" y="654"/>
      <point x="522" y="650"/>
      <point x="513" y="648" type="curve"/>
      <point x="494" y="653" type="line"/>
      <point x="379" y="739" type="line" smooth="yes"/>
      <point x="367" y="748"/>
      <point x="358" y="752"/>
      <point x="351" y="752" type="curve" smooth="yes"/>
      <point x="344" y="752"/>
      <point x="339" y="746"/>
      <point x="338" y="733" type="curve" smooth="yes"/>
      <point x="338" y="648" type="line"/>
      <point x="329" y="648"/>
      <point x="320" y="645"/>
      <point x="310" y="638" type="curve" smooth="yes"/>
      <point x="280" y="620" type="line" smooth="yes"/>
      <point x="258" y="606"/>
      <point x="247" y="589"/>
      <point x="247" y="570" type="curve" smooth="yes"/>
      <point x="247" y="557"/>
      <point x="259" y="542"/>
      <point x="282" y="525" type="curve"/>
      <point x="310" y="508" type="line"/>
      <point x="338" y="497" type="line"/>
      <point x="338" y="414" type="line" smooth="yes"/>
      <point x="338" y="397"/>
      <point x="342" y="387"/>
      <point x="351" y="386" type="curve"/>
      <point x="371" y="397" type="line"/>
      <point x="488" y="486" type="line"/>
      <point x="501" y="492" type="line"/>
      <point x="513" y="495" type="line"/>
      <point x="520" y="495"/>
      <point x="526" y="491"/>
      <point x="529" y="482" type="curve"/>
      <point x="529" y="475"/>
      <point x="524" y="465"/>
      <point x="513" y="453" type="curve" smooth="yes"/>
      <point x="416" y="345" type="line"/>
      <point x="409" y="326" type="line"/>
      <point x="409" y="319"/>
      <point x="419" y="315"/>
      <point x="440" y="315" type="curve"/>
      <point x="507" y="325" type="line"/>
      <point x="507" y="262"/>
      <point x="475" y="185"/>
      <point x="412" y="93" type="curve" smooth="yes"/>
      <point x="357" y="11" type="line"/>
      <point x="351" y="5" type="line"/>
      <point x="345" y="-2" type="line"/>
      <point x="334" y="-15" type="line"/>
      <point x="325" y="-24" type="line"/>
      <point x="308" y="-43" type="line"/>
      <point x="284" y="-71" type="line" smooth="yes"/>
      <point x="276" y="-80"/>
      <point x="271" y="-88"/>
      <point x="269" y="-95" type="curve"/>
      <point x="269" y="-104"/>
      <point x="273" y="-109"/>
    </contour>
    <contour>
      <point x="505" y="135" type="line"/>
      <point x="505" y="210" type="line"/>
      <point x="520" y="242"/>
      <point x="538" y="294"/>
      <point x="559" y="367" type="curve"/>
      <point x="464" y="351" type="line"/>
      <point x="546" y="443" type="line"/>
      <point x="546" y="403" type="line"/>
      <point x="579" y="403" type="line"/>
      <point x="579" y="354" type="line"/>
      <point x="609" y="403" type="line"/>
      <point x="643" y="403" type="line"/>
      <point x="643" y="447" type="line"/>
      <point x="715" y="341" type="line"/>
      <point x="618" y="364" type="line"/>
      <point x="618" y="341"/>
      <point x="604" y="302"/>
      <point x="576" y="247" type="curve" smooth="yes"/>
      <point x="537" y="178" type="line"/>
    </contour>
    <contour>
      <point x="373" y="443" type="line"/>
      <point x="373" y="523" type="line"/>
      <point x="360" y="526"/>
      <point x="343" y="532"/>
      <point x="322" y="541" type="curve" smooth="yes"/>
      <point x="297" y="552"/>
      <point x="284" y="563"/>
      <point x="284" y="572" type="curve" smooth="yes"/>
      <point x="284" y="581"/>
      <point x="296" y="593"/>
      <point x="321" y="607" type="curve" smooth="yes"/>
      <point x="332" y="613"/>
      <point x="349" y="618"/>
      <point x="373" y="622" type="curve"/>
      <point x="373" y="703" type="line"/>
      <point x="481" y="624" type="line"/>
      <point x="418" y="620" type="line"/>
      <point x="418" y="590" type="line"/>
      <point x="402" y="590"/>
      <point x="387" y="584"/>
      <point x="373" y="572" type="curve"/>
      <point x="394" y="562" type="line"/>
      <point x="418" y="557" type="line"/>
      <point x="418" y="527" type="line"/>
      <point x="481" y="527" type="line"/>
    </contour>
    <contour>
      <point x="594" y="503" type="curve" smooth="yes"/>
      <point x="543" y="503"/>
      <point x="518" y="527"/>
      <point x="518" y="575" type="curve" smooth="yes"/>
      <point x="518" y="610"/>
      <point x="555" y="648"/>
      <point x="594" y="648" type="curve" smooth="yes"/>
      <point x="611" y="648"/>
      <point x="629" y="640"/>
      <point x="646" y="625" type="curve"/>
      <point x="650" y="623"/>
      <point x="656" y="616"/>
      <point x="663" y="603" type="curve"/>
      <point x="669" y="575" type="line"/>
      <point x="669" y="535"/>
      <point x="635" y="503"/>
    </contour>
    <contour>
      <point x="819" y="443" type="line"/>
      <point x="711" y="521" type="line"/>
      <point x="774" y="525" type="line"/>
      <point x="774" y="555" type="line"/>
      <point x="798" y="560" type="line" smooth="yes"/>
      <point x="805" y="562"/>
      <point x="812" y="566"/>
      <point x="819" y="573" type="curve"/>
      <point x="797" y="583" type="line"/>
      <point x="774" y="588" type="line"/>
      <point x="774" y="618" type="line"/>
      <point x="709" y="618" type="line"/>
      <point x="819" y="705" type="line"/>
      <point x="819" y="622" type="line"/>
      <point x="831" y="622"/>
      <point x="848" y="616"/>
      <point x="869" y="603" type="curve"/>
      <point x="895" y="592"/>
      <point x="909" y="582"/>
      <point x="910" y="573" type="curve" smooth="yes"/>
      <point x="910" y="567"/>
      <point x="898" y="557"/>
      <point x="873" y="542" type="curve"/>
      <point x="819" y="523" type="line"/>
    </contour>
    <contour>
      <point x="650" y="700" type="line"/>
      <point x="644" y="742" type="line"/>
      <point x="611" y="742" type="line"/>
      <point x="583" y="791" type="line"/>
      <point x="579" y="742" type="line"/>
      <point x="548" y="742" type="line"/>
      <point x="548" y="703" type="line"/>
      <point x="462" y="793" type="line"/>
      <point x="559" y="778" type="line"/>
      <point x="529" y="883" type="line" smooth="yes"/>
      <point x="523" y="903"/>
      <point x="516" y="921"/>
      <point x="507" y="936" type="curve"/>
      <point x="507" y="1010" type="line"/>
      <point x="543" y="974"/>
      <point x="615" y="830"/>
      <point x="620" y="781" type="curve"/>
      <point x="717" y="804" type="line"/>
    </contour>
  </outline>
</glyph>
<glyph name="sterling" format="2">
  <advance width="1198"/>
  <unicode hex="00A3"/>
  <note>
sterling
</note>
  <outline>
    <contour>
      <point x="206" y="2" type="curve" smooth="yes"/>
      <point x="875" y="2" type="line" smooth="yes"/>
      <point x="926" y="2"/>
      <point x="968" y="22"/>
      <point x="1002" y="62" type="curve" smooth="yes"/>
      <point x="1034" y="100"/>
      <point x="1050" y="145"/>
      <point x="1050" y="196" type="curve" smooth="yes"/>
      <point x="1050" y="226"/>
      <point x="1036" y="241"/>
      <point x="1007" y="241" type="curve" smooth="yes"/>
      <point x="988" y="241"/>
      <point x="974" y="228"/>
      <point x="967" y="201" type="curve" smooth="yes"/>
      <point x="945" y="126" type="line"/>
      <point x="930" y="99"/>
      <point x="905" y="86"/>
      <point x="870" y="86" type="curve" smooth="yes"/>
      <point x="351" y="86" type="line"/>
      <point x="430" y="186"/>
      <point x="469" y="307"/>
      <point x="469" y="448" type="curve" smooth="yes"/>
      <point x="469" y="487"/>
      <point x="466" y="528"/>
      <point x="459" y="569" type="curve"/>
      <point x="645" y="569" type="line" smooth="yes"/>
      <point x="682" y="569"/>
      <point x="701" y="583"/>
      <point x="701" y="611" type="curve" smooth="yes"/>
      <point x="701" y="639"/>
      <point x="682" y="653"/>
      <point x="645" y="653" type="curve" smooth="yes"/>
      <point x="440" y="653" type="line"/>
      <point x="401" y="791"/>
      <point x="382" y="875"/>
      <point x="382" y="906" type="curve" smooth="yes"/>
      <point x="382" y="1023"/>
      <point x="477" y="1119"/>
      <point x="594" y="1119" type="curve" smooth="yes"/>
      <point x="647" y="1119"/>
      <point x="697" y="1098"/>
      <point x="743" y="1055" type="curve" smooth="yes"/>
      <point x="789" y="1012"/>
      <point x="814" y="991"/>
      <point x="818" y="991" type="curve" smooth="yes"/>
      <point x="846" y="991"/>
      <point x="860" y="1004"/>
      <point x="860" y="1030" type="curve" smooth="yes"/>
      <point x="860" y="1083"/>
      <point x="731" y="1204"/>
      <point x="591" y="1204" type="curve" smooth="yes"/>
      <point x="428" y="1204"/>
      <point x="297" y="1069"/>
      <point x="297" y="906" type="curve" smooth="yes"/>
      <point x="297" y="855"/>
      <point x="316" y="771"/>
      <point x="354" y="653" type="curve"/>
      <point x="206" y="653" type="line" smooth="yes"/>
      <point x="169" y="653"/>
      <point x="150" y="639"/>
      <point x="150" y="611" type="curve" smooth="yes"/>
      <point x="150" y="583"/>
      <point x="169" y="569"/>
      <point x="206" y="569" type="curve" smooth="yes"/>
      <point x="375" y="569" type="line"/>
      <point x="383" y="536"/>
      <point x="387" y="498"/>
      <point x="387" y="453" type="curve" smooth="yes"/>
      <point x="387" y="396"/>
      <point x="378" y="338"/>
      <point x="359" y="279" type="curve" smooth="yes"/>
      <point x="338" y="212"/>
      <point x="311" y="160"/>
      <point x="276" y="125" type="curve" smooth="yes"/>
      <point x="261" y="110"/>
      <point x="234" y="97"/>
      <point x="195" y="85" type="curve" smooth="yes"/>
      <point x="165" y="76"/>
      <point x="150" y="63"/>
      <point x="150" y="44" type="curve" smooth="yes"/>
      <point x="150" y="16"/>
      <point x="169" y="2"/>
    </contour>
  </outline>
</glyph>
<glyph name="brokenbar" format="2">
  <advance width="384"/>
  <unicode hex="00A6"/>
  <note>
brokenbar
</note>
  <outline>
    <contour>
      <point x="192" y="642" type="curve" smooth="yes"/>
      <point x="215" y="642"/>
      <point x="229" y="657"/>
      <point x="234" y="687" type="curve"/>
      <point x="234" y="759" type="line"/>
      <point x="235" y="1135" type="line"/>
      <point x="234" y="1207" type="line"/>
      <point x="229" y="1237"/>
      <point x="215" y="1252"/>
      <point x="192" y="1252" type="curve" smooth="yes"/>
      <point x="164" y="1252"/>
      <point x="150" y="1225"/>
      <point x="150" y="1172" type="curve" smooth="yes"/>
      <point x="150" y="722" type="line" smooth="yes"/>
      <point x="150" y="669"/>
      <point x="164" y="642"/>
    </contour>
    <contour>
      <point x="192" y="-262" type="curve" smooth="yes"/>
      <point x="215" y="-262"/>
      <point x="229" y="-247"/>
      <point x="234" y="-217" type="curve"/>
      <point x="234" y="-146" type="line"/>
      <point x="235" y="239" type="line"/>
      <point x="234" y="306" type="line"/>
      <point x="229" y="333"/>
      <point x="215" y="347"/>
      <point x="192" y="347" type="curve" smooth="yes"/>
      <point x="164" y="347"/>
      <point x="150" y="320"/>
      <point x="150" y="267" type="curve" smooth="yes"/>
      <point x="150" y="-183" type="line" smooth="yes"/>
      <point x="150" y="-236"/>
      <point x="164" y="-262"/>
    </contour>
  </outline>
</glyph>
<glyph name="section" format="2">
  <advance width="1229"/>
  <unicode hex="00A7"/>
  <note>
section
</note>
  <outline>
    <contour>
      <point x="232" y="-130" type="line"/>
      <point x="638" y="-130" type="line" smooth="yes"/>
      <point x="781" y="-130"/>
      <point x="895" y="-30"/>
      <point x="895" y="113" type="curve" smooth="yes"/>
      <point x="895" y="149"/>
      <point x="884" y="185"/>
      <point x="861" y="220" type="curve"/>
      <point x="919" y="221"/>
      <point x="969" y="233"/>
      <point x="1010" y="258" type="curve" smooth="yes"/>
      <point x="1060" y="287"/>
      <point x="1085" y="329"/>
      <point x="1085" y="384" type="curve" smooth="yes"/>
      <point x="1085" y="459"/>
      <point x="1025" y="536"/>
      <point x="906" y="615" type="curve"/>
      <point x="574" y="808" type="line"/>
      <point x="455" y="882"/>
      <point x="395" y="951"/>
      <point x="395" y="1014" type="curve" smooth="yes"/>
      <point x="395" y="1111"/>
      <point x="488" y="1194"/>
      <point x="587" y="1194" type="curve" smooth="yes"/>
      <point x="937" y="1194" type="line"/>
      <point x="937" y="1038" type="line" smooth="yes"/>
      <point x="937" y="1011"/>
      <point x="947" y="998"/>
      <point x="968" y="998" type="curve" smooth="yes"/>
      <point x="987" y="998"/>
      <point x="997" y="1011"/>
      <point x="997" y="1038" type="curve" smooth="yes"/>
      <point x="997" y="1255" type="line"/>
      <point x="582" y="1255" type="line" smooth="yes"/>
      <point x="447" y="1255"/>
      <point x="335" y="1141"/>
      <point x="335" y="1006" type="curve" smooth="yes"/>
      <point x="335" y="974"/>
      <point x="346" y="941"/>
      <point x="369" y="907" type="curve"/>
      <point x="310" y="904"/>
      <point x="261" y="890"/>
      <point x="220" y="867" type="curve" smooth="yes"/>
      <point x="169" y="838"/>
      <point x="143" y="796"/>
      <point x="143" y="743" type="curve" smooth="yes"/>
      <point x="143" y="672"/>
      <point x="203" y="596"/>
      <point x="322" y="516" type="curve"/>
      <point x="656" y="317" type="line"/>
      <point x="775" y="240"/>
      <point x="835" y="170"/>
      <point x="835" y="107" type="curve" smooth="yes"/>
      <point x="835" y="55"/>
      <point x="815" y="12"/>
      <point x="774" y="-22" type="curve" smooth="yes"/>
      <point x="735" y="-53"/>
      <point x="690" y="-69"/>
      <point x="637" y="-69" type="curve" smooth="yes"/>
      <point x="293" y="-69" type="line"/>
      <point x="293" y="89" type="line" smooth="yes"/>
      <point x="293" y="116"/>
      <point x="283" y="129"/>
      <point x="262" y="129" type="curve" smooth="yes"/>
      <point x="242" y="129"/>
      <point x="232" y="116"/>
      <point x="232" y="89" type="curve" smooth="yes"/>
    </contour>
    <contour>
      <point x="814" y="275" type="line"/>
      <point x="787" y="302"/>
      <point x="717" y="348"/>
      <point x="604" y="415" type="curve" smooth="yes"/>
      <point x="472" y="493"/>
      <point x="383" y="549"/>
      <point x="336" y="583" type="curve" smooth="yes"/>
      <point x="247" y="647"/>
      <point x="203" y="699"/>
      <point x="203" y="739" type="curve" smooth="yes"/>
      <point x="203" y="786"/>
      <point x="231" y="817"/>
      <point x="286" y="831" type="curve"/>
      <point x="417" y="849" type="line"/>
      <point x="472" y="800"/>
      <point x="552" y="746"/>
      <point x="659" y="686" type="curve" smooth="yes"/>
      <point x="784" y="615"/>
      <point x="855" y="575"/>
      <point x="872" y="564" type="curve" smooth="yes"/>
      <point x="974" y="495"/>
      <point x="1025" y="435"/>
      <point x="1025" y="382" type="curve" smooth="yes"/>
      <point x="1025" y="335"/>
      <point x="995" y="306"/>
      <point x="935" y="295" type="curve" smooth="yes"/>
    </contour>
  </outline>
</glyph>
<glyph name="threesuperior" format="2">
  <advance width="800"/>
  <unicode hex="00B3"/>
  <note>
threesuperior
</note>
  <outline>
    <contour>
      <point x="387" y="514" type="curve" smooth="yes"/>
      <point x="443" y="514"/>
      <point x="492" y="531"/>
      <point x="534" y="566" type="curve" smooth="yes"/>
      <point x="579" y="603"/>
      <point x="601" y="649"/>
      <point x="601" y="705" type="curve" smooth="yes"/>
      <point x="601" y="780"/>
      <point x="561" y="835"/>
      <point x="482" y="870" type="curve"/>
      <point x="547" y="901"/>
      <point x="579" y="947"/>
      <point x="579" y="1010" type="curve" smooth="yes"/>
      <point x="579" y="1058"/>
      <point x="560" y="1097"/>
      <point x="523" y="1128" type="curve" smooth="yes"/>
      <point x="488" y="1157"/>
      <point x="446" y="1171"/>
      <point x="397" y="1171" type="curve" smooth="yes"/>
      <point x="346" y="1171"/>
      <point x="300" y="1157"/>
      <point x="260" y="1129" type="curve" smooth="yes"/>
      <point x="231" y="1108"/>
      <point x="216" y="1091"/>
      <point x="216" y="1078" type="curve" smooth="yes"/>
      <point x="216" y="1065"/>
      <point x="223" y="1059"/>
      <point x="237" y="1059" type="curve" smooth="yes"/>
      <point x="243" y="1059"/>
      <point x="250" y="1064"/>
      <point x="259" y="1073" type="curve" smooth="yes"/>
      <point x="291" y="1110"/>
      <point x="337" y="1129"/>
      <point x="397" y="1129" type="curve" smooth="yes"/>
      <point x="434" y="1129"/>
      <point x="465" y="1119"/>
      <point x="492" y="1098" type="curve" smooth="yes"/>
      <point x="521" y="1075"/>
      <point x="536" y="1046"/>
      <point x="536" y="1010" type="curve" smooth="yes"/>
      <point x="536" y="976"/>
      <point x="522" y="948"/>
      <point x="495" y="926" type="curve" smooth="yes"/>
      <point x="470" y="906"/>
      <point x="441" y="896"/>
      <point x="406" y="896" type="curve" smooth="yes"/>
      <point x="365" y="896"/>
      <point x="345" y="889"/>
      <point x="345" y="875" type="curve" smooth="yes"/>
      <point x="345" y="861"/>
      <point x="354" y="854"/>
      <point x="373" y="854" type="curve" smooth="yes"/>
      <point x="419" y="854"/>
      <point x="461" y="841"/>
      <point x="498" y="814" type="curve" smooth="yes"/>
      <point x="539" y="785"/>
      <point x="559" y="748"/>
      <point x="559" y="703" type="curve" smooth="yes"/>
      <point x="559" y="660"/>
      <point x="541" y="625"/>
      <point x="504" y="596" type="curve" smooth="yes"/>
      <point x="470" y="569"/>
      <point x="431" y="556"/>
      <point x="388" y="556" type="curve" smooth="yes"/>
      <point x="349" y="556"/>
      <point x="311" y="566"/>
      <point x="273" y="586" type="curve" smooth="yes"/>
      <point x="235" y="606"/>
      <point x="218" y="616"/>
      <point x="221" y="616" type="curve" smooth="yes"/>
      <point x="208" y="616"/>
      <point x="201" y="609"/>
      <point x="201" y="596" type="curve" smooth="yes"/>
      <point x="201" y="576"/>
      <point x="226" y="556"/>
      <point x="275" y="537" type="curve" smooth="yes"/>
      <point x="314" y="522"/>
      <point x="351" y="514"/>
    </contour>
  </outline>
</glyph>
<glyph name="onesuperior" format="2">
  <advance width="800"/>
  <unicode hex="00B9"/>
  <note>
onesuperior
</note>
  <outline>
    <contour>
      <point x="349" y="535" type="curve" smooth="yes"/>
      <point x="462" y="535" type="line" smooth="yes"/>
      <point x="481" y="535"/>
      <point x="490" y="542"/>
      <point x="490" y="556" type="curve" smooth="yes"/>
      <point x="490" y="570"/>
      <point x="481" y="577"/>
      <point x="462" y="577" type="curve" smooth="yes"/>
      <point x="426" y="577" type="line"/>
      <point x="426" y="1171" type="line"/>
      <point x="341" y="1140" type="line" smooth="yes"/>
      <point x="327" y="1135"/>
      <point x="320" y="1127"/>
      <point x="320" y="1117" type="curve" smooth="yes"/>
      <point x="320" y="1103"/>
      <point x="327" y="1096"/>
      <point x="340" y="1096" type="curve" smooth="yes"/>
      <point x="348" y="1096"/>
      <point x="355" y="1098"/>
      <point x="360" y="1101" type="curve" smooth="yes"/>
      <point x="369" y="1107"/>
      <point x="377" y="1111"/>
      <point x="384" y="1113" type="curve"/>
      <point x="384" y="577" type="line"/>
      <point x="349" y="577" type="line" smooth="yes"/>
      <point x="330" y="577"/>
      <point x="321" y="570"/>
      <point x="321" y="556" type="curve" smooth="yes"/>
      <point x="321" y="542"/>
      <point x="330" y="535"/>
    </contour>
  </outline>
</glyph>
<glyph name="Egrave" format="2">
  <advance width="1241"/>
  <unicode hex="00C8"/>
  <note>
Egrave
</note>
  <outline>
    <contour>
      <point x="206" y="-1" type="curve"/>
      <point x="1091" y="0" type="line"/>
      <point x="1091" y="155" type="line" smooth="yes"/>
      <point x="1091" y="192"/>
      <point x="1077" y="211"/>
      <point x="1049" y="211" type="curve" smooth="yes"/>
      <point x="1020" y="211"/>
      <point x="1005" y="192"/>
      <point x="1006" y="155" type="curve" smooth="yes"/>
      <point x="1007" y="84" type="line"/>
      <point x="361" y="84" type="line"/>
      <point x="361" y="565" type="line"/>
      <point x="662" y="565" type="line"/>
      <point x="662" y="494" type="line" smooth="yes"/>
      <point x="662" y="457"/>
      <point x="676" y="438"/>
      <point x="705" y="438" type="curve" smooth="yes"/>
      <point x="733" y="438"/>
      <point x="747" y="457"/>
      <point x="747" y="494" type="curve" smooth="yes"/>
      <point x="747" y="720" type="line" smooth="yes"/>
      <point x="747" y="757"/>
      <point x="733" y="776"/>
      <point x="705" y="776" type="curve" smooth="yes"/>
      <point x="676" y="776"/>
      <point x="662" y="757"/>
      <point x="662" y="720" type="curve" smooth="yes"/>
      <point x="662" y="649" type="line"/>
      <point x="361" y="649" type="line"/>
      <point x="361" y="1086" type="line"/>
      <point x="963" y="1086" type="line"/>
      <point x="962" y="1015" type="line" smooth="yes"/>
      <point x="961" y="978"/>
      <point x="976" y="959"/>
      <point x="1005" y="959" type="curve" smooth="yes"/>
      <point x="1033" y="959"/>
      <point x="1047" y="978"/>
      <point x="1047" y="1015" type="curve" smooth="yes"/>
      <point x="1047" y="1170" type="line"/>
      <point x="206" y="1171" type="line" smooth="yes"/>
      <point x="169" y="1171"/>
      <point x="150" y="1157"/>
      <point x="150" y="1129" type="curve" smooth="yes"/>
      <point x="150" y="1100"/>
      <point x="169" y="1086"/>
      <point x="206" y="1086" type="curve" smooth="yes"/>
      <point x="277" y="1086" type="line"/>
      <point x="277" y="84" type="line"/>
      <point x="206" y="84" type="line" smooth="yes"/>
      <point x="169" y="84"/>
      <point x="150" y="70"/>
      <point x="150" y="41" type="curve" smooth="yes"/>
      <point x="150" y="29"/>
      <point x="154" y="19"/>
      <point x="163" y="11" type="curve"/>
      <point x="180" y="4"/>
      <point x="195" y="0"/>
    </contour>
    <contour>
      <point x="628" y="1222" type="curve" smooth="yes"/>
      <point x="657" y="1222"/>
      <point x="671" y="1236"/>
      <point x="671" y="1265" type="curve" smooth="yes"/>
      <point x="671" y="1270"/>
      <point x="670" y="1275"/>
      <point x="668" y="1281" type="curve"/>
      <point x="660" y="1294"/>
      <point x="614" y="1337"/>
      <point x="531" y="1410" type="curve" smooth="yes"/>
      <point x="442" y="1490"/>
      <point x="389" y="1530"/>
      <point x="372" y="1530" type="curve" smooth="yes"/>
      <point x="343" y="1530"/>
      <point x="329" y="1516"/>
      <point x="329" y="1487" type="curve" smooth="yes"/>
      <point x="329" y="1474"/>
      <point x="337" y="1461"/>
      <point x="354" y="1446" type="curve" smooth="yes"/>
      <point x="590" y="1242" type="line" smooth="yes"/>
      <point x="605" y="1229"/>
      <point x="618" y="1222"/>
    </contour>
  </outline>
</glyph>
<glyph name="Iacute" format="2">
  <advance width="638"/>
  <unicode hex="00CD"/>
  <note>
Iacute
</note>
  <outline>
    <contour>
      <point x="206" y="-1" type="curve" smooth="yes"/>
      <point x="432" y="-1" type="line" smooth="yes"/>
      <point x="469" y="-1"/>
      <point x="488" y="13"/>
      <point x="488" y="41" type="curve" smooth="yes"/>
      <point x="488" y="70"/>
      <point x="469" y="84"/>
      <point x="432" y="84" type="curve" smooth="yes"/>
      <point x="361" y="84" type="line"/>
      <point x="361" y="1086" type="line"/>
      <point x="432" y="1086" type="line" smooth="yes"/>
      <point x="469" y="1086"/>
      <point x="488" y="1100"/>
      <point x="488" y="1129" type="curve" smooth="yes"/>
      <point x="488" y="1157"/>
      <point x="469" y="1171"/>
      <point x="432" y="1171" type="curve" smooth="yes"/>
      <point x="206" y="1171" type="line" smooth="yes"/>
      <point x="169" y="1171"/>
      <point x="150" y="1157"/>
      <point x="150" y="1129" type="curve" smooth="yes"/>
      <point x="150" y="1100"/>
      <point x="169" y="1086"/>
      <point x="206" y="1086" type="curve" smooth="yes"/>
      <point x="277" y="1086" type="line"/>
      <point x="277" y="84" type="line"/>
      <point x="206" y="84" type="line" smooth="yes"/>
      <point x="169" y="84"/>
      <point x="150" y="70"/>
      <point x="150" y="41" type="curve" smooth="yes"/>
      <point x="150" y="13"/>
      <point x="169" y="-1"/>
    </contour>
    <contour>
      <point x="212" y="1222" type="curve" smooth="yes"/>
      <point x="222" y="1222"/>
      <point x="235" y="1229"/>
      <point x="250" y="1242" type="curve" smooth="yes"/>
      <point x="486" y="1446" type="line" smooth="yes"/>
      <point x="503" y="1461"/>
      <point x="511" y="1474"/>
      <point x="511" y="1487" type="curve" smooth="yes"/>
      <point x="511" y="1516"/>
      <point x="497" y="1530"/>
      <point x="468" y="1530" type="curve" smooth="yes"/>
      <point x="451" y="1530"/>
      <point x="398" y="1490"/>
      <point x="309" y="1410" type="curve" smooth="yes"/>
      <point x="226" y="1337"/>
      <point x="180" y="1294"/>
      <point x="172" y="1281" type="curve"/>
      <point x="170" y="1275"/>
      <point x="169" y="1270"/>
      <point x="169" y="1265" type="curve" smooth="yes"/>
      <point x="169" y="1236"/>
      <point x="183" y="1222"/>
    </contour>
  </outline>
</glyph>
<glyph name="Oacute" format="2">
  <advance width="1324"/>
  <unicode hex="00D3"/>
  <note>
Oacute
</note>
  <outline>
    <contour>
      <point x="662" y="-31" type="curve" smooth="yes"/>
      <point x="817" y="-31"/>
      <point x="943" y="35"/>
      <point x="1041" y="166" type="curve" smooth="yes"/>
      <point x="1130" y="285"/>
      <point x="1174" y="424"/>
      <point x="1174" y="584" type="curve" smooth="yes"/>
      <point x="1174" y="743"/>
      <point x="1129" y="883"/>
      <point x="1040" y="1002" type="curve" smooth="yes"/>
      <point x="943" y="1133"/>
      <point x="817" y="1199"/>
      <point x="662" y="1199" type="curve" smooth="yes"/>
      <point x="507" y="1199"/>
      <point x="381" y="1133"/>
      <point x="283" y="1002" type="curve" smooth="yes"/>
      <point x="194" y="883"/>
      <point x="150" y="743"/>
      <point x="150" y="584" type="curve" smooth="yes"/>
      <point x="150" y="425"/>
      <point x="194" y="285"/>
      <point x="283" y="166" type="curve" smooth="yes"/>
      <point x="381" y="35"/>
      <point x="507" y="-31"/>
    </contour>
    <contour>
      <point x="662" y="53" type="curve" smooth="yes"/>
      <point x="533" y="53"/>
      <point x="427" y="111"/>
      <point x="345" y="227" type="curve" smooth="yes"/>
      <point x="271" y="331"/>
      <point x="234" y="450"/>
      <point x="234" y="584" type="curve" smooth="yes"/>
      <point x="234" y="719"/>
      <point x="271" y="838"/>
      <point x="345" y="941" type="curve" smooth="yes"/>
      <point x="427" y="1057"/>
      <point x="533" y="1115"/>
      <point x="662" y="1115" type="curve" smooth="yes"/>
      <point x="791" y="1115"/>
      <point x="897" y="1057"/>
      <point x="979" y="942" type="curve" smooth="yes"/>
      <point x="1052" y="838"/>
      <point x="1089" y="719"/>
      <point x="1089" y="584" type="curve" smooth="yes"/>
      <point x="1089" y="449"/>
      <point x="1052" y="329"/>
      <point x="979" y="226" type="curve" smooth="yes"/>
      <point x="897" y="111"/>
      <point x="791" y="53"/>
    </contour>
    <contour>
      <point x="662" y="1252" type="curve" smooth="yes"/>
      <point x="672" y="1252"/>
      <point x="685" y="1259"/>
      <point x="700" y="1272" type="curve" smooth="yes"/>
      <point x="936" y="1476" type="line" smooth="yes"/>
      <point x="953" y="1491"/>
      <point x="961" y="1504"/>
      <point x="961" y="1517" type="curve" smooth="yes"/>
      <point x="961" y="1546"/>
      <point x="947" y="1560"/>
      <point x="918" y="1560" type="curve" smooth="yes"/>
      <point x="901" y="1560"/>
      <point x="848" y="1520"/>
      <point x="759" y="1440" type="curve" smooth="yes"/>
      <point x="676" y="1367"/>
      <point x="630" y="1324"/>
      <point x="622" y="1311" type="curve"/>
      <point x="620" y="1305"/>
      <point x="619" y="1300"/>
      <point x="619" y="1295" type="curve" smooth="yes"/>
      <point x="619" y="1266"/>
      <point x="633" y="1252"/>
    </contour>
  </outline>
</glyph>
<glyph name="Odieresis" format="2">
  <advance width="1324"/>
  <unicode hex="00D6"/>
  <note>
Odieresis
</note>
  <outline>
    <contour>
      <point x="662" y="-31" type="curve" smooth="yes"/>
      <point x="817" y="-31"/>
      <point x="943" y="35"/>
      <point x="1041" y="166" type="curve" smooth="yes"/>
      <point x="1130" y="285"/>
      <point x="1174" y="424"/>
      <point x="1174" y="584" type="curve" smooth="yes"/>
      <point x="1174" y="743"/>
      <point x="1129" y="883"/>
      <point x="1040" y="1002" type="curve" smooth="yes"/>
      <point x="943" y="1133"/>
      <point x="817" y="1199"/>
      <point x="662" y="1199" type="curve" smooth="yes"/>
      <point x="507" y="1199"/>
      <point x="381" y="1133"/>
      <point x="283" y="1002" type="curve" smooth="yes"/>
      <point x="194" y="883"/>
      <point x="150" y="743"/>
      <point x="150" y="584" type="curve" smooth="yes"/>
      <point x="150" y="425"/>
      <point x="194" y="285"/>
      <point x="283" y="166" type="curve" smooth="yes"/>
      <point x="381" y="35"/>
      <point x="507" y="-31"/>
    </contour>
    <contour>
      <point x="662" y="53" type="curve" smooth="yes"/>
      <point x="533" y="53"/>
      <point x="427" y="111"/>
      <point x="345" y="227" type="curve" smooth="yes"/>
      <point x="271" y="331"/>
      <point x="234" y="450"/>
      <point x="234" y="584" type="curve" smooth="yes"/>
      <point x="234" y="719"/>
      <point x="271" y="838"/>
      <point x="345" y="941" type="curve" smooth="yes"/>
      <point x="427" y="1057"/>
      <point x="533" y="1115"/>
      <point x="662" y="1115" type="curve" smooth="yes"/>
      <point x="791" y="1115"/>
      <point x="897" y="1057"/>
      <point x="979" y="942" type="curve" smooth="yes"/>
      <point x="1052" y="838"/>
      <point x="1089" y="719"/>
      <point x="1089" y="584" type="curve" smooth="yes"/>
      <point x="1089" y="449"/>
      <point x="1052" y="329"/>
      <point x="979" y="226" type="curve" smooth="yes"/>
      <point x="897" y="111"/>
      <point x="791" y="53"/>
    </contour>
    <contour>
      <point x="505" y="1240" type="curve" smooth="yes"/>
      <point x="548" y="1240"/>
      <point x="582" y="1274"/>
      <point x="582" y="1317" type="curve" smooth="yes"/>
      <point x="582" y="1358"/>
      <point x="548" y="1394"/>
      <point x="505" y="1394" type="curve" smooth="yes"/>
      <point x="462" y="1394"/>
      <point x="428" y="1360"/>
      <point x="428" y="1317" type="curve" smooth="yes"/>
      <point x="428" y="1274"/>
      <point x="462" y="1240"/>
    </contour>
    <contour>
      <point x="805" y="1240" type="curve" smooth="yes"/>
      <point x="848" y="1240"/>
      <point x="882" y="1274"/>
      <point x="882" y="1317" type="curve" smooth="yes"/>
      <point x="882" y="1358"/>
      <point x="848" y="1394"/>
      <point x="805" y="1394" type="curve" smooth="yes"/>
      <point x="762" y="1394"/>
      <point x="728" y="1360"/>
      <point x="728" y="1317" type="curve" smooth="yes"/>
      <point x="728" y="1274"/>
      <point x="762" y="1240"/>
    </contour>
  </outline>
</glyph>
<glyph name="multiply" format="2">
  <advance width="985"/>
  <unicode hex="00D7"/>
  <note>
multiply
</note>
  <outline>
    <contour>
      <point x="797" y="239" type="curve" smooth="yes"/>
      <point x="826" y="239"/>
      <point x="840" y="253"/>
      <point x="840" y="282" type="curve" smooth="yes"/>
      <point x="840" y="294"/>
      <point x="833" y="307"/>
      <point x="818" y="322" type="curve" smooth="yes"/>
      <point x="555" y="585" type="line"/>
      <point x="816" y="846" type="line" smooth="yes"/>
      <point x="831" y="861"/>
      <point x="838" y="874"/>
      <point x="838" y="885" type="curve" smooth="yes"/>
      <point x="838" y="914"/>
      <point x="824" y="928"/>
      <point x="796" y="928" type="curve" smooth="yes"/>
      <point x="784" y="928"/>
      <point x="771" y="921"/>
      <point x="756" y="906" type="curve" smooth="yes"/>
      <point x="495" y="644" type="line"/>
      <point x="232" y="907" type="line" smooth="yes"/>
      <point x="217" y="922"/>
      <point x="204" y="930"/>
      <point x="193" y="930" type="curve" smooth="yes"/>
      <point x="164" y="930"/>
      <point x="150" y="916"/>
      <point x="150" y="887" type="curve" smooth="yes"/>
      <point x="150" y="876"/>
      <point x="157" y="863"/>
      <point x="172" y="848" type="curve" smooth="yes"/>
      <point x="435" y="585" type="line"/>
      <point x="173" y="322" type="line" smooth="yes"/>
      <point x="158" y="307"/>
      <point x="150" y="294"/>
      <point x="150" y="283" type="curve" smooth="yes"/>
      <point x="150" y="254"/>
      <point x="164" y="240"/>
      <point x="193" y="240" type="curve" smooth="yes"/>
      <point x="204" y="240"/>
      <point x="217" y="247"/>
      <point x="232" y="262" type="curve" smooth="yes"/>
      <point x="495" y="525" type="line"/>
      <point x="758" y="262" type="line" smooth="yes"/>
      <point x="773" y="247"/>
      <point x="786" y="239"/>
    </contour>
  </outline>
</glyph>
<glyph name="Yacute" format="2">
  <advance width="1371"/>
  <unicode hex="00DD"/>
  <note>
Yacute
</note>
  <outline>
    <contour>
      <point x="575" y="-2" type="curve" smooth="yes"/>
      <point x="802" y="-2" type="line" smooth="yes"/>
      <point x="839" y="-2"/>
      <point x="858" y="12"/>
      <point x="858" y="40" type="curve" smooth="yes"/>
      <point x="858" y="69"/>
      <point x="839" y="83"/>
      <point x="802" y="83" type="curve" smooth="yes"/>
      <point x="731" y="83" type="line"/>
      <point x="731" y="527" type="line"/>
      <point x="1094" y="1085" type="line"/>
      <point x="1165" y="1085" type="line" smooth="yes"/>
      <point x="1202" y="1085"/>
      <point x="1221" y="1099"/>
      <point x="1221" y="1128" type="curve" smooth="yes"/>
      <point x="1221" y="1156"/>
      <point x="1202" y="1170"/>
      <point x="1165" y="1170" type="curve" smooth="yes"/>
      <point x="919" y="1170" type="line" smooth="yes"/>
      <point x="882" y="1170"/>
      <point x="863" y="1156"/>
      <point x="863" y="1128" type="curve" smooth="yes"/>
      <point x="863" y="1099"/>
      <point x="882" y="1085"/>
      <point x="919" y="1085" type="curve" smooth="yes"/>
      <point x="990" y="1085" type="line"/>
      <point x="689" y="612" type="line"/>
      <point x="381" y="1085" type="line"/>
      <point x="452" y="1085" type="line" smooth="yes"/>
      <point x="489" y="1085"/>
      <point x="508" y="1099"/>
      <point x="508" y="1128" type="curve" smooth="yes"/>
      <point x="508" y="1156"/>
      <point x="489" y="1170"/>
      <point x="452" y="1170" type="curve" smooth="yes"/>
      <point x="206" y="1170" type="line" smooth="yes"/>
      <point x="169" y="1170"/>
      <point x="150" y="1156"/>
      <point x="150" y="1128" type="curve" smooth="yes"/>
      <point x="150" y="1099"/>
      <point x="169" y="1085"/>
      <point x="206" y="1085" type="curve" smooth="yes"/>
      <point x="277" y="1085" type="line"/>
      <point x="646" y="527" type="line"/>
      <point x="646" y="83" type="line"/>
      <point x="575" y="83" type="line" smooth="yes"/>
      <point x="538" y="83"/>
      <point x="519" y="69"/>
      <point x="519" y="40" type="curve" smooth="yes"/>
      <point x="519" y="12"/>
      <point x="538" y="-2"/>
    </contour>
    <contour>
      <point x="662" y="1252" type="curve" smooth="yes"/>
      <point x="672" y="1252"/>
      <point x="685" y="1259"/>
      <point x="700" y="1272" type="curve" smooth="yes"/>
      <point x="936" y="1476" type="line" smooth="yes"/>
      <point x="953" y="1491"/>
      <point x="961" y="1504"/>
      <point x="961" y="1517" type="curve" smooth="yes"/>
      <point x="961" y="1546"/>
      <point x="947" y="1560"/>
      <point x="918" y="1560" type="curve" smooth="yes"/>
      <point x="901" y="1560"/>
      <point x="848" y="1520"/>
      <point x="759" y="1440" type="curve" smooth="yes"/>
      <point x="676" y="1367"/>
      <point x="630" y="1324"/>
      <point x="622" y="1311" type="curve"/>
      <point x="620" y="1305"/>
      <point x="619" y="1300"/>
      <point x="619" y="1295" type="curve" smooth="yes"/>
      <point x="619" y="1266"/>
      <point x="633" y="1252"/>
    </contour>
  </outline>
</glyph>
<glyph name="otilde" format="2">
  <advance width="1146"/>
  <unicode hex="00F5"/>
  <note>
otilde
</note>
  <outline>
    <contour>
      <point x="574" y="-32" type="curve" smooth="yes"/>
      <point x="809" y="-32"/>
      <point x="997" y="154"/>
      <point x="997" y="387" type="curve" smooth="yes"/>
      <point x="997" y="622"/>
      <point x="809" y="807"/>
      <point x="574" y="807" type="curve" smooth="yes"/>
      <point x="339" y="807"/>
      <point x="150" y="622"/>
      <point x="150" y="387" type="curve" smooth="yes"/>
      <point x="150" y="152"/>
      <point x="339" y="-32"/>
    </contour>
    <contour>
      <point x="573" y="44" type="curve" smooth="yes"/>
      <point x="382" y="44"/>
      <point x="226" y="196"/>
      <point x="226" y="387" type="curve" smooth="yes"/>
      <point x="226" y="579"/>
      <point x="381" y="730"/>
      <point x="573" y="730" type="curve" smooth="yes"/>
      <point x="766" y="730"/>
      <point x="921" y="579"/>
      <point x="921" y="387" type="curve" smooth="yes"/>
      <point x="921" y="195"/>
      <point x="765" y="44"/>
    </contour>
    <contour>
      <point x="674" y="1007" type="curve" smooth="yes"/>
      <point x="704" y="1007"/>
      <point x="742" y="1021"/>
      <point x="787" y="1048" type="curve" smooth="yes"/>
      <point x="836" y="1078"/>
      <point x="861" y="1107"/>
      <point x="861" y="1134" type="curve" smooth="yes"/>
      <point x="861" y="1160"/>
      <point x="847" y="1173"/>
      <point x="819" y="1173" type="curve" smooth="yes"/>
      <point x="810" y="1173"/>
      <point x="788" y="1160"/>
      <point x="755" y="1133" type="curve" smooth="yes"/>
      <point x="721" y="1106"/>
      <point x="694" y="1092"/>
      <point x="674" y="1092" type="curve" smooth="yes"/>
      <point x="653" y="1092"/>
      <point x="613" y="1112"/>
      <point x="554" y="1153" type="curve" smooth="yes"/>
      <point x="495" y="1193"/>
      <point x="447" y="1213"/>
      <point x="410" y="1213" type="curve" smooth="yes"/>
      <point x="381" y="1213"/>
      <point x="344" y="1199"/>
      <point x="297" y="1171" type="curve" smooth="yes"/>
      <point x="248" y="1141"/>
      <point x="223" y="1113"/>
      <point x="223" y="1088" type="curve" smooth="yes"/>
      <point x="223" y="1061"/>
      <point x="237" y="1048"/>
      <point x="264" y="1048" type="curve" smooth="yes"/>
      <point x="275" y="1048"/>
      <point x="296" y="1062"/>
      <point x="329" y="1089" type="curve" smooth="yes"/>
      <point x="361" y="1116"/>
      <point x="388" y="1129"/>
      <point x="411" y="1129" type="curve" smooth="yes"/>
      <point x="429" y="1129"/>
      <point x="468" y="1109"/>
      <point x="529" y="1068" type="curve" smooth="yes"/>
      <point x="589" y="1027"/>
      <point x="637" y="1007"/>
    </contour>
  </outline>
</glyph>
<glyph name="uacute" format="2">
  <advance width="1273"/>
  <unicode hex="00FA"/>
  <note>
uacute
</note>
  <outline>
    <contour>
      <point x="543" y="-33" type="curve" smooth="yes"/>
      <point x="676" y="-33"/>
      <point x="800" y="19"/>
      <point x="915" y="123" type="curve"/>
      <point x="915" y="0" type="line"/>
      <point x="1070" y="0" type="line" smooth="yes"/>
      <point x="1107" y="0"/>
      <point x="1126" y="14"/>
      <point x="1126" y="42" type="curve" smooth="yes"/>
      <point x="1126" y="67"/>
      <point x="1109" y="81"/>
      <point x="1075" y="85" type="curve"/>
      <point x="999" y="84" type="line"/>
      <point x="999" y="762" type="line"/>
      <point x="844" y="762" type="line" smooth="yes"/>
      <point x="807" y="762"/>
      <point x="788" y="748"/>
      <point x="788" y="720" type="curve" smooth="yes"/>
      <point x="788" y="695"/>
      <point x="805" y="680"/>
      <point x="838" y="676" type="curve"/>
      <point x="915" y="677" type="line"/>
      <point x="915" y="239" type="line"/>
      <point x="801" y="114"/>
      <point x="676" y="51"/>
      <point x="539" y="51" type="curve" smooth="yes"/>
      <point x="432" y="51"/>
      <point x="357" y="131"/>
      <point x="357" y="239" type="curve" smooth="yes"/>
      <point x="357" y="762" type="line"/>
      <point x="202" y="762" type="line" smooth="yes"/>
      <point x="165" y="762"/>
      <point x="146" y="748"/>
      <point x="146" y="720" type="curve" smooth="yes"/>
      <point x="146" y="695"/>
      <point x="163" y="680"/>
      <point x="196" y="676" type="curve"/>
      <point x="273" y="677" type="line"/>
      <point x="273" y="239" type="line" smooth="yes"/>
      <point x="273" y="78"/>
      <point x="382" y="-33"/>
    </contour>
    <contour>
      <point x="576" y="962" type="curve" smooth="yes"/>
      <point x="586" y="962"/>
      <point x="599" y="969"/>
      <point x="614" y="982" type="curve" smooth="yes"/>
      <point x="850" y="1186" type="line" smooth="yes"/>
      <point x="867" y="1201"/>
      <point x="875" y="1214"/>
      <point x="875" y="1227" type="curve" smooth="yes"/>
      <point x="875" y="1256"/>
      <point x="861" y="1270"/>
      <point x="832" y="1270" type="curve" smooth="yes"/>
      <point x="815" y="1270"/>
      <point x="762" y="1230"/>
      <point x="673" y="1150" type="curve" smooth="yes"/>
      <point x="590" y="1077"/>
      <point x="544" y="1034"/>
      <point x="536" y="1021" type="curve"/>
      <point x="534" y="1015"/>
      <point x="533" y="1010"/>
      <point x="533" y="1005" type="curve" smooth="yes"/>
      <point x="533" y="976"/>
      <point x="547" y="962"/>
    </contour>
  </outline>
</glyph>
<glyph name="emacron" format="2">
  <advance width="1150"/>
  <unicode hex="0113"/>
  <note>
emacron
</note>
  <outline>
    <contour>
      <point x="606" y="-29" type="curve" smooth="yes"/>
      <point x="683" y="-29"/>
      <point x="759" y="-16"/>
      <point x="833" y="10" type="curve" smooth="yes"/>
      <point x="945" y="50"/>
      <point x="1001" y="88"/>
      <point x="1001" y="125" type="curve" smooth="yes"/>
      <point x="1001" y="150"/>
      <point x="989" y="163"/>
      <point x="965" y="163" type="curve" smooth="yes"/>
      <point x="958" y="163"/>
      <point x="948" y="158"/>
      <point x="935" y="149" type="curve" smooth="yes"/>
      <point x="840" y="81"/>
      <point x="731" y="47"/>
      <point x="606" y="47" type="curve" smooth="yes"/>
      <point x="403" y="47"/>
      <point x="254" y="174"/>
      <point x="227" y="374" type="curve"/>
      <point x="999" y="374" type="line"/>
      <point x="1002" y="627"/>
      <point x="828" y="810"/>
      <point x="575" y="810" type="curve" smooth="yes"/>
      <point x="459" y="810"/>
      <point x="360" y="772"/>
      <point x="277" y="697" type="curve" smooth="yes"/>
      <point x="192" y="620"/>
      <point x="150" y="523"/>
      <point x="150" y="408" type="curve" smooth="yes"/>
      <point x="150" y="156"/>
      <point x="353" y="-29"/>
    </contour>
    <contour>
      <point x="228" y="450" type="line"/>
      <point x="259" y="622"/>
      <point x="399" y="733"/>
      <point x="575" y="733" type="curve" smooth="yes"/>
      <point x="750" y="733"/>
      <point x="892" y="621"/>
      <point x="923" y="450" type="curve"/>
    </contour>
    <contour>
      <point x="329" y="1009" type="curve" smooth="yes"/>
      <point x="807" y="1009" type="line" smooth="yes"/>
      <point x="842" y="1009"/>
      <point x="859" y="1023"/>
      <point x="859" y="1051" type="curve" smooth="yes"/>
      <point x="859" y="1080"/>
      <point x="842" y="1094"/>
      <point x="807" y="1094" type="curve" smooth="yes"/>
      <point x="329" y="1094" type="line" smooth="yes"/>
      <point x="294" y="1094"/>
      <point x="276" y="1080"/>
      <point x="276" y="1052" type="curve" smooth="yes"/>
      <point x="276" y="1023"/>
      <point x="294" y="1009"/>
    </contour>
  </outline>
</glyph>
<glyph name="Imacron" format="2">
  <advance width="638"/>
  <unicode hex="012A"/>
  <note>
Imacron
</note>
  <outline>
    <contour>
      <point x="206" y="-1" type="curve" smooth="yes"/>
      <point x="432" y="-1" type="line" smooth="yes"/>
      <point x="469" y="-1"/>
      <point x="488" y="13"/>
      <point x="488" y="41" type="curve" smooth="yes"/>
      <point x="488" y="70"/>
      <point x="469" y="84"/>
      <point x="432" y="84" type="curve" smooth="yes"/>
      <point x="361" y="84" type="line"/>
      <point x="361" y="1086" type="line"/>
      <point x="432" y="1086" type="line" smooth="yes"/>
      <point x="469" y="1086"/>
      <point x="488" y="1100"/>
      <point x="488" y="1129" type="curve" smooth="yes"/>
      <point x="488" y="1157"/>
      <point x="469" y="1171"/>
      <point x="432" y="1171" type="curve" smooth="yes"/>
      <point x="206" y="1171" type="line" smooth="yes"/>
      <point x="169" y="1171"/>
      <point x="150" y="1157"/>
      <point x="150" y="1129" type="curve" smooth="yes"/>
      <point x="150" y="1100"/>
      <point x="169" y="1086"/>
      <point x="206" y="1086" type="curve" smooth="yes"/>
      <point x="277" y="1086" type="line"/>
      <point x="277" y="84" type="line"/>
      <point x="206" y="84" type="line" smooth="yes"/>
      <point x="169" y="84"/>
      <point x="150" y="70"/>
      <point x="150" y="41" type="curve" smooth="yes"/>
      <point x="150" y="13"/>
      <point x="169" y="-1"/>
    </contour>
    <contour>
      <point x="85" y="1274" type="curve" smooth="yes"/>
      <point x="563" y="1274" type="line" smooth="yes"/>
      <point x="598" y="1274"/>
      <point x="616" y="1288"/>
      <point x="616" y="1316" type="curve" smooth="yes"/>
      <point x="616" y="1345"/>
      <point x="598" y="1359"/>
      <point x="563" y="1359" type="curve" smooth="yes"/>
      <point x="85" y="1359" type="line" smooth="yes"/>
      <point x="50" y="1359"/>
      <point x="33" y="1345"/>
      <point x="33" y="1317" type="curve" smooth="yes"/>
      <point x="33" y="1288"/>
      <point x="50" y="1274"/>
    </contour>
  </outline>
</glyph>
<glyph name="U0308" format="2">
  <advance width="0"/>
  <unicode hex="0308"/>
  <note>
U0308
</note>
  <anchor x="225" y="45" name="_class0"/>
  <outline>
    <contour>
      <point x="111" y="0" type="curve" smooth="yes"/>
      <point x="171" y="0"/>
      <point x="220" y="48"/>
      <point x="220" y="108" type="curve" smooth="yes"/>
      <point x="220" y="168"/>
      <point x="171" y="217"/>
      <point x="111" y="217" type="curve" smooth="yes"/>
      <point x="51" y="217"/>
      <point x="3" y="168"/>
      <point x="3" y="108" type="curve" smooth="yes"/>
      <point x="3" y="48"/>
      <point x="51" y="0"/>
    </contour>
    <contour>
      <point x="402" y="0" type="curve" smooth="yes"/>
      <point x="462" y="0"/>
      <point x="510" y="48"/>
      <point x="510" y="108" type="curve" smooth="yes"/>
      <point x="510" y="168"/>
      <point x="462" y="217"/>
      <point x="402" y="217" type="curve" smooth="yes"/>
      <point x="342" y="217"/>
      <point x="294" y="168"/>
      <point x="294" y="108" type="curve" smooth="yes"/>
      <point x="294" y="48"/>
      <point x="342" y="0"/>
    </contour>
  </outline>
</glyph>
<glyph name="U030a" format="2">
  <advance width="0"/>
  <unicode hex="030A"/>
  <note>
U030a
</note>
  <anchor x="135" y="15" name="_class1"/>
  <outline>
    <contour>
      <point x="134" y="0" type="curve" smooth="yes"/>
      <point x="209" y="0"/>
      <point x="270" y="59"/>
      <point x="270" y="134" type="curve" smooth="yes"/>
      <point x="270" y="207"/>
      <point x="209" y="267"/>
      <point x="134" y="267" type="curve" smooth="yes"/>
      <point x="59" y="267"/>
      <point x="-2" y="207"/>
      <point x="-2" y="134" type="curve" smooth="yes"/>
      <point x="-2" y="59"/>
      <point x="59" y="0"/>
    </contour>
    <contour>
      <point x="134" y="45" type="curve" smooth="yes"/>
      <point x="85" y="45"/>
      <point x="43" y="85"/>
      <point x="43" y="134" type="curve" smooth="yes"/>
      <point x="43" y="183"/>
      <point x="85" y="222"/>
      <point x="134" y="222" type="curve" smooth="yes"/>
      <point x="183" y="222"/>
      <point x="225" y="183"/>
      <point x="225" y="134" type="curve" smooth="yes"/>
      <point x="225" y="83"/>
      <point x="183" y="45"/>
    </contour>
  </outline>
</glyph>
<glyph name="U0325" format="2">
  <advance width="0"/>
  <unicode hex="0325"/>
  <note>
U0325
</note>
  <anchor x="120" y="-15" name="_class3"/>
  <outline>
    <contour>
      <point x="134" y="-267" type="curve" smooth="yes"/>
      <point x="209" y="-267"/>
      <point x="270" y="-207"/>
      <point x="270" y="-134" type="curve" smooth="yes"/>
      <point x="270" y="-59"/>
      <point x="209" y="0"/>
      <point x="134" y="0" type="curve" smooth="yes"/>
      <point x="59" y="0"/>
      <point x="-2" y="-59"/>
      <point x="-2" y="-134" type="curve" smooth="yes"/>
      <point x="-2" y="-207"/>
      <point x="59" y="-267"/>
    </contour>
    <contour>
      <point x="134" y="-222" type="curve" smooth="yes"/>
      <point x="85" y="-222"/>
      <point x="43" y="-182"/>
      <point x="43" y="-134" type="curve" smooth="yes"/>
      <point x="43" y="-83"/>
      <point x="85" y="-45"/>
      <point x="134" y="-45" type="curve" smooth="yes"/>
      <point x="183" y="-45"/>
      <point x="225" y="-83"/>
      <point x="225" y="-134" type="curve" smooth="yes"/>
      <point x="225" y="-183"/>
      <point x="183" y="-222"/>
    </contour>
  </outline>
</glyph>
<glyph name="U0331" format="2">
  <advance width="0"/>
  <unicode hex="0331"/>
  <note>
U0331
</note>
  <anchor x="240" y="0" name="_class2"/>
  <outline>
    <contour>
      <point x="54" y="-85" type="curve" smooth="yes"/>
      <point x="545" y="-85" type="line" smooth="yes"/>
      <point x="581" y="-85"/>
      <point x="599" y="-71"/>
      <point x="599" y="-43" type="curve" smooth="yes"/>
      <point x="599" y="-14"/>
      <point x="580" y="0"/>
      <point x="543" y="0" type="curve" smooth="yes"/>
      <point x="57" y="0" type="line" smooth="yes"/>
      <point x="20" y="0"/>
      <point x="1" y="-14"/>
      <point x="1" y="-43" type="curve" smooth="yes"/>
      <point x="1" y="-71"/>
      <point x="19" y="-85"/>
    </contour>
  </outline>
</glyph>
<glyph name="U0621" format="2">
  <advance width="569"/>
  <unicode hex="0621"/>
  <note>
U0621
</note>
  <anchor x="135" y="405" name="class0"/>
  <anchor x="120" y="-120" name="class0_"/>
  <anchor x="135" y="405" name="class1"/>
  <anchor x="120" y="-180" name="class2"/>
  <anchor x="135" y="-195" name="class3"/>
  <outline>
    <contour>
      <point x="154" y="-26" type="line"/>
      <point x="511" y="144" type="line" smooth="yes"/>
      <point x="538" y="157"/>
      <point x="557" y="187"/>
      <point x="570" y="233" type="curve"/>
      <point x="511" y="210"/>
      <point x="463" y="199"/>
      <point x="428" y="199" type="curve" smooth="yes"/>
      <point x="390" y="199"/>
      <point x="348" y="207"/>
      <point x="303" y="222" type="curve" smooth="yes"/>
      <point x="246" y="241"/>
      <point x="218" y="265"/>
      <point x="218" y="294" type="curve" smooth="yes"/>
      <point x="218" y="347"/>
      <point x="267" y="393"/>
      <point x="320" y="393" type="curve" smooth="yes"/>
      <point x="355" y="393"/>
      <point x="385" y="373"/>
      <point x="410" y="333" type="curve"/>
      <point x="437" y="373"/>
      <point x="450" y="404"/>
      <point x="450" y="425" type="curve" smooth="yes"/>
      <point x="450" y="472"/>
      <point x="418" y="508"/>
      <point x="373" y="508" type="curve" smooth="yes"/>
      <point x="328" y="508"/>
      <point x="278" y="474"/>
      <point x="223" y="406" type="curve" smooth="yes"/>
      <point x="170" y="341"/>
      <point x="143" y="285"/>
      <point x="143" y="238" type="curve" smooth="yes"/>
      <point x="143" y="181"/>
      <point x="203" y="140"/>
      <point x="322" y="116" type="curve"/>
      <point x="210" y="71"/>
      <point x="154" y="30"/>
      <point x="154" y="-9" type="curve" smooth="yes"/>
    </contour>
  </outline>
</glyph>
<glyph name="U064f" format="2">
  <advance width="0"/>
  <unicode hex="064F"/>
  <note>
U064f
</note>
  <anchor x="165" y="0" name="_class0"/>
  <outline>
    <contour>
      <point x="68" y="0" type="curve" smooth="yes"/>
      <point x="114" y="0"/>
      <point x="173" y="43"/>
      <point x="245" y="130" type="curve"/>
      <point x="318" y="83" type="line"/>
      <point x="325" y="172" type="line"/>
      <point x="290" y="199" type="line"/>
      <point x="309" y="241"/>
      <point x="318" y="276"/>
      <point x="318" y="305" type="curve" smooth="yes"/>
      <point x="318" y="358"/>
      <point x="297" y="384"/>
      <point x="256" y="384" type="curve" smooth="yes"/>
      <point x="227" y="384"/>
      <point x="202" y="366"/>
      <point x="181" y="329" type="curve" smooth="yes"/>
      <point x="162" y="296"/>
      <point x="152" y="264"/>
      <point x="152" y="233" type="curve" smooth="yes"/>
      <point x="152" y="206"/>
      <point x="170" y="179"/>
      <point x="207" y="152" type="curve"/>
      <point x="140" y="92"/>
      <point x="76" y="45"/>
      <point x="14" y="11" type="curve"/>
      <point x="38" y="4"/>
      <point x="56" y="0"/>
    </contour>
    <contour>
      <point x="256" y="221" type="curve"/>
      <point x="217" y="248"/>
      <point x="198" y="270"/>
      <point x="198" y="289" type="curve" smooth="yes"/>
      <point x="198" y="301"/>
      <point x="203" y="307"/>
      <point x="214" y="307" type="curve" smooth="yes"/>
      <point x="246" y="307"/>
      <point x="262" y="289"/>
      <point x="262" y="252" type="curve" smooth="yes"/>
      <point x="262" y="243"/>
      <point x="260" y="233"/>
    </contour>
  </outline>
</glyph>
<glyph name="U0650" format="2">
  <advance width="0"/>
  <unicode hex="0650"/>
  <note>
U0650
</note>
  <anchor x="135" y="0" name="_class2"/>
  <outline>
    <contour>
      <point x="0" y="-235" type="curve"/>
      <point x="273" y="-80" type="line" smooth="yes"/>
      <point x="294" y="-68"/>
      <point x="305" y="-42"/>
      <point x="305" y="-2" type="curve"/>
      <point x="60" y="-144" type="line" smooth="yes"/>
      <point x="23" y="-165"/>
      <point x="3" y="-196"/>
    </contour>
  </outline>
</glyph>
<glyph name="U0653" format="2">
  <advance width="0"/>
  <unicode hex="0653"/>
  <note>
U0653
</note>
  <anchor x="240" y="15" name="_class0"/>
  <outline>
    <contour>
      <point x="335" y="0" type="curve" smooth="yes"/>
      <point x="430" y="0"/>
      <point x="509" y="35"/>
      <point x="572" y="106" type="curve"/>
      <point x="559" y="119" type="line"/>
      <point x="498" y="96"/>
      <point x="452" y="84"/>
      <point x="419" y="84" type="curve" smooth="yes"/>
      <point x="387" y="84"/>
      <point x="340" y="92"/>
      <point x="279" y="109" type="curve" smooth="yes"/>
      <point x="218" y="126"/>
      <point x="171" y="134"/>
      <point x="139" y="134" type="curve" smooth="yes"/>
      <point x="99" y="134"/>
      <point x="59" y="99"/>
      <point x="19" y="30" type="curve"/>
      <point x="34" y="17" type="line"/>
      <point x="64" y="33"/>
      <point x="91" y="41"/>
      <point x="114" y="41" type="curve" smooth="yes"/>
      <point x="139" y="41"/>
      <point x="175" y="34"/>
      <point x="224" y="21" type="curve" smooth="yes"/>
      <point x="273" y="7"/>
      <point x="310" y="0"/>
    </contour>
  </outline>
</glyph>
<glyph name="U0661" format="2">
  <advance width="939"/>
  <unicode hex="0661"/>
  <note>
U0661
</note>
  <outline>
    <contour>
      <point x="543" y="-16" type="curve"/>
      <point x="565" y="-16" type="line"/>
      <point x="579" y="90"/>
      <point x="586" y="170"/>
      <point x="586" y="225" type="curve" smooth="yes"/>
      <point x="586" y="489"/>
      <point x="506" y="745"/>
      <point x="345" y="992" type="curve"/>
      <point x="324" y="927"/>
      <point x="306" y="863"/>
      <point x="291" y="799" type="curve"/>
      <point x="456" y="546"/>
      <point x="540" y="275"/>
    </contour>
  </outline>
</glyph>
<glyph name="U0662" format="2">
  <advance width="939"/>
  <unicode hex="0662"/>
  <note>
U0662
</note>
  <outline>
    <contour>
      <point x="506" y="-10" type="curve"/>
      <point x="535" y="-10" type="line"/>
      <point x="543" y="103"/>
      <point x="547" y="176"/>
      <point x="547" y="207" type="curve" smooth="yes"/>
      <point x="547" y="353"/>
      <point x="513" y="505"/>
      <point x="446" y="663" type="curve"/>
      <point x="475" y="659"/>
      <point x="497" y="657"/>
      <point x="512" y="657" type="curve" smooth="yes"/>
      <point x="592" y="657"/>
      <point x="646" y="693"/>
      <point x="674" y="765" type="curve" smooth="yes"/>
      <point x="691" y="810"/>
      <point x="700" y="880"/>
      <point x="700" y="976" type="curve"/>
      <point x="681" y="976" type="line"/>
      <point x="660" y="869"/>
      <point x="601" y="815"/>
      <point x="504" y="815" type="curve" smooth="yes"/>
      <point x="425" y="815"/>
      <point x="341" y="873"/>
      <point x="250" y="988" type="curve"/>
      <point x="196" y="840" type="line"/>
      <point x="297" y="700"/>
      <point x="370" y="567"/>
      <point x="417" y="440" type="curve" smooth="yes"/>
      <point x="464" y="311"/>
      <point x="494" y="161"/>
    </contour>
  </outline>
</glyph>
<glyph name="U0663" format="2">
  <advance width="939"/>
  <unicode hex="0663"/>
  <note>
U0663
</note>
  <outline>
    <contour>
      <point x="376" y="0" type="line"/>
      <point x="403" y="0" type="line"/>
      <point x="419" y="128"/>
      <point x="427" y="226"/>
      <point x="427" y="293" type="curve" smooth="yes"/>
      <point x="427" y="426"/>
      <point x="404" y="554"/>
      <point x="359" y="677" type="curve"/>
      <point x="368" y="676"/>
      <point x="377" y="675"/>
      <point x="386" y="675" type="curve" smooth="yes"/>
      <point x="440" y="675"/>
      <point x="490" y="706"/>
      <point x="535" y="768" type="curve"/>
      <point x="568" y="724"/>
      <point x="608" y="702"/>
      <point x="657" y="702" type="curve" smooth="yes"/>
      <point x="780" y="702"/>
      <point x="842" y="799"/>
      <point x="842" y="992" type="curve"/>
      <point x="823" y="994" type="line"/>
      <point x="811" y="905"/>
      <point x="772" y="860"/>
      <point x="706" y="860" type="curve" smooth="yes"/>
      <point x="640" y="860"/>
      <point x="601" y="905"/>
      <point x="590" y="994" type="curve"/>
      <point x="578" y="994" type="line"/>
      <point x="538" y="880"/>
      <point x="473" y="823"/>
      <point x="384" y="823" type="curve" smooth="yes"/>
      <point x="321" y="823"/>
      <point x="252" y="876"/>
      <point x="177" y="982" type="curve"/>
      <point x="126" y="805" type="line"/>
      <point x="294" y="580"/>
      <point x="378" y="337"/>
      <point x="378" y="76" type="curve" smooth="yes"/>
    </contour>
  </outline>
</glyph>
<glyph name="U0664" format="2">
  <advance width="939"/>
  <unicode hex="0664"/>
  <note>
U0664
</note>
  <outline>
    <contour>
      <point x="677" y="-6" type="curve"/>
      <point x="724" y="146" type="line"/>
      <point x="505" y="199"/>
      <point x="396" y="241"/>
      <point x="396" y="272" type="curve" smooth="yes"/>
      <point x="396" y="289"/>
      <point x="435" y="341"/>
      <point x="514" y="429" type="curve" smooth="yes"/>
      <point x="593" y="516"/>
      <point x="632" y="567"/>
      <point x="632" y="580" type="curve" smooth="yes"/>
      <point x="632" y="595"/>
      <point x="593" y="623"/>
      <point x="514" y="664" type="curve" smooth="yes"/>
      <point x="435" y="704"/>
      <point x="396" y="731"/>
      <point x="396" y="745" type="curve" smooth="yes"/>
      <point x="396" y="772"/>
      <point x="445" y="807"/>
      <point x="543" y="848" type="curve"/>
      <point x="584" y="1001" type="line"/>
      <point x="515" y="958"/>
      <point x="450" y="906"/>
      <point x="389" y="843" type="curve" smooth="yes"/>
      <point x="311" y="762"/>
      <point x="272" y="693"/>
      <point x="272" y="635" type="curve" smooth="yes"/>
      <point x="272" y="604"/>
      <point x="302" y="573"/>
      <point x="363" y="541" type="curve"/>
      <point x="498" y="481" type="line"/>
      <point x="423" y="398"/>
      <point x="379" y="347"/>
      <point x="367" y="330" type="curve" smooth="yes"/>
      <point x="322" y="267"/>
      <point x="299" y="205"/>
      <point x="299" y="146" type="curve" smooth="yes"/>
      <point x="299" y="90"/>
      <point x="425" y="39"/>
    </contour>
  </outline>
</glyph>
<glyph name="U0666" format="2">
  <advance width="939"/>
  <unicode hex="0666"/>
  <note>
U0666
</note>
  <outline>
    <contour>
      <point x="738" y="18" type="curve"/>
      <point x="754" y="211" type="line"/>
      <point x="657" y="281"/>
      <point x="608" y="436"/>
      <point x="608" y="675" type="curve" smooth="yes"/>
      <point x="608" y="740"/>
      <point x="618" y="818"/>
      <point x="638" y="908" type="curve"/>
      <point x="553" y="883"/>
      <point x="484" y="871"/>
      <point x="431" y="871" type="curve" smooth="yes"/>
      <point x="321" y="871"/>
      <point x="248" y="903"/>
      <point x="213" y="968" type="curve"/>
      <point x="194" y="968" type="line"/>
      <point x="191" y="935"/>
      <point x="189" y="904"/>
      <point x="189" y="873" type="curve" smooth="yes"/>
      <point x="189" y="729"/>
      <point x="224" y="700"/>
      <point x="372" y="700" type="curve" smooth="yes"/>
      <point x="426" y="700"/>
      <point x="491" y="710"/>
      <point x="567" y="730" type="curve"/>
      <point x="576" y="462"/>
      <point x="582" y="302"/>
      <point x="586" y="250" type="curve" smooth="yes"/>
      <point x="595" y="117"/>
      <point x="646" y="40"/>
    </contour>
  </outline>
</glyph>
<glyph name="U0667" format="2">
  <advance width="939"/>
  <unicode hex="0667"/>
  <note>
U0667
</note>
  <outline>
    <contour>
      <point x="479" y="12" type="curve"/>
      <point x="512" y="12" type="line"/>
      <point x="530" y="157"/>
      <point x="561" y="293"/>
      <point x="605" y="421" type="curve" smooth="yes"/>
      <point x="665" y="596"/>
      <point x="737" y="708"/>
      <point x="821" y="756" type="curve"/>
      <point x="821" y="970" type="line"/>
      <point x="698" y="912"/>
      <point x="590" y="655"/>
      <point x="498" y="200" type="curve"/>
      <point x="454" y="391"/>
      <point x="415" y="532"/>
      <point x="382" y="624" type="curve" smooth="yes"/>
      <point x="312" y="815"/>
      <point x="233" y="928"/>
      <point x="146" y="964" type="curve"/>
      <point x="132" y="732" type="line"/>
      <point x="222" y="689"/>
      <point x="302" y="583"/>
      <point x="371" y="414" type="curve" smooth="yes"/>
      <point x="426" y="281"/>
      <point x="462" y="147"/>
    </contour>
  </outline>
</glyph>
<glyph name="U0669" format="2">
  <advance width="939"/>
  <unicode hex="0669"/>
  <note>
U0669
</note>
  <outline>
    <contour>
      <point x="724" y="-35" type="curve"/>
      <point x="751" y="187" type="line"/>
      <point x="688" y="211"/>
      <point x="649" y="307"/>
      <point x="634" y="476" type="curve" smooth="yes"/>
      <point x="610" y="766" type="line" smooth="yes"/>
      <point x="604" y="833"/>
      <point x="594" y="881"/>
      <point x="580" y="910" type="curve" smooth="yes"/>
      <point x="557" y="957"/>
      <point x="518" y="980"/>
      <point x="462" y="980" type="curve" smooth="yes"/>
      <point x="376" y="980"/>
      <point x="305" y="907"/>
      <point x="248" y="760" type="curve" smooth="yes"/>
      <point x="227" y="707"/>
      <point x="217" y="663"/>
      <point x="217" y="628" type="curve" smooth="yes"/>
      <point x="217" y="525"/>
      <point x="279" y="458"/>
      <point x="382" y="458" type="curve" smooth="yes"/>
      <point x="448" y="458"/>
      <point x="512" y="486"/>
      <point x="574" y="543" type="curve"/>
      <point x="589" y="361"/>
      <point x="598" y="257"/>
      <point x="602" y="230" type="curve" smooth="yes"/>
      <point x="626" y="82"/>
      <point x="667" y="-6"/>
    </contour>
    <contour>
      <point x="409" y="620" type="curve" smooth="yes"/>
      <point x="376" y="620"/>
      <point x="345" y="628"/>
      <point x="318" y="644" type="curve" smooth="yes"/>
      <point x="285" y="663"/>
      <point x="268" y="687"/>
      <point x="268" y="718" type="curve" smooth="yes"/>
      <point x="268" y="748"/>
      <point x="285" y="772"/>
      <point x="320" y="789" type="curve" smooth="yes"/>
      <point x="349" y="804"/>
      <point x="380" y="811"/>
      <point x="413" y="811" type="curve" smooth="yes"/>
      <point x="492" y="811"/>
      <point x="538" y="764"/>
      <point x="553" y="669" type="curve"/>
      <point x="502" y="636"/>
      <point x="454" y="620"/>
    </contour>
  </outline>
</glyph>
<glyph name="U070b" format="2">
  <advance width="1249"/>
  <unicode hex="070B"/>
  <note>
U070b
</note>
  <outline>
    <contour>
      <point x="150" y="819" type="line"/>
      <point x="1101" y="819" type="line"/>
      <point x="1101" y="894" type="line"/>
      <point x="150" y="894" type="line"/>
    </contour>
    <contour>
      <point x="576" y="663" type="line"/>
      <point x="668" y="663" type="line"/>
      <point x="668" y="755" type="line"/>
      <point x="576" y="755" type="line"/>
    </contour>
  </outline>
</glyph>
<glyph name="U070f" format="2">
  <advance width="41"/>
  <unicode hex="070F"/>
  <note>
U070f
</note>
  <outline>
    <contour>
      <point x="0" y="-116" type="line"/>
      <point x="41" y="-116" type="line"/>
      <point x="41" y="1305" type="line"/>
      <point x="47" y="1308"/>
      <point x="52" y="1313"/>
      <point x="55" y="1320" type="curve"/>
      <point x="140" y="1320" type="line"/>
      <point x="148" y="1305"/>
      <point x="161" y="1298"/>
      <point x="178" y="1298" type="curve" smooth="yes"/>
      <point x="207" y="1298"/>
      <point x="221" y="1313"/>
      <point x="221" y="1342" type="curve" smooth="yes"/>
      <point x="221" y="1371"/>
      <point x="207" y="1385"/>
      <point x="178" y="1385" type="curve" smooth="yes"/>
      <point x="157" y="1385"/>
      <point x="143" y="1375"/>
      <point x="136" y="1356" type="curve"/>
      <point x="59" y="1356" type="line"/>
      <point x="52" y="1375"/>
      <point x="38" y="1385"/>
      <point x="18" y="1385" type="curve" smooth="yes"/>
      <point x="-3" y="1385"/>
      <point x="-17" y="1375"/>
      <point x="-24" y="1356" type="curve"/>
      <point x="-101" y="1356" type="line"/>
      <point x="-108" y="1375"/>
      <point x="-122" y="1385"/>
      <point x="-143" y="1385" type="curve" smooth="yes"/>
      <point x="-172" y="1385"/>
      <point x="-186" y="1371"/>
      <point x="-186" y="1342" type="curve" smooth="yes"/>
      <point x="-186" y="1313"/>
      <point x="-172" y="1298"/>
      <point x="-143" y="1298" type="curve" smooth="yes"/>
      <point x="-126" y="1298"/>
      <point x="-113" y="1305"/>
      <point x="-105" y="1320" type="curve"/>
      <point x="-20" y="1320" type="line"/>
      <point x="-15" y="1311"/>
      <point x="-9" y="1305"/>
      <point x="0" y="1302" type="curve"/>
    </contour>
  </outline>
</glyph>
<glyph name="U0711" format="2">
  <advance width="0"/>
  <unicode hex="0711"/>
  <note>
U0711
</note>
  <anchor x="135" y="15" name="_class0"/>
  <outline>
    <contour>
      <point x="97" y="-15" type="curve"/>
      <point x="99" y="-15" type="line" smooth="yes"/>
      <point x="104" y="-15"/>
      <point x="110" y="-10"/>
      <point x="117" y="1" type="curve" smooth="yes"/>
      <point x="124" y="11"/>
      <point x="131" y="18"/>
      <point x="139" y="21" type="curve" smooth="yes"/>
      <point x="176" y="34"/>
      <point x="194" y="49"/>
      <point x="194" y="68" type="curve" smooth="yes"/>
      <point x="194" y="83"/>
      <point x="181" y="102"/>
      <point x="155" y="126" type="curve" smooth="yes"/>
      <point x="129" y="149"/>
      <point x="116" y="162"/>
      <point x="116" y="165" type="curve" smooth="yes"/>
      <point x="116" y="179"/>
      <point x="131" y="186"/>
      <point x="160" y="186" type="curve" smooth="yes"/>
      <point x="194" y="186"/>
      <point x="223" y="164"/>
      <point x="248" y="119" type="curve"/>
      <point x="232" y="108"/>
      <point x="224" y="93"/>
      <point x="224" y="74" type="curve" smooth="yes"/>
      <point x="224" y="37"/>
      <point x="242" y="19"/>
      <point x="279" y="19" type="curve" smooth="yes"/>
      <point x="316" y="19"/>
      <point x="334" y="37"/>
      <point x="334" y="74" type="curve" smooth="yes"/>
      <point x="334" y="111"/>
      <point x="316" y="129"/>
      <point x="279" y="129" type="curve" smooth="yes"/>
      <point x="275" y="129"/>
      <point x="271" y="129"/>
      <point x="268" y="128" type="curve"/>
      <point x="251" y="162"/>
      <point x="242" y="185"/>
      <point x="242" y="198" type="curve" smooth="yes"/>
      <point x="242" y="219"/>
      <point x="262" y="246"/>
      <point x="303" y="281" type="curve"/>
      <point x="440" y="386" type="line"/>
      <point x="469" y="411"/>
      <point x="483" y="432"/>
      <point x="483" y="451" type="curve" smooth="yes"/>
      <point x="483" y="462"/>
      <point x="479" y="473"/>
      <point x="472" y="484" type="curve" smooth="yes"/>
      <point x="464" y="495"/>
      <point x="460" y="501"/>
      <point x="460" y="504" type="curve" smooth="yes"/>
      <point x="456" y="545" type="line"/>
      <point x="453" y="546"/>
      <point x="449" y="546"/>
      <point x="444" y="546" type="curve"/>
      <point x="423" y="505"/>
      <point x="396" y="468"/>
      <point x="363" y="433" type="curve" smooth="yes"/>
      <point x="298" y="363"/>
      <point x="225" y="307"/>
      <point x="145" y="266" type="curve" smooth="yes"/>
      <point x="98" y="242"/>
      <point x="50" y="225"/>
      <point x="0" y="215" type="curve"/>
      <point x="69" y="154"/>
      <point x="103" y="91"/>
      <point x="103" y="24" type="curve" smooth="yes"/>
      <point x="103" y="9"/>
      <point x="101" y="-4"/>
    </contour>
  </outline>
</glyph>
<glyph name="U0713" format="2">
  <advance width="1145"/>
  <unicode hex="0713"/>
  <note>
U0713
</note>
  <anchor x="900" y="870" name="class0"/>
  <anchor x="780" y="-165" name="class0_"/>
  <anchor x="915" y="825" name="class1"/>
  <anchor x="765" y="-180" name="class2"/>
  <anchor x="765" y="-180" name="class3"/>
  <outline>
    <contour>
      <point x="1248" y="-511" type="curve" smooth="yes"/>
      <point x="1308" y="-511"/>
      <point x="1356" y="-463"/>
      <point x="1356" y="-403" type="curve" smooth="yes"/>
      <point x="1356" y="-343"/>
      <point x="1308" y="-295"/>
      <point x="1248" y="-295" type="curve"/>
      <point x="1238" y="-296" type="line"/>
      <point x="1229" y="-298" type="line"/>
      <point x="1162" y="-162"/>
      <point x="1105" y="-48"/>
      <point x="1058" y="44" type="curve"/>
      <point x="836" y="522"/>
      <point x="725" y="784"/>
      <point x="725" y="830" type="curve" smooth="yes"/>
      <point x="725" y="838"/>
      <point x="727" y="851"/>
      <point x="732" y="868" type="curve" smooth="yes"/>
      <point x="737" y="885"/>
      <point x="739" y="897"/>
      <point x="739" y="906" type="curve" smooth="yes"/>
      <point x="739" y="927"/>
      <point x="731" y="938"/>
      <point x="715" y="938" type="curve"/>
      <point x="643" y="878" type="line"/>
      <point x="610" y="871"/>
      <point x="580" y="859"/>
      <point x="555" y="841" type="curve" smooth="yes"/>
      <point x="524" y="818"/>
      <point x="509" y="792"/>
      <point x="509" y="762" type="curve" smooth="yes"/>
      <point x="509" y="723"/>
      <point x="556" y="624"/>
      <point x="651" y="465" type="curve" smooth="yes"/>
      <point x="745" y="305"/>
      <point x="792" y="217"/>
      <point x="792" y="200" type="curve"/>
      <point x="323" y="200" type="line" smooth="yes"/>
      <point x="292" y="200"/>
      <point x="269" y="208"/>
      <point x="255" y="223" type="curve" smooth="yes"/>
      <point x="247" y="232"/>
      <point x="241" y="247"/>
      <point x="236" y="266" type="curve" smooth="yes"/>
      <point x="233" y="282"/>
      <point x="228" y="290"/>
      <point x="222" y="290" type="curve" smooth="yes"/>
      <point x="205" y="290"/>
      <point x="188" y="272"/>
      <point x="170" y="235" type="curve" smooth="yes"/>
      <point x="154" y="203"/>
      <point x="146" y="178"/>
      <point x="146" y="159" type="curve" smooth="yes"/>
      <point x="146" y="53"/>
      <point x="205" y="0"/>
      <point x="323" y="0" type="curve" smooth="yes"/>
      <point x="803" y="0" type="line" smooth="yes"/>
      <point x="884" y="0"/>
      <point x="960" y="-33"/>
      <point x="1029" y="-100" type="curve" smooth="yes"/>
      <point x="1073" y="-143"/>
      <point x="1125" y="-215"/>
      <point x="1186" y="-314" type="curve"/>
      <point x="1155" y="-335"/>
      <point x="1139" y="-365"/>
      <point x="1139" y="-403" type="curve" smooth="yes"/>
      <point x="1139" y="-463"/>
      <point x="1188" y="-511"/>
    </contour>
  </outline>
</glyph>
<glyph name="U0715" format="2">
  <advance width="832"/>
  <unicode hex="0715"/>
  <note>
U0715
</note>
  <anchor x="285" y="735" name="class0"/>
  <anchor x="345" y="-360" name="class0_"/>
  <anchor x="285" y="705" name="class1"/>
  <anchor x="330" y="-360" name="class2"/>
  <anchor x="300" y="-390" name="class3"/>
  <outline>
    <contour>
      <point x="689" y="-15" type="curve" smooth="yes"/>
      <point x="710" y="-15"/>
      <point x="736" y="-12"/>
      <point x="768" y="-6" type="curve" smooth="yes"/>
      <point x="811" y="1"/>
      <point x="832" y="10"/>
      <point x="832" y="21" type="curve" smooth="yes"/>
      <point x="832" y="28"/>
      <point x="826" y="38"/>
      <point x="815" y="50" type="curve" smooth="yes"/>
      <point x="790" y="74" type="line"/>
      <point x="735" y="142"/>
      <point x="708" y="241"/>
      <point x="708" y="371" type="curve" smooth="yes"/>
      <point x="708" y="448"/>
      <point x="741" y="642"/>
      <point x="741" y="642" type="curve"/>
      <point x="741" y="661"/>
      <point x="734" y="671"/>
      <point x="720" y="671" type="curve" smooth="yes"/>
      <point x="723" y="671"/>
      <point x="709" y="662"/>
      <point x="677" y="645" type="curve" smooth="yes"/>
      <point x="590" y="598"/>
      <point x="500" y="574"/>
      <point x="408" y="574" type="curve" smooth="yes"/>
      <point x="360" y="574"/>
      <point x="316" y="581"/>
      <point x="276" y="596" type="curve" smooth="yes"/>
      <point x="249" y="607"/>
      <point x="224" y="621"/>
      <point x="200" y="639" type="curve" smooth="yes"/>
      <point x="168" y="661" type="line"/>
      <point x="153" y="661"/>
      <point x="146" y="627"/>
      <point x="146" y="558" type="curve" smooth="yes"/>
      <point x="146" y="423"/>
      <point x="201" y="374"/>
      <point x="340" y="374" type="curve" smooth="yes"/>
      <point x="402" y="374"/>
      <point x="460" y="381"/>
      <point x="515" y="394" type="curve"/>
      <point x="511" y="345" type="line" smooth="yes"/>
      <point x="509" y="324"/>
      <point x="508" y="306"/>
      <point x="508" y="293" type="curve" smooth="yes"/>
      <point x="508" y="202"/>
      <point x="517" y="135"/>
      <point x="534" y="90" type="curve" smooth="yes"/>
      <point x="561" y="20"/>
      <point x="613" y="-15"/>
    </contour>
    <contour>
      <point x="299" y="-15" type="curve" smooth="yes"/>
      <point x="358" y="-15"/>
      <point x="407" y="34"/>
      <point x="407" y="94" type="curve" smooth="yes"/>
      <point x="407" y="154"/>
      <point x="358" y="202"/>
      <point x="299" y="202" type="curve" smooth="yes"/>
      <point x="239" y="202"/>
      <point x="190" y="154"/>
      <point x="190" y="94" type="curve" smooth="yes"/>
      <point x="190" y="34"/>
      <point x="239" y="-15"/>
    </contour>
  </outline>
</glyph>
<glyph name="U0717" format="2">
  <advance width="1088"/>
  <unicode hex="0717"/>
  <note>
U0717
</note>
  <anchor x="465" y="765" name="class0"/>
  <anchor x="510" y="-135" name="class0_"/>
  <anchor x="495" y="735" name="class1"/>
  <anchor x="510" y="-150" name="class2"/>
  <anchor x="510" y="-150" name="class3"/>
  <outline>
    <contour>
      <point x="639" y="-118" type="curve" smooth="yes"/>
      <point x="651" y="-118"/>
      <point x="657" y="-100"/>
      <point x="658" y="-65" type="curve" smooth="yes"/>
      <point x="663" y="225"/>
      <point x="745" y="391"/>
      <point x="902" y="432" type="curve"/>
      <point x="902" y="200" type="line"/>
      <point x="745" y="200" type="line"/>
      <point x="745" y="0" type="line"/>
      <point x="1088" y="0" type="line"/>
      <point x="1088" y="697" type="line"/>
      <point x="995" y="653"/>
      <point x="928" y="624"/>
      <point x="889" y="611" type="curve" smooth="yes"/>
      <point x="818" y="585"/>
      <point x="743" y="569"/>
      <point x="665" y="562" type="curve" smooth="yes"/>
      <point x="500" y="547"/>
      <point x="388" y="529"/>
      <point x="329" y="507" type="curve" smooth="yes"/>
      <point x="207" y="461"/>
      <point x="146" y="377"/>
      <point x="146" y="254" type="curve" smooth="yes"/>
      <point x="146" y="85"/>
      <point x="256" y="0"/>
      <point x="476" y="0" type="curve" smooth="yes"/>
      <point x="518" y="0" type="line"/>
      <point x="518" y="200" type="line"/>
      <point x="446" y="200" type="line" smooth="yes"/>
      <point x="370" y="200"/>
      <point x="332" y="221"/>
      <point x="332" y="263" type="curve" smooth="yes"/>
      <point x="332" y="324"/>
      <point x="362" y="354"/>
      <point x="421" y="354" type="curve" smooth="yes"/>
      <point x="551" y="354"/>
      <point x="616" y="216"/>
      <point x="617" y="-60" type="curve" smooth="yes"/>
      <point x="618" y="-99"/>
      <point x="625" y="-118"/>
    </contour>
  </outline>
</glyph>
<glyph name="U071c" format="2">
  <advance width="1408"/>
  <unicode hex="071C"/>
  <note>
U071c
</note>
  <anchor x="960" y="765" name="class0"/>
  <anchor x="750" y="-195" name="class0_"/>
  <anchor x="930" y="840" name="class1"/>
  <anchor x="660" y="-210" name="class2"/>
  <anchor x="765" y="-210" name="class3"/>
  <outline>
    <contour>
      <point x="982" y="-414" type="line"/>
      <point x="1407" y="0" type="line"/>
      <point x="1407" y="200" type="line"/>
      <point x="922" y="200" type="line"/>
      <point x="716" y="711" type="line" smooth="yes"/>
      <point x="693" y="768"/>
      <point x="682" y="822"/>
      <point x="682" y="873" type="curve" smooth="yes"/>
      <point x="682" y="881"/>
      <point x="684" y="894"/>
      <point x="689" y="911" type="curve" smooth="yes"/>
      <point x="694" y="928"/>
      <point x="696" y="941"/>
      <point x="696" y="949" type="curve" smooth="yes"/>
      <point x="696" y="970"/>
      <point x="688" y="981"/>
      <point x="672" y="981" type="curve"/>
      <point x="600" y="921" type="line"/>
      <point x="567" y="915"/>
      <point x="537" y="903"/>
      <point x="512" y="884" type="curve" smooth="yes"/>
      <point x="481" y="861"/>
      <point x="466" y="835"/>
      <point x="466" y="805" type="curve" smooth="yes"/>
      <point x="466" y="772"/>
      <point x="479" y="725"/>
      <point x="506" y="664" type="curve" smooth="yes"/>
      <point x="708" y="200" type="line"/>
      <point x="323" y="200" type="line" smooth="yes"/>
      <point x="292" y="200"/>
      <point x="269" y="208"/>
      <point x="255" y="223" type="curve" smooth="yes"/>
      <point x="247" y="232"/>
      <point x="241" y="247"/>
      <point x="236" y="266" type="curve" smooth="yes"/>
      <point x="233" y="282"/>
      <point x="228" y="290"/>
      <point x="222" y="290" type="curve" smooth="yes"/>
      <point x="205" y="290"/>
      <point x="188" y="272"/>
      <point x="170" y="235" type="curve" smooth="yes"/>
      <point x="154" y="203"/>
      <point x="146" y="178"/>
      <point x="146" y="159" type="curve" smooth="yes"/>
      <point x="146" y="53"/>
      <point x="205" y="0"/>
      <point x="323" y="0" type="curve" smooth="yes"/>
      <point x="800" y="0" type="line"/>
    </contour>
    <contour>
      <point x="1087" y="-210" type="line"/>
      <point x="1001" y="0" type="line"/>
      <point x="1304" y="0" type="line"/>
    </contour>
    <contour>
      <point x="1128" y="-120" type="curve" smooth="yes"/>
      <point x="1163" y="-120"/>
      <point x="1181" y="-102"/>
      <point x="1181" y="-67" type="curve" smooth="yes"/>
      <point x="1181" y="-32"/>
      <point x="1163" y="-15"/>
      <point x="1128" y="-15" type="curve" smooth="yes"/>
      <point x="1093" y="-15"/>
      <point x="1075" y="-32"/>
      <point x="1075" y="-67" type="curve" smooth="yes"/>
      <point x="1075" y="-102"/>
      <point x="1093" y="-120"/>
    </contour>
  </outline>
</glyph>
<glyph name="U071d" format="2">
  <advance width="808"/>
  <unicode hex="071D"/>
  <note>
U071d
</note>
  <anchor x="510" y="540" name="class0"/>
  <anchor x="480" y="-150" name="class0_"/>
  <anchor x="510" y="540" name="class1"/>
  <anchor x="525" y="-150" name="class2"/>
  <anchor x="540" y="-135" name="class3"/>
  <outline>
    <contour>
      <point x="323" y="0" type="curve" smooth="yes"/>
      <point x="686" y="0" type="line" smooth="yes"/>
      <point x="750" y="0"/>
      <point x="806" y="67"/>
      <point x="806" y="132" type="curve" smooth="yes"/>
      <point x="806" y="177"/>
      <point x="786" y="229"/>
      <point x="746" y="287" type="curve"/>
      <point x="640" y="422" type="line" smooth="yes"/>
      <point x="622" y="445"/>
      <point x="605" y="480"/>
      <point x="590" y="527" type="curve" smooth="yes"/>
      <point x="585" y="543"/>
      <point x="577" y="551"/>
      <point x="568" y="551" type="curve" smooth="yes"/>
      <point x="560" y="551"/>
      <point x="556" y="538"/>
      <point x="556" y="511" type="curve" smooth="yes"/>
      <point x="556" y="200" type="line"/>
      <point x="323" y="200" type="line" smooth="yes"/>
      <point x="292" y="200"/>
      <point x="269" y="208"/>
      <point x="255" y="223" type="curve" smooth="yes"/>
      <point x="247" y="232"/>
      <point x="241" y="247"/>
      <point x="236" y="266" type="curve" smooth="yes"/>
      <point x="233" y="282"/>
      <point x="228" y="290"/>
      <point x="222" y="290" type="curve" smooth="yes"/>
      <point x="205" y="290"/>
      <point x="188" y="272"/>
      <point x="170" y="235" type="curve" smooth="yes"/>
      <point x="154" y="203"/>
      <point x="146" y="178"/>
      <point x="146" y="159" type="curve" smooth="yes"/>
      <point x="146" y="53"/>
      <point x="205" y="0"/>
    </contour>
  </outline>
</glyph>
<glyph name="U071f" format="2">
  <advance width="1020"/>
  <unicode hex="071F"/>
  <note>
U071f
</note>
  <anchor x="420" y="765" name="class0"/>
  <anchor x="420" y="-180" name="class0_"/>
  <anchor x="420" y="765" name="class1"/>
  <anchor x="405" y="-210" name="class2"/>
  <anchor x="465" y="-210" name="class3"/>
  <outline>
    <contour>
      <point x="1161" y="-547" type="curve" smooth="yes"/>
      <point x="1168" y="-547"/>
      <point x="1172" y="-543"/>
      <point x="1172" y="-535" type="curve" smooth="yes"/>
      <point x="1172" y="-524"/>
      <point x="1158" y="-459"/>
      <point x="1129" y="-338" type="curve" smooth="yes"/>
      <point x="1090" y="-171"/>
      <point x="1049" y="-23"/>
      <point x="1006" y="105" type="curve" smooth="yes"/>
      <point x="973" y="206"/>
      <point x="943" y="279"/>
      <point x="918" y="322" type="curve" smooth="yes"/>
      <point x="867" y="406"/>
      <point x="807" y="448"/>
      <point x="738" y="448" type="curve" smooth="yes"/>
      <point x="677" y="448"/>
      <point x="619" y="421"/>
      <point x="565" y="367" type="curve" smooth="yes"/>
      <point x="518" y="320"/>
      <point x="483" y="263"/>
      <point x="460" y="196" type="curve"/>
      <point x="298" y="408" type="line"/>
      <point x="314" y="416"/>
      <point x="356" y="425"/>
      <point x="423" y="435" type="curve" smooth="yes"/>
      <point x="486" y="445"/>
      <point x="532" y="460"/>
      <point x="562" y="480" type="curve"/>
      <point x="582" y="533"/>
      <point x="592" y="591"/>
      <point x="592" y="654" type="curve" smooth="yes"/>
      <point x="592" y="693"/>
      <point x="587" y="713"/>
      <point x="578" y="713" type="curve" smooth="yes"/>
      <point x="569" y="713"/>
      <point x="562" y="708"/>
      <point x="556" y="699" type="curve" smooth="yes"/>
      <point x="548" y="686"/>
      <point x="540" y="677"/>
      <point x="531" y="672" type="curve" smooth="yes"/>
      <point x="491" y="648"/>
      <point x="439" y="631"/>
      <point x="374" y="620" type="curve" smooth="yes"/>
      <point x="285" y="605"/>
      <point x="238" y="597"/>
      <point x="232" y="595" type="curve"/>
      <point x="146" y="282" type="line"/>
      <point x="456" y="-114" type="line"/>
      <point x="478" y="-41"/>
      <point x="511" y="29"/>
      <point x="555" y="95" type="curve" smooth="yes"/>
      <point x="610" y="177"/>
      <point x="664" y="218"/>
      <point x="716" y="218" type="curve" smooth="yes"/>
      <point x="787" y="218"/>
      <point x="865" y="135"/>
      <point x="952" y="-30" type="curve" smooth="yes"/>
      <point x="1002" y="-126"/>
      <point x="1050" y="-242"/>
      <point x="1097" y="-378" type="curve" smooth="yes"/>
      <point x="1145" y="-529" type="line"/>
      <point x="1150" y="-541"/>
      <point x="1155" y="-547"/>
    </contour>
  </outline>
</glyph>
<glyph name="U0720" format="2">
  <advance width="974"/>
  <unicode hex="0720"/>
  <note>
U0720
</note>
  <anchor x="900" y="945" name="class0"/>
  <anchor x="720" y="-165" name="class0_"/>
  <anchor x="855" y="1005" name="class1"/>
  <anchor x="735" y="-150" name="class2"/>
  <anchor x="780" y="-180" name="class3"/>
  <outline>
    <contour>
      <point x="323" y="0" type="curve" smooth="yes"/>
      <point x="974" y="0" type="line"/>
      <point x="974" y="200" type="line"/>
      <point x="805" y="674" type="line" smooth="yes"/>
      <point x="710" y="944"/>
      <point x="663" y="1093"/>
      <point x="663" y="1121" type="curve" smooth="yes"/>
      <point x="663" y="1129"/>
      <point x="665" y="1142"/>
      <point x="670" y="1159" type="curve" smooth="yes"/>
      <point x="675" y="1176"/>
      <point x="677" y="1188"/>
      <point x="677" y="1197" type="curve" smooth="yes"/>
      <point x="677" y="1218"/>
      <point x="669" y="1229"/>
      <point x="653" y="1229" type="curve"/>
      <point x="581" y="1169" type="line"/>
      <point x="548" y="1162"/>
      <point x="518" y="1150"/>
      <point x="493" y="1132" type="curve" smooth="yes"/>
      <point x="462" y="1109"/>
      <point x="447" y="1083"/>
      <point x="447" y="1053" type="curve" smooth="yes"/>
      <point x="447" y="1014"/>
      <point x="499" y="866"/>
      <point x="604" y="610" type="curve" smooth="yes"/>
      <point x="708" y="353"/>
      <point x="760" y="217"/>
      <point x="760" y="200" type="curve"/>
      <point x="323" y="200" type="line" smooth="yes"/>
      <point x="292" y="200"/>
      <point x="269" y="208"/>
      <point x="255" y="223" type="curve" smooth="yes"/>
      <point x="247" y="232"/>
      <point x="241" y="247"/>
      <point x="236" y="266" type="curve" smooth="yes"/>
      <point x="233" y="282"/>
      <point x="228" y="290"/>
      <point x="222" y="290" type="curve" smooth="yes"/>
      <point x="205" y="290"/>
      <point x="188" y="272"/>
      <point x="170" y="235" type="curve" smooth="yes"/>
      <point x="154" y="203"/>
      <point x="146" y="178"/>
      <point x="146" y="159" type="curve" smooth="yes"/>
      <point x="146" y="53"/>
      <point x="205" y="0"/>
    </contour>
  </outline>
</glyph>
<glyph name="U0721" format="2">
  <advance width="1041"/>
  <unicode hex="0721"/>
  <note>
U0721
</note>
  <anchor x="540" y="780" name="class0"/>
  <anchor x="600" y="-150" name="class0_"/>
  <anchor x="480" y="810" name="class1"/>
  <anchor x="570" y="-135" name="class2"/>
  <anchor x="570" y="-150" name="class3"/>
  <outline>
    <contour>
      <point x="341" y="-248" type="curve" smooth="yes"/>
      <point x="349" y="-248"/>
      <point x="356" y="-240"/>
      <point x="362" y="-225" type="curve" smooth="yes"/>
      <point x="451" y="0" type="line"/>
      <point x="763" y="0" type="line"/>
      <point x="763" y="200" type="line"/>
      <point x="521" y="200" type="line"/>
      <point x="567" y="400" type="line"/>
      <point x="834" y="400" type="line"/>
      <point x="834" y="0" type="line"/>
      <point x="1019" y="0" type="line"/>
      <point x="1019" y="547" type="line" smooth="yes"/>
      <point x="1019" y="567"/>
      <point x="1023" y="587"/>
      <point x="1030" y="607" type="curve" smooth="yes"/>
      <point x="1037" y="627"/>
      <point x="1041" y="640"/>
      <point x="1041" y="647" type="curve" smooth="yes"/>
      <point x="1041" y="666"/>
      <point x="1033" y="676"/>
      <point x="1017" y="676" type="curve" smooth="yes"/>
      <point x="1011" y="676"/>
      <point x="995" y="663"/>
      <point x="969" y="638" type="curve" smooth="yes"/>
      <point x="942" y="613"/>
      <point x="920" y="600"/>
      <point x="901" y="600" type="curve" smooth="yes"/>
      <point x="302" y="600" type="line" smooth="yes"/>
      <point x="258" y="600"/>
      <point x="228" y="617"/>
      <point x="212" y="652" type="curve" smooth="yes"/>
      <point x="195" y="686"/>
      <point x="182" y="703"/>
      <point x="172" y="703" type="curve" smooth="yes"/>
      <point x="155" y="703"/>
      <point x="146" y="669"/>
      <point x="146" y="600" type="curve" smooth="yes"/>
      <point x="146" y="504"/>
      <point x="172" y="443"/>
      <point x="225" y="416" type="curve" smooth="yes"/>
      <point x="245" y="405"/>
      <point x="286" y="400"/>
      <point x="349" y="400" type="curve" smooth="yes"/>
      <point x="399" y="400" type="line"/>
      <point x="334" y="-221" type="line" smooth="yes"/>
      <point x="333" y="-239"/>
      <point x="335" y="-248"/>
    </contour>
  </outline>
</glyph>
<glyph name="U0722" format="2">
  <advance width="657"/>
  <unicode hex="0722"/>
  <note>
U0722
</note>
  <anchor x="375" y="450" name="class0"/>
  <anchor x="450" y="-210" name="class0_"/>
  <anchor x="345" y="405" name="class1"/>
  <anchor x="360" y="-150" name="class2"/>
  <anchor x="375" y="-165" name="class3"/>
  <outline>
    <contour>
      <point x="1134" y="-585" type="curve" smooth="yes"/>
      <point x="1141" y="-585"/>
      <point x="1144" y="-581"/>
      <point x="1144" y="-574" type="curve" smooth="yes"/>
      <point x="1144" y="-572"/>
      <point x="1139" y="-565"/>
      <point x="1128" y="-553" type="curve" smooth="yes"/>
      <point x="810" y="-212" type="line" smooth="yes"/>
      <point x="722" y="-121"/>
      <point x="608" y="30"/>
      <point x="468" y="240" type="curve" smooth="yes"/>
      <point x="385" y="364" type="line"/>
      <point x="346" y="411"/>
      <point x="305" y="434"/>
      <point x="260" y="434" type="curve" smooth="yes"/>
      <point x="193" y="434"/>
      <point x="146" y="381"/>
      <point x="146" y="314" type="curve" smooth="yes"/>
      <point x="146" y="271"/>
      <point x="162" y="237"/>
      <point x="195" y="211" type="curve"/>
      <point x="298" y="147" type="line"/>
      <point x="441" y="48"/>
      <point x="601" y="-83"/>
      <point x="778" y="-248" type="curve" smooth="yes"/>
      <point x="915" y="-375"/>
      <point x="1026" y="-481"/>
      <point x="1110" y="-567" type="curve" smooth="yes"/>
      <point x="1123" y="-579"/>
      <point x="1131" y="-585"/>
    </contour>
  </outline>
</glyph>
<glyph name="U0723" format="2">
  <advance width="1059"/>
  <unicode hex="0723"/>
  <note>
U0723
</note>
  <anchor x="840" y="810" name="class0"/>
  <anchor x="735" y="-150" name="class0_"/>
  <anchor x="855" y="765" name="class1"/>
  <anchor x="750" y="-150" name="class2"/>
  <anchor x="780" y="-180" name="class3"/>
  <outline>
    <contour>
      <point x="615" y="0" type="curve" smooth="yes"/>
      <point x="1054" y="0" type="line"/>
      <point x="1057" y="10"/>
      <point x="1059" y="25"/>
      <point x="1059" y="46" type="curve" smooth="yes"/>
      <point x="1059" y="110"/>
      <point x="1041" y="222"/>
      <point x="1005" y="381" type="curve" smooth="yes"/>
      <point x="967" y="552"/>
      <point x="935" y="637"/>
      <point x="910" y="637" type="curve" smooth="yes"/>
      <point x="891" y="637"/>
      <point x="856" y="619"/>
      <point x="804" y="584" type="curve" smooth="yes"/>
      <point x="755" y="550"/>
      <point x="718" y="520"/>
      <point x="694" y="494" type="curve"/>
      <point x="667" y="565"/>
      <point x="630" y="623"/>
      <point x="583" y="669" type="curve" smooth="yes"/>
      <point x="527" y="724"/>
      <point x="465" y="751"/>
      <point x="398" y="751" type="curve"/>
      <point x="430" y="831"/>
      <point x="446" y="875"/>
      <point x="446" y="882" type="curve" smooth="yes"/>
      <point x="446" y="895"/>
      <point x="438" y="902"/>
      <point x="423" y="902" type="curve" smooth="yes"/>
      <point x="419" y="902"/>
      <point x="400" y="881"/>
      <point x="365" y="840" type="curve" smooth="yes"/>
      <point x="291" y="753"/>
      <point x="242" y="692"/>
      <point x="219" y="655" type="curve" smooth="yes"/>
      <point x="170" y="578"/>
      <point x="146" y="505"/>
      <point x="146" y="436" type="curve" smooth="yes"/>
      <point x="146" y="316"/>
      <point x="195" y="212"/>
      <point x="293" y="125" type="curve" smooth="yes"/>
      <point x="387" y="42"/>
      <point x="494" y="0"/>
    </contour>
    <contour>
      <point x="501" y="232" type="curve"/>
      <point x="388" y="275"/>
      <point x="332" y="344"/>
      <point x="332" y="440" type="curve" smooth="yes"/>
      <point x="332" y="507"/>
      <point x="356" y="541"/>
      <point x="404" y="541" type="curve" smooth="yes"/>
      <point x="440" y="541"/>
      <point x="469" y="519"/>
      <point x="490" y="474" type="curve" smooth="yes"/>
      <point x="507" y="438"/>
      <point x="516" y="399"/>
      <point x="516" y="358" type="curve" smooth="yes"/>
      <point x="516" y="332"/>
      <point x="511" y="290"/>
    </contour>
    <contour>
      <point x="666" y="200" type="line"/>
      <point x="683" y="297"/>
      <point x="737" y="354"/>
      <point x="826" y="372" type="curve"/>
      <point x="853" y="295"/>
      <point x="867" y="237"/>
      <point x="870" y="200" type="curve"/>
    </contour>
  </outline>
</glyph>
<glyph name="U0725" format="2">
  <advance width="1195"/>
  <unicode hex="0725"/>
  <note>
U0725
</note>
  <anchor x="645" y="975" name="class0"/>
  <anchor x="765" y="-135" name="class0_"/>
  <anchor x="615" y="1005" name="class1"/>
  <anchor x="735" y="-165" name="class2"/>
  <anchor x="795" y="-180" name="class3"/>
  <outline>
    <contour>
      <point x="990" y="-15" type="curve" smooth="yes"/>
      <point x="1127" y="-15"/>
      <point x="1195" y="46"/>
      <point x="1195" y="168" type="curve" smooth="yes"/>
      <point x="1195" y="249"/>
      <point x="1176" y="290"/>
      <point x="1137" y="290" type="curve" smooth="yes"/>
      <point x="1133" y="290"/>
      <point x="1128" y="281"/>
      <point x="1123" y="263" type="curve" smooth="yes"/>
      <point x="1116" y="240"/>
      <point x="1107" y="223"/>
      <point x="1096" y="212" type="curve" smooth="yes"/>
      <point x="1077" y="194"/>
      <point x="1050" y="185"/>
      <point x="1015" y="185" type="curve" smooth="yes"/>
      <point x="975" y="185"/>
      <point x="942" y="203"/>
      <point x="915" y="240" type="curve" smooth="yes"/>
      <point x="906" y="253"/>
      <point x="888" y="288"/>
      <point x="862" y="344" type="curve"/>
      <point x="762" y="537" type="line" smooth="yes"/>
      <point x="718" y="624"/>
      <point x="696" y="684"/>
      <point x="696" y="716" type="curve" smooth="yes"/>
      <point x="696" y="724"/>
      <point x="698" y="737"/>
      <point x="703" y="754" type="curve" smooth="yes"/>
      <point x="708" y="771"/>
      <point x="710" y="783"/>
      <point x="710" y="792" type="curve" smooth="yes"/>
      <point x="710" y="813"/>
      <point x="702" y="824"/>
      <point x="686" y="824" type="curve"/>
      <point x="614" y="764" type="line"/>
      <point x="581" y="757"/>
      <point x="551" y="745"/>
      <point x="526" y="727" type="curve" smooth="yes"/>
      <point x="495" y="704"/>
      <point x="480" y="678"/>
      <point x="480" y="648" type="curve" smooth="yes"/>
      <point x="480" y="622"/>
      <point x="502" y="569"/>
      <point x="546" y="488" type="curve" smooth="yes"/>
      <point x="709" y="200" type="line"/>
      <point x="323" y="200" type="line" smooth="yes"/>
      <point x="292" y="200"/>
      <point x="269" y="208"/>
      <point x="255" y="223" type="curve" smooth="yes"/>
      <point x="247" y="232"/>
      <point x="241" y="247"/>
      <point x="236" y="266" type="curve" smooth="yes"/>
      <point x="233" y="282"/>
      <point x="228" y="290"/>
      <point x="222" y="290" type="curve" smooth="yes"/>
      <point x="205" y="290"/>
      <point x="188" y="272"/>
      <point x="170" y="235" type="curve" smooth="yes"/>
      <point x="154" y="203"/>
      <point x="146" y="178"/>
      <point x="146" y="159" type="curve" smooth="yes"/>
      <point x="146" y="53"/>
      <point x="205" y="0"/>
      <point x="323" y="0" type="curve" smooth="yes"/>
      <point x="702" y="0" type="line" smooth="yes"/>
      <point x="723" y="0"/>
      <point x="742" y="6"/>
      <point x="760" y="18" type="curve"/>
      <point x="805" y="55" type="line"/>
      <point x="869" y="-2"/>
      <point x="901" y="-15"/>
    </contour>
  </outline>
</glyph>
<glyph name="U0727" format="2">
  <advance width="1005"/>
  <unicode hex="0727"/>
  <note>
U0727
</note>
  <anchor x="540" y="1035" name="class0"/>
  <anchor x="525" y="-150" name="class0_"/>
  <anchor x="990" y="885" name="class1"/>
  <anchor x="720" y="-195" name="class2"/>
  <anchor x="1185" y="-150" name="class3"/>
  <outline>
    <contour>
      <point x="0" y="0" type="line"/>
      <point x="822" y="0" type="line" smooth="yes"/>
      <point x="940" y="0"/>
      <point x="999" y="53"/>
      <point x="999" y="159" type="curve" smooth="yes"/>
      <point x="999" y="178"/>
      <point x="991" y="203"/>
      <point x="976" y="235" type="curve" smooth="yes"/>
      <point x="958" y="272"/>
      <point x="940" y="290"/>
      <point x="923" y="290" type="curve" smooth="yes"/>
      <point x="917" y="290"/>
      <point x="912" y="282"/>
      <point x="909" y="266" type="curve" smooth="yes"/>
      <point x="905" y="247"/>
      <point x="899" y="232"/>
      <point x="891" y="223" type="curve" smooth="yes"/>
      <point x="877" y="208"/>
      <point x="854" y="200"/>
      <point x="822" y="200" type="curve" smooth="yes"/>
      <point x="192" y="200" type="line"/>
      <point x="253" y="387" type="line"/>
      <point x="312" y="358"/>
      <point x="377" y="344"/>
      <point x="448" y="344" type="curve" smooth="yes"/>
      <point x="587" y="344"/>
      <point x="696" y="453"/>
      <point x="696" y="600" type="curve" smooth="yes"/>
      <point x="696" y="662"/>
      <point x="667" y="718"/>
      <point x="610" y="769" type="curve" smooth="yes"/>
      <point x="583" y="793"/>
      <point x="527" y="830"/>
      <point x="440" y="881" type="curve" smooth="yes"/>
      <point x="330" y="946"/>
      <point x="270" y="978"/>
      <point x="259" y="978" type="curve" smooth="yes"/>
      <point x="246" y="978"/>
      <point x="228" y="943"/>
      <point x="207" y="874" type="curve" smooth="yes"/>
      <point x="0" y="200" type="line"/>
    </contour>
    <contour>
      <point x="422" y="530" type="curve" smooth="yes"/>
      <point x="369" y="530"/>
      <point x="329" y="540"/>
      <point x="302" y="560" type="curve"/>
      <point x="354" y="726" type="line"/>
      <point x="458" y="691"/>
      <point x="510" y="649"/>
      <point x="510" y="600" type="curve" smooth="yes"/>
      <point x="510" y="577"/>
      <point x="500" y="559"/>
      <point x="479" y="546" type="curve" smooth="yes"/>
      <point x="462" y="535"/>
      <point x="443" y="530"/>
    </contour>
  </outline>
</glyph>
<glyph name="U072a" format="2">
  <advance width="832"/>
  <unicode hex="072A"/>
  <note>
U072a
</note>
  <anchor x="300" y="1005" name="class0"/>
  <anchor x="360" y="-150" name="class0_"/>
  <anchor x="300" y="1020" name="class1"/>
  <anchor x="360" y="-150" name="class2"/>
  <anchor x="315" y="-165" name="class3"/>
  <outline>
    <contour>
      <point x="689" y="-15" type="curve" smooth="yes"/>
      <point x="710" y="-15"/>
      <point x="736" y="-12"/>
      <point x="768" y="-6" type="curve" smooth="yes"/>
      <point x="811" y="1"/>
      <point x="832" y="10"/>
      <point x="832" y="21" type="curve" smooth="yes"/>
      <point x="832" y="28"/>
      <point x="826" y="38"/>
      <point x="815" y="50" type="curve" smooth="yes"/>
      <point x="790" y="74" type="line"/>
      <point x="735" y="142"/>
      <point x="708" y="241"/>
      <point x="708" y="371" type="curve" smooth="yes"/>
      <point x="708" y="448"/>
      <point x="741" y="642"/>
      <point x="741" y="642" type="curve"/>
      <point x="741" y="661"/>
      <point x="734" y="671"/>
      <point x="720" y="671" type="curve" smooth="yes"/>
      <point x="723" y="671"/>
      <point x="709" y="662"/>
      <point x="677" y="645" type="curve" smooth="yes"/>
      <point x="590" y="598"/>
      <point x="500" y="574"/>
      <point x="408" y="574" type="curve" smooth="yes"/>
      <point x="360" y="574"/>
      <point x="316" y="581"/>
      <point x="276" y="596" type="curve" smooth="yes"/>
      <point x="249" y="607"/>
      <point x="224" y="621"/>
      <point x="200" y="639" type="curve" smooth="yes"/>
      <point x="168" y="661" type="line"/>
      <point x="153" y="661"/>
      <point x="146" y="627"/>
      <point x="146" y="558" type="curve" smooth="yes"/>
      <point x="146" y="423"/>
      <point x="201" y="374"/>
      <point x="340" y="374" type="curve" smooth="yes"/>
      <point x="402" y="374"/>
      <point x="460" y="381"/>
      <point x="515" y="394" type="curve"/>
      <point x="511" y="345" type="line" smooth="yes"/>
      <point x="509" y="324"/>
      <point x="508" y="306"/>
      <point x="508" y="293" type="curve" smooth="yes"/>
      <point x="508" y="202"/>
      <point x="517" y="135"/>
      <point x="534" y="90" type="curve" smooth="yes"/>
      <point x="561" y="20"/>
      <point x="613" y="-15"/>
    </contour>
    <contour>
      <point x="416" y="693" type="curve" smooth="yes"/>
      <point x="475" y="693"/>
      <point x="524" y="741"/>
      <point x="524" y="801" type="curve" smooth="yes"/>
      <point x="524" y="861"/>
      <point x="475" y="909"/>
      <point x="416" y="909" type="curve" smooth="yes"/>
      <point x="356" y="909"/>
      <point x="307" y="861"/>
      <point x="307" y="801" type="curve" smooth="yes"/>
      <point x="307" y="741"/>
      <point x="356" y="693"/>
    </contour>
  </outline>
</glyph>
<glyph name="U072b" format="2">
  <advance width="1204"/>
  <unicode hex="072B"/>
  <note>
U072b
</note>
  <anchor x="690" y="780" name="class0"/>
  <anchor x="675" y="-135" name="class0_"/>
  <anchor x="705" y="765" name="class1"/>
  <anchor x="720" y="-150" name="class2"/>
  <anchor x="675" y="-195" name="class3"/>
  <outline>
    <contour>
      <point x="323" y="0" type="curve" smooth="yes"/>
      <point x="786" y="0" type="line"/>
      <point x="786" y="121" type="line"/>
      <point x="835" y="40"/>
      <point x="935" y="0"/>
      <point x="1085" y="0" type="curve" smooth="yes"/>
      <point x="1204" y="0" type="line"/>
      <point x="1204" y="200" type="line"/>
      <point x="1091" y="200" type="line" smooth="yes"/>
      <point x="1009" y="200"/>
      <point x="954" y="218"/>
      <point x="926" y="254" type="curve" smooth="yes"/>
      <point x="909" y="277"/>
      <point x="900" y="315"/>
      <point x="900" y="369" type="curve" smooth="yes"/>
      <point x="900" y="377"/>
      <point x="901" y="387"/>
      <point x="903" y="400" type="curve"/>
      <point x="1166" y="400" type="line"/>
      <point x="1184" y="576" type="line"/>
      <point x="1190" y="641" type="line"/>
      <point x="1190" y="661"/>
      <point x="1186" y="671"/>
      <point x="1179" y="671" type="curve" smooth="yes"/>
      <point x="1174" y="671"/>
      <point x="1162" y="659"/>
      <point x="1145" y="636" type="curve" smooth="yes"/>
      <point x="1128" y="612"/>
      <point x="1102" y="600"/>
      <point x="1068" y="600" type="curve" smooth="yes"/>
      <point x="587" y="600" type="line" smooth="yes"/>
      <point x="556" y="600"/>
      <point x="530" y="621"/>
      <point x="511" y="663" type="curve" smooth="yes"/>
      <point x="491" y="704"/>
      <point x="474" y="725"/>
      <point x="460" y="725" type="curve" smooth="yes"/>
      <point x="450" y="725"/>
      <point x="445" y="716"/>
      <point x="445" y="698" type="curve" smooth="yes"/>
      <point x="445" y="703"/>
      <point x="449" y="681"/>
      <point x="456" y="632" type="curve" smooth="yes"/>
      <point x="490" y="400" type="line"/>
      <point x="734" y="400" type="line"/>
      <point x="734" y="380" type="line" smooth="yes"/>
      <point x="734" y="308"/>
      <point x="740" y="248"/>
      <point x="753" y="200" type="curve"/>
      <point x="323" y="200" type="line" smooth="yes"/>
      <point x="292" y="200"/>
      <point x="269" y="208"/>
      <point x="255" y="223" type="curve" smooth="yes"/>
      <point x="247" y="232"/>
      <point x="241" y="247"/>
      <point x="236" y="266" type="curve" smooth="yes"/>
      <point x="233" y="282"/>
      <point x="228" y="290"/>
      <point x="222" y="290" type="curve" smooth="yes"/>
      <point x="205" y="290"/>
      <point x="188" y="272"/>
      <point x="170" y="235" type="curve" smooth="yes"/>
      <point x="154" y="203"/>
      <point x="146" y="178"/>
      <point x="146" y="159" type="curve" smooth="yes"/>
      <point x="146" y="53"/>
      <point x="205" y="0"/>
    </contour>
  </outline>
</glyph>
<glyph name="U0730" format="2">
  <advance width="0"/>
  <unicode hex="0730"/>
  <note>
U0730
</note>
  <anchor x="195" y="60" name="_class0"/>
  <outline>
    <contour>
      <point x="39" y="0" type="line"/>
      <point x="521" y="338" type="line"/>
      <point x="481" y="390" type="line"/>
      <point x="423" y="349" type="line"/>
      <point x="121" y="403" type="line"/>
      <point x="69" y="100" type="line"/>
      <point x="-1" y="51" type="line"/>
    </contour>
    <contour>
      <point x="131" y="145" type="line"/>
      <point x="169" y="340" type="line"/>
      <point x="361" y="306" type="line"/>
    </contour>
  </outline>
</glyph>
<glyph name="U0736" format="2">
  <advance width="0"/>
  <unicode hex="0736"/>
  <note>
U0736
</note>
  <anchor x="210" y="30" name="_class0"/>
  <outline>
    <contour>
      <point x="180" y="0" type="line"/>
      <point x="350" y="295" type="line"/>
      <point x="385" y="260"/>
      <point x="402" y="212"/>
      <point x="402" y="151" type="curve" smooth="yes"/>
      <point x="402" y="114"/>
      <point x="395" y="68"/>
      <point x="381" y="13" type="curve"/>
      <point x="449" y="80" type="line"/>
      <point x="459" y="124"/>
      <point x="464" y="163"/>
      <point x="464" y="198" type="curve" smooth="yes"/>
      <point x="464" y="327"/>
      <point x="381" y="414"/>
      <point x="253" y="414" type="curve" smooth="yes"/>
      <point x="202" y="414"/>
      <point x="156" y="401"/>
      <point x="115" y="375" type="curve" smooth="yes"/>
      <point x="89" y="358"/>
      <point x="53" y="326"/>
      <point x="7" y="279" type="curve"/>
      <point x="78" y="326"/>
      <point x="146" y="349"/>
      <point x="213" y="349" type="curve" smooth="yes"/>
      <point x="242" y="349"/>
      <point x="268" y="344"/>
      <point x="293" y="335" type="curve"/>
      <point x="121" y="35" type="line"/>
    </contour>
  </outline>
</glyph>
<glyph name="U0738" format="2">
  <advance width="0"/>
  <unicode hex="0738"/>
  <note>
U0738
</note>
  <anchor x="420" y="-180" name="_class2"/>
  <outline>
    <contour>
      <point x="601" y="-385" type="curve" smooth="yes"/>
      <point x="624" y="-385"/>
      <point x="642" y="-367"/>
      <point x="657" y="-332" type="curve" smooth="yes"/>
      <point x="669" y="-304"/>
      <point x="675" y="-277"/>
      <point x="675" y="-250" type="curve" smooth="yes"/>
      <point x="675" y="-227"/>
      <point x="670" y="-201"/>
      <point x="659" y="-172" type="curve" smooth="yes"/>
      <point x="645" y="-135"/>
      <point x="629" y="-117"/>
      <point x="610" y="-117" type="curve" smooth="yes"/>
      <point x="585" y="-117"/>
      <point x="566" y="-135"/>
      <point x="551" y="-172" type="curve" smooth="yes"/>
      <point x="540" y="-200"/>
      <point x="534" y="-229"/>
      <point x="534" y="-258" type="curve" smooth="yes"/>
      <point x="534" y="-282"/>
      <point x="540" y="-307"/>
      <point x="551" y="-334" type="curve" smooth="yes"/>
      <point x="564" y="-368"/>
      <point x="581" y="-385"/>
    </contour>
    <contour>
      <point x="347" y="-384" type="curve" smooth="yes"/>
      <point x="366" y="-384"/>
      <point x="384" y="-371"/>
      <point x="399" y="-344" type="curve" smooth="yes"/>
      <point x="412" y="-321"/>
      <point x="420" y="-299"/>
      <point x="421" y="-278" type="curve" smooth="yes"/>
      <point x="421" y="-256" type="line" smooth="yes"/>
      <point x="421" y="-233"/>
      <point x="420" y="-214"/>
      <point x="417" y="-201" type="curve" smooth="yes"/>
      <point x="414" y="-184"/>
      <point x="407" y="-167"/>
      <point x="396" y="-150" type="curve" smooth="yes"/>
      <point x="383" y="-128"/>
      <point x="370" y="-117"/>
      <point x="357" y="-117" type="curve" smooth="yes"/>
      <point x="332" y="-117"/>
      <point x="313" y="-135"/>
      <point x="298" y="-172" type="curve" smooth="yes"/>
      <point x="286" y="-201"/>
      <point x="280" y="-229"/>
      <point x="280" y="-257" type="curve" smooth="yes"/>
      <point x="280" y="-281"/>
      <point x="286" y="-307"/>
      <point x="297" y="-334" type="curve" smooth="yes"/>
      <point x="310" y="-367"/>
      <point x="327" y="-384"/>
    </contour>
  </outline>
</glyph>
<glyph name="U073a" format="2">
  <advance width="0"/>
  <unicode hex="073A"/>
  <note>
U073a
</note>
  <anchor x="150" y="15" name="_class0"/>
  <outline>
    <contour>
      <point x="0" y="0" type="line"/>
      <point x="440" y="0" type="line"/>
      <point x="440" y="68" type="line"/>
      <point x="262" y="68" type="line"/>
      <point x="262" y="159" type="line"/>
      <point x="440" y="159" type="line"/>
      <point x="440" y="227" type="line"/>
      <point x="0" y="227" type="line"/>
      <point x="0" y="159" type="line"/>
      <point x="178" y="159" type="line"/>
      <point x="178" y="68" type="line"/>
      <point x="0" y="68" type="line"/>
    </contour>
  </outline>
</glyph>
<glyph name="U073d" format="2">
  <advance width="0"/>
  <unicode hex="073D"/>
  <note>
U073d
</note>
  <anchor x="240" y="60" name="_class0"/>
  <outline>
    <contour>
      <point x="411" y="56" type="line"/>
      <point x="471" y="97" type="line"/>
      <point x="298" y="343" type="line"/>
      <point x="463" y="457" type="line"/>
      <point x="424" y="514" type="line"/>
      <point x="-3" y="214" type="line"/>
      <point x="37" y="159" type="line"/>
      <point x="241" y="302" type="line"/>
    </contour>
    <contour>
      <point x="210" y="0" type="curve" smooth="yes"/>
      <point x="267" y="0"/>
      <point x="314" y="48"/>
      <point x="314" y="105" type="curve" smooth="yes"/>
      <point x="314" y="160"/>
      <point x="266" y="208"/>
      <point x="210" y="208" type="curve" smooth="yes"/>
      <point x="153" y="208"/>
      <point x="105" y="161"/>
      <point x="105" y="105" type="curve" smooth="yes"/>
      <point x="105" y="48"/>
      <point x="153" y="0"/>
    </contour>
    <contour>
      <point x="210" y="53" type="curve" smooth="yes"/>
      <point x="175" y="53"/>
      <point x="157" y="70"/>
      <point x="157" y="105" type="curve" smooth="yes"/>
      <point x="157" y="140"/>
      <point x="175" y="157"/>
      <point x="210" y="157" type="curve" smooth="yes"/>
      <point x="244" y="157"/>
      <point x="261" y="140"/>
      <point x="261" y="105" type="curve" smooth="yes"/>
      <point x="261" y="70"/>
      <point x="244" y="53"/>
    </contour>
  </outline>
</glyph>
<glyph name="U073e" format="2">
  <advance width="0"/>
  <unicode hex="073E"/>
  <note>
U073e
</note>
  <anchor x="195" y="0" name="_class2"/>
  <outline>
    <contour>
      <point x="49" y="-513" type="line"/>
      <point x="474" y="-215" type="line"/>
      <point x="435" y="-158" type="line"/>
      <point x="232" y="-302" type="line"/>
      <point x="60" y="-56" type="line"/>
      <point x="0" y="-97" type="line"/>
      <point x="173" y="-342" type="line"/>
      <point x="8" y="-457" type="line"/>
    </contour>
    <contour>
      <point x="262" y="-210" type="curve" smooth="yes"/>
      <point x="318" y="-210"/>
      <point x="366" y="-162"/>
      <point x="366" y="-105" type="curve" smooth="yes"/>
      <point x="366" y="-48"/>
      <point x="318" y="0"/>
      <point x="262" y="0" type="curve" smooth="yes"/>
      <point x="205" y="0"/>
      <point x="157" y="-48"/>
      <point x="157" y="-105" type="curve" smooth="yes"/>
      <point x="157" y="-162"/>
      <point x="205" y="-210"/>
    </contour>
    <contour>
      <point x="262" y="-158" type="curve" smooth="yes"/>
      <point x="227" y="-158"/>
      <point x="210" y="-140"/>
      <point x="210" y="-105" type="curve" smooth="yes"/>
      <point x="210" y="-70"/>
      <point x="227" y="-53"/>
      <point x="262" y="-53" type="curve" smooth="yes"/>
      <point x="297" y="-53"/>
      <point x="314" y="-70"/>
      <point x="314" y="-105" type="curve" smooth="yes"/>
      <point x="314" y="-140"/>
      <point x="297" y="-158"/>
    </contour>
  </outline>
</glyph>
<glyph name="U0742" format="2">
  <advance width="0"/>
  <unicode hex="0742"/>
  <note>
U0742
</note>
  <anchor x="60" y="-75" name="_class3"/>
  <outline>
    <contour>
      <point x="83" y="-307" type="curve" smooth="yes"/>
      <point x="106" y="-307"/>
      <point x="126" y="-289"/>
      <point x="143" y="-252" type="curve" smooth="yes"/>
      <point x="158" y="-222"/>
      <point x="165" y="-194"/>
      <point x="165" y="-168" type="curve" smooth="yes"/>
      <point x="165" y="-147"/>
      <point x="158" y="-121"/>
      <point x="145" y="-92" type="curve" smooth="yes"/>
      <point x="129" y="-57"/>
      <point x="112" y="-40"/>
      <point x="93" y="-40" type="curve" smooth="yes"/>
      <point x="68" y="-40"/>
      <point x="48" y="-57"/>
      <point x="31" y="-91" type="curve" smooth="yes"/>
      <point x="18" y="-118"/>
      <point x="11" y="-145"/>
      <point x="11" y="-172" type="curve" smooth="yes"/>
      <point x="11" y="-195"/>
      <point x="17" y="-222"/>
      <point x="30" y="-252" type="curve" smooth="yes"/>
      <point x="45" y="-289"/>
      <point x="63" y="-307"/>
    </contour>
  </outline>
</glyph>
<glyph name="U0744" format="2">
  <advance width="0"/>
  <unicode hex="0744"/>
  <note>
U0744
</note>
  <anchor x="75" y="15" name="_class2"/>
  <outline>
    <contour>
      <point x="110" y="-218" type="curve" smooth="yes"/>
      <point x="170" y="-218"/>
      <point x="218" y="-170"/>
      <point x="218" y="-110" type="curve" smooth="yes"/>
      <point x="218" y="-50"/>
      <point x="170" y="-1"/>
      <point x="110" y="-1" type="curve" smooth="yes"/>
      <point x="50" y="-1"/>
      <point x="2" y="-50"/>
      <point x="2" y="-110" type="curve" smooth="yes"/>
      <point x="2" y="-170"/>
      <point x="50" y="-218"/>
    </contour>
    <contour>
      <point x="116" y="-516" type="curve" smooth="yes"/>
      <point x="176" y="-516"/>
      <point x="224" y="-467"/>
      <point x="224" y="-407" type="curve" smooth="yes"/>
      <point x="224" y="-347"/>
      <point x="176" y="-299"/>
      <point x="116" y="-299" type="curve" smooth="yes"/>
      <point x="56" y="-299"/>
      <point x="8" y="-347"/>
      <point x="8" y="-407" type="curve" smooth="yes"/>
      <point x="8" y="-467"/>
      <point x="56" y="-516"/>
    </contour>
  </outline>
</glyph>
<glyph name="U0746" format="2">
  <advance width="0"/>
  <unicode hex="0746"/>
  <note>
U0746
</note>
  <anchor x="165" y="0" name="_class2"/>
  <outline>
    <contour>
      <point x="445" y="-231" type="curve" smooth="yes"/>
      <point x="505" y="-231"/>
      <point x="553" y="-183"/>
      <point x="553" y="-123" type="curve" smooth="yes"/>
      <point x="553" y="-63"/>
      <point x="505" y="-14"/>
      <point x="445" y="-14" type="curve" smooth="yes"/>
      <point x="385" y="-14"/>
      <point x="337" y="-63"/>
      <point x="337" y="-123" type="curve" smooth="yes"/>
      <point x="337" y="-183"/>
      <point x="385" y="-231"/>
    </contour>
    <contour>
      <point x="287" y="-529" type="curve" smooth="yes"/>
      <point x="347" y="-529"/>
      <point x="395" y="-480"/>
      <point x="395" y="-420" type="curve" smooth="yes"/>
      <point x="395" y="-360"/>
      <point x="347" y="-312"/>
      <point x="287" y="-312" type="curve" smooth="yes"/>
      <point x="227" y="-312"/>
      <point x="179" y="-360"/>
      <point x="179" y="-420" type="curve" smooth="yes"/>
      <point x="179" y="-480"/>
      <point x="227" y="-529"/>
    </contour>
    <contour>
      <point x="113" y="-228" type="curve" smooth="yes"/>
      <point x="173" y="-228"/>
      <point x="221" y="-180"/>
      <point x="221" y="-120" type="curve" smooth="yes"/>
      <point x="221" y="-60"/>
      <point x="173" y="-11"/>
      <point x="113" y="-11" type="curve" smooth="yes"/>
      <point x="53" y="-11"/>
      <point x="5" y="-60"/>
      <point x="5" y="-120" type="curve" smooth="yes"/>
      <point x="5" y="-180"/>
      <point x="53" y="-228"/>
    </contour>
  </outline>
</glyph>
<glyph name="U0749" format="2">
  <advance width="0"/>
  <unicode hex="0749"/>
  <note>
U0749
</note>
  <anchor x="330" y="180" name="_class0"/>
  <outline>
    <contour>
      <point x="11" y="38" type="curve"/>
      <point x="584" y="441" type="line"/>
      <point x="584" y="523" type="line"/>
      <point x="11" y="129" type="line"/>
      <point x="13" y="126"/>
      <point x="13" y="96"/>
    </contour>
  </outline>
</glyph>
<glyph name="U1e07" format="2">
  <advance width="1229"/>
  <unicode hex="1E07"/>
  <note>
U1e07
</note>
  <outline>
    <contour>
      <point x="704" y="-45" type="curve" smooth="yes"/>
      <point x="939" y="-45"/>
      <point x="1127" y="140"/>
      <point x="1127" y="375" type="curve" smooth="yes"/>
      <point x="1127" y="608"/>
      <point x="939" y="794"/>
      <point x="704" y="794" type="curve" smooth="yes"/>
      <point x="559" y="794"/>
      <point x="444" y="735"/>
      <point x="358" y="617" type="curve"/>
      <point x="357" y="1249" type="line"/>
      <point x="202" y="1249" type="line" smooth="yes"/>
      <point x="165" y="1249"/>
      <point x="146" y="1235"/>
      <point x="146" y="1207" type="curve" smooth="yes"/>
      <point x="146" y="1178"/>
      <point x="165" y="1164"/>
      <point x="202" y="1164" type="curve" smooth="yes"/>
      <point x="273" y="1164" type="line"/>
      <point x="273" y="85" type="line"/>
      <point x="202" y="85" type="line" smooth="yes"/>
      <point x="165" y="85"/>
      <point x="146" y="71"/>
      <point x="146" y="42" type="curve" smooth="yes"/>
      <point x="146" y="14"/>
      <point x="165" y="0"/>
      <point x="202" y="0" type="curve" smooth="yes"/>
      <point x="357" y="0" type="line"/>
      <point x="357" y="133" type="line"/>
      <point x="443" y="14"/>
      <point x="559" y="-45"/>
    </contour>
    <contour>
      <point x="444" y="-285" type="curve" smooth="yes"/>
      <point x="935" y="-285" type="line" smooth="yes"/>
      <point x="971" y="-285"/>
      <point x="989" y="-271"/>
      <point x="989" y="-243" type="curve" smooth="yes"/>
      <point x="989" y="-214"/>
      <point x="970" y="-200"/>
      <point x="933" y="-200" type="curve" smooth="yes"/>
      <point x="447" y="-200" type="line" smooth="yes"/>
      <point x="410" y="-200"/>
      <point x="391" y="-214"/>
      <point x="391" y="-243" type="curve" smooth="yes"/>
      <point x="391" y="-271"/>
      <point x="409" y="-285"/>
    </contour>
    <contour>
      <point x="703" y="32" type="curve" smooth="yes"/>
      <point x="511" y="32"/>
      <point x="356" y="183"/>
      <point x="356" y="375" type="curve" smooth="yes"/>
      <point x="356" y="566"/>
      <point x="512" y="718"/>
      <point x="703" y="718" type="curve" smooth="yes"/>
      <point x="895" y="718"/>
      <point x="1051" y="567"/>
      <point x="1051" y="375" type="curve" smooth="yes"/>
      <point x="1051" y="183"/>
      <point x="896" y="32"/>
    </contour>
  </outline>
</glyph>
<glyph name="U1e0d" format="2">
  <advance width="1229"/>
  <unicode hex="1E0D"/>
  <note>
U1e0d
</note>
  <outline>
    <contour>
      <point x="572" y="-45" type="curve" smooth="yes"/>
      <point x="717" y="-45"/>
      <point x="833" y="14"/>
      <point x="919" y="133" type="curve"/>
      <point x="919" y="0" type="line"/>
      <point x="1074" y="0" type="line" smooth="yes"/>
      <point x="1111" y="0"/>
      <point x="1130" y="14"/>
      <point x="1130" y="42" type="curve" smooth="yes"/>
      <point x="1130" y="71"/>
      <point x="1111" y="85"/>
      <point x="1074" y="85" type="curve" smooth="yes"/>
      <point x="1003" y="85" type="line"/>
      <point x="1003" y="1248" type="line"/>
      <point x="848" y="1249" type="line" smooth="yes"/>
      <point x="811" y="1249"/>
      <point x="792" y="1235"/>
      <point x="792" y="1207" type="curve" smooth="yes"/>
      <point x="792" y="1178"/>
      <point x="811" y="1164"/>
      <point x="848" y="1164" type="curve" smooth="yes"/>
      <point x="919" y="1164" type="line"/>
      <point x="918" y="617" type="line"/>
      <point x="832" y="735"/>
      <point x="717" y="794"/>
      <point x="572" y="794" type="curve" smooth="yes"/>
      <point x="337" y="794"/>
      <point x="149" y="608"/>
      <point x="149" y="375" type="curve" smooth="yes"/>
      <point x="149" y="140"/>
      <point x="337" y="-45"/>
    </contour>
    <contour>
      <point x="584" y="-354" type="curve" smooth="yes"/>
      <point x="627" y="-354"/>
      <point x="661" y="-320"/>
      <point x="661" y="-277" type="curve" smooth="yes"/>
      <point x="661" y="-234"/>
      <point x="627" y="-200"/>
      <point x="584" y="-200" type="curve" smooth="yes"/>
      <point x="541" y="-200"/>
      <point x="507" y="-234"/>
      <point x="507" y="-277" type="curve" smooth="yes"/>
      <point x="507" y="-320"/>
      <point x="541" y="-354"/>
    </contour>
    <contour>
      <point x="573" y="32" type="curve" smooth="yes"/>
      <point x="380" y="32"/>
      <point x="225" y="183"/>
      <point x="225" y="375" type="curve" smooth="yes"/>
      <point x="225" y="567"/>
      <point x="381" y="718"/>
      <point x="573" y="718" type="curve" smooth="yes"/>
      <point x="764" y="718"/>
      <point x="920" y="566"/>
      <point x="920" y="375" type="curve" smooth="yes"/>
      <point x="920" y="183"/>
      <point x="765" y="32"/>
    </contour>
  </outline>
</glyph>
<glyph name="U1e34" format="2">
  <advance width="1320"/>
  <unicode hex="1E34"/>
  <note>
U1e34
</note>
  <outline>
    <contour>
      <point x="187" y="-1" type="curve" smooth="yes"/>
      <point x="413" y="-1" type="line" smooth="yes"/>
      <point x="450" y="-1"/>
      <point x="469" y="13"/>
      <point x="469" y="41" type="curve" smooth="yes"/>
      <point x="469" y="70"/>
      <point x="450" y="84"/>
      <point x="413" y="84" type="curve" smooth="yes"/>
      <point x="342" y="84" type="line"/>
      <point x="342" y="458" type="line"/>
      <point x="511" y="610" type="line"/>
      <point x="919" y="85" type="line"/>
      <point x="848" y="85" type="line" smooth="yes"/>
      <point x="811" y="85"/>
      <point x="792" y="71"/>
      <point x="792" y="42" type="curve" smooth="yes"/>
      <point x="792" y="14"/>
      <point x="811" y="0"/>
      <point x="848" y="0" type="curve" smooth="yes"/>
      <point x="1114" y="-1" type="line" smooth="yes"/>
      <point x="1151" y="-1"/>
      <point x="1170" y="13"/>
      <point x="1170" y="41" type="curve" smooth="yes"/>
      <point x="1170" y="70"/>
      <point x="1151" y="84"/>
      <point x="1114" y="84" type="curve" smooth="yes"/>
      <point x="1043" y="84" type="line"/>
      <point x="581" y="673" type="line"/>
      <point x="1043" y="1086" type="line"/>
      <point x="1114" y="1086" type="line" smooth="yes"/>
      <point x="1151" y="1086"/>
      <point x="1170" y="1100"/>
      <point x="1170" y="1129" type="curve" smooth="yes"/>
      <point x="1170" y="1157"/>
      <point x="1151" y="1171"/>
      <point x="1114" y="1171" type="curve" smooth="yes"/>
      <point x="851" y="1171" type="line" smooth="yes"/>
      <point x="814" y="1171"/>
      <point x="795" y="1157"/>
      <point x="795" y="1129" type="curve" smooth="yes"/>
      <point x="795" y="1100"/>
      <point x="814" y="1086"/>
      <point x="851" y="1086" type="curve" smooth="yes"/>
      <point x="922" y="1086" type="line"/>
      <point x="342" y="569" type="line"/>
      <point x="342" y="1086" type="line"/>
      <point x="413" y="1086" type="line" smooth="yes"/>
      <point x="450" y="1086"/>
      <point x="469" y="1100"/>
      <point x="469" y="1129" type="curve" smooth="yes"/>
      <point x="469" y="1157"/>
      <point x="450" y="1171"/>
      <point x="413" y="1171" type="curve" smooth="yes"/>
      <point x="187" y="1171" type="line" smooth="yes"/>
      <point x="150" y="1171"/>
      <point x="131" y="1157"/>
      <point x="131" y="1129" type="curve" smooth="yes"/>
      <point x="131" y="1100"/>
      <point x="150" y="1086"/>
      <point x="187" y="1086" type="curve" smooth="yes"/>
      <point x="258" y="1086" type="line"/>
      <point x="258" y="84" type="line"/>
      <point x="187" y="84" type="line" smooth="yes"/>
      <point x="150" y="84"/>
      <point x="131" y="70"/>
      <point x="131" y="41" type="curve" smooth="yes"/>
      <point x="131" y="13"/>
      <point x="150" y="-1"/>
    </contour>
    <contour>
      <point x="383" y="-285" type="curve" smooth="yes"/>
      <point x="875" y="-285" type="line" smooth="yes"/>
      <point x="911" y="-285"/>
      <point x="929" y="-271"/>
      <point x="929" y="-243" type="curve" smooth="yes"/>
      <point x="929" y="-214"/>
      <point x="910" y="-200"/>
      <point x="873" y="-200" type="curve" smooth="yes"/>
      <point x="387" y="-200" type="line" smooth="yes"/>
      <point x="350" y="-200"/>
      <point x="331" y="-214"/>
      <point x="331" y="-243" type="curve" smooth="yes"/>
      <point x="331" y="-271"/>
      <point x="348" y="-285"/>
    </contour>
  </outline>
</glyph>
<glyph name="U0710Fina1" format="2">
  <advance width="1001"/>
  <note>
U0710Fina1
</note>
  <anchor x="345" y="975" name="class0"/>
  <anchor x="405" y="-285" name="class0_"/>
  <anchor x="345" y="960" name="class1"/>
  <anchor x="375" y="-270" name="class2"/>
  <anchor x="390" y="-345" name="class3"/>
  <outline>
    <contour>
      <point x="276" y="-99" type="line"/>
      <point x="289" y="-99"/>
      <point x="303" y="-87"/>
      <point x="318" y="-63" type="curve" smooth="yes"/>
      <point x="335" y="-36"/>
      <point x="353" y="-19"/>
      <point x="374" y="-12" type="curve" smooth="yes"/>
      <point x="463" y="20"/>
      <point x="508" y="59"/>
      <point x="508" y="104" type="curve" smooth="yes"/>
      <point x="508" y="140"/>
      <point x="476" y="187"/>
      <point x="413" y="244" type="curve" smooth="yes"/>
      <point x="350" y="301"/>
      <point x="318" y="333"/>
      <point x="318" y="340" type="curve" smooth="yes"/>
      <point x="318" y="375"/>
      <point x="353" y="392"/>
      <point x="424" y="392" type="curve" smooth="yes"/>
      <point x="507" y="392"/>
      <point x="579" y="337"/>
      <point x="638" y="228" type="curve"/>
      <point x="600" y="201"/>
      <point x="581" y="165"/>
      <point x="581" y="119" type="curve" smooth="yes"/>
      <point x="581" y="46"/>
      <point x="642" y="-15"/>
      <point x="715" y="-15" type="curve" smooth="yes"/>
      <point x="746" y="-15"/>
      <point x="773" y="-8"/>
      <point x="797" y="7" type="curve" smooth="yes"/>
      <point x="824" y="24"/>
      <point x="839" y="46"/>
      <point x="842" y="75" type="curve"/>
      <point x="842" y="0" type="line"/>
      <point x="1001" y="0" type="line"/>
      <point x="1001" y="200" type="line"/>
      <point x="860" y="200" type="line"/>
      <point x="844" y="164" type="line"/>
      <point x="830" y="200" type="line"/>
      <point x="800" y="239"/>
      <point x="766" y="258"/>
      <point x="729" y="258" type="curve"/>
      <point x="686" y="250" type="line"/>
      <point x="645" y="321"/>
      <point x="625" y="378"/>
      <point x="625" y="420" type="curve" smooth="yes"/>
      <point x="625" y="471"/>
      <point x="674" y="538"/>
      <point x="773" y="623" type="curve"/>
      <point x="906" y="727"/>
      <point x="1018" y="813"/>
      <point x="1108" y="880" type="curve"/>
      <point x="1177" y="939"/>
      <point x="1211" y="992"/>
      <point x="1211" y="1039" type="curve" smooth="yes"/>
      <point x="1211" y="1064"/>
      <point x="1202" y="1090"/>
      <point x="1184" y="1117" type="curve" smooth="yes"/>
      <point x="1165" y="1144"/>
      <point x="1156" y="1160"/>
      <point x="1155" y="1167" type="curve" smooth="yes"/>
      <point x="1147" y="1267" type="line"/>
      <point x="1141" y="1268"/>
      <point x="1131" y="1269"/>
      <point x="1117" y="1269" type="curve"/>
      <point x="1064" y="1170"/>
      <point x="998" y="1078"/>
      <point x="919" y="993" type="curve" smooth="yes"/>
      <point x="760" y="823"/>
      <point x="583" y="688"/>
      <point x="388" y="587" type="curve" smooth="yes"/>
      <point x="275" y="529"/>
      <point x="157" y="487"/>
      <point x="34" y="462" type="curve"/>
      <point x="101" y="403"/>
      <point x="159" y="332"/>
      <point x="206" y="251" type="curve" smooth="yes"/>
      <point x="259" y="160"/>
      <point x="286" y="75"/>
      <point x="286" y="-3" type="curve" smooth="yes"/>
      <point x="286" y="-40"/>
      <point x="281" y="-72"/>
      <point x="270" y="-98" type="curve"/>
    </contour>
  </outline>
</glyph>
<glyph name="U0710Fina3" format="2">
  <advance width="961"/>
  <note>
U0710Fina3
</note>
  <anchor x="360" y="975" name="class0"/>
  <anchor x="405" y="-150" name="class0_"/>
  <anchor x="345" y="960" name="class1"/>
  <anchor x="375" y="-135" name="class2"/>
  <anchor x="375" y="-135" name="class3"/>
  <outline>
    <contour>
      <point x="276" y="-99" type="line"/>
      <point x="289" y="-99"/>
      <point x="303" y="-87"/>
      <point x="318" y="-63" type="curve" smooth="yes"/>
      <point x="335" y="-36"/>
      <point x="353" y="-19"/>
      <point x="374" y="-12" type="curve" smooth="yes"/>
      <point x="463" y="20"/>
      <point x="508" y="59"/>
      <point x="508" y="104" type="curve" smooth="yes"/>
      <point x="508" y="140"/>
      <point x="476" y="187"/>
      <point x="413" y="244" type="curve" smooth="yes"/>
      <point x="350" y="301"/>
      <point x="318" y="333"/>
      <point x="318" y="340" type="curve" smooth="yes"/>
      <point x="318" y="375"/>
      <point x="353" y="392"/>
      <point x="424" y="392" type="curve" smooth="yes"/>
      <point x="507" y="392"/>
      <point x="579" y="337"/>
      <point x="638" y="228" type="curve"/>
      <point x="600" y="201"/>
      <point x="581" y="165"/>
      <point x="581" y="119" type="curve" smooth="yes"/>
      <point x="581" y="46"/>
      <point x="642" y="-15"/>
      <point x="715" y="-15" type="curve" smooth="yes"/>
      <point x="788" y="-15"/>
      <point x="849" y="46"/>
      <point x="849" y="119" type="curve" smooth="yes"/>
      <point x="849" y="192"/>
      <point x="788" y="253"/>
      <point x="715" y="253" type="curve" smooth="yes"/>
      <point x="706" y="253"/>
      <point x="696" y="252"/>
      <point x="686" y="250" type="curve"/>
      <point x="645" y="333"/>
      <point x="625" y="390"/>
      <point x="625" y="420" type="curve" smooth="yes"/>
      <point x="625" y="471"/>
      <point x="674" y="538"/>
      <point x="773" y="623" type="curve"/>
      <point x="906" y="727"/>
      <point x="1018" y="813"/>
      <point x="1108" y="880" type="curve"/>
      <point x="1177" y="939"/>
      <point x="1211" y="992"/>
      <point x="1211" y="1039" type="curve" smooth="yes"/>
      <point x="1211" y="1064"/>
      <point x="1202" y="1090"/>
      <point x="1184" y="1117" type="curve" smooth="yes"/>
      <point x="1165" y="1144"/>
      <point x="1156" y="1160"/>
      <point x="1155" y="1167" type="curve" smooth="yes"/>
      <point x="1147" y="1267" type="line"/>
      <point x="1141" y="1268"/>
      <point x="1131" y="1269"/>
      <point x="1117" y="1269" type="curve"/>
      <point x="1064" y="1170"/>
      <point x="998" y="1078"/>
      <point x="919" y="993" type="curve" smooth="yes"/>
      <point x="760" y="823"/>
      <point x="583" y="688"/>
      <point x="388" y="587" type="curve" smooth="yes"/>
      <point x="275" y="529"/>
      <point x="157" y="487"/>
      <point x="34" y="462" type="curve"/>
      <point x="101" y="403"/>
      <point x="159" y="332"/>
      <point x="206" y="251" type="curve" smooth="yes"/>
      <point x="259" y="160"/>
      <point x="286" y="75"/>
      <point x="286" y="-3" type="curve" smooth="yes"/>
      <point x="286" y="-40"/>
      <point x="281" y="-72"/>
      <point x="270" y="-98" type="curve"/>
    </contour>
  </outline>
</glyph>
<glyph name="U0712Init" format="2">
  <advance width="920"/>
  <note>
U0712Init
</note>
  <anchor x="570" y="780" name="class0"/>
  <anchor x="525" y="-135" name="class0_"/>
  <anchor x="510" y="765" name="class1"/>
  <anchor x="555" y="-150" name="class2"/>
  <anchor x="525" y="-150" name="class3"/>
  <outline>
    <contour>
      <point x="0" y="0" type="line"/>
      <point x="830" y="0" type="line" smooth="yes"/>
      <point x="851" y="0"/>
      <point x="862" y="9"/>
      <point x="862" y="26" type="curve" smooth="yes"/>
      <point x="862" y="35"/>
      <point x="853" y="49"/>
      <point x="836" y="67" type="curve" smooth="yes"/>
      <point x="818" y="85"/>
      <point x="809" y="100"/>
      <point x="809" y="112" type="curve" smooth="yes"/>
      <point x="809" y="547" type="line" smooth="yes"/>
      <point x="809" y="567"/>
      <point x="813" y="587"/>
      <point x="820" y="607" type="curve" smooth="yes"/>
      <point x="827" y="627"/>
      <point x="831" y="640"/>
      <point x="831" y="647" type="curve" smooth="yes"/>
      <point x="831" y="666"/>
      <point x="823" y="676"/>
      <point x="807" y="676" type="curve" smooth="yes"/>
      <point x="801" y="676"/>
      <point x="785" y="663"/>
      <point x="759" y="638" type="curve" smooth="yes"/>
      <point x="732" y="613"/>
      <point x="710" y="600"/>
      <point x="691" y="600" type="curve" smooth="yes"/>
      <point x="372" y="600" type="line" smooth="yes"/>
      <point x="328" y="600"/>
      <point x="298" y="617"/>
      <point x="282" y="652" type="curve" smooth="yes"/>
      <point x="265" y="686"/>
      <point x="252" y="703"/>
      <point x="242" y="703" type="curve" smooth="yes"/>
      <point x="225" y="703"/>
      <point x="216" y="669"/>
      <point x="216" y="600" type="curve" smooth="yes"/>
      <point x="216" y="504"/>
      <point x="242" y="443"/>
      <point x="295" y="416" type="curve" smooth="yes"/>
      <point x="315" y="405"/>
      <point x="356" y="400"/>
      <point x="419" y="400" type="curve" smooth="yes"/>
      <point x="609" y="400" type="line"/>
      <point x="609" y="200" type="line"/>
      <point x="0" y="200" type="line"/>
    </contour>
  </outline>
</glyph>
<glyph name="U0713Fina" format="2">
  <advance width="1238"/>
  <note>
U0713Fina
</note>
  <anchor x="855" y="900" name="class0"/>
  <anchor x="585" y="-150" name="class0_"/>
  <anchor x="915" y="870" name="class1"/>
  <anchor x="630" y="-180" name="class2"/>
  <anchor x="585" y="-150" name="class3"/>
  <outline>
    <contour>
      <point x="1224" y="-496" type="curve" smooth="yes"/>
      <point x="1284" y="-496"/>
      <point x="1332" y="-448"/>
      <point x="1332" y="-388" type="curve" smooth="yes"/>
      <point x="1332" y="-328"/>
      <point x="1284" y="-279"/>
      <point x="1224" y="-279" type="curve"/>
      <point x="1215" y="-280" type="line"/>
      <point x="1162" y="-169"/>
      <point x="1116" y="-75"/>
      <point x="1078" y="0" type="curve"/>
      <point x="1238" y="0" type="line"/>
      <point x="1238" y="200" type="line"/>
      <point x="985" y="200" type="line"/>
      <point x="812" y="576"/>
      <point x="725" y="786"/>
      <point x="725" y="830" type="curve" smooth="yes"/>
      <point x="725" y="838"/>
      <point x="727" y="851"/>
      <point x="732" y="868" type="curve" smooth="yes"/>
      <point x="737" y="885"/>
      <point x="739" y="897"/>
      <point x="739" y="906" type="curve" smooth="yes"/>
      <point x="739" y="927"/>
      <point x="731" y="938"/>
      <point x="715" y="938" type="curve"/>
      <point x="643" y="878" type="line"/>
      <point x="610" y="871"/>
      <point x="580" y="859"/>
      <point x="555" y="841" type="curve" smooth="yes"/>
      <point x="524" y="818"/>
      <point x="509" y="792"/>
      <point x="509" y="762" type="curve" smooth="yes"/>
      <point x="509" y="702"/>
      <point x="607" y="515"/>
      <point x="803" y="200" type="curve"/>
      <point x="323" y="200" type="line" smooth="yes"/>
      <point x="292" y="200"/>
      <point x="269" y="208"/>
      <point x="255" y="223" type="curve" smooth="yes"/>
      <point x="247" y="232"/>
      <point x="241" y="247"/>
      <point x="236" y="266" type="curve" smooth="yes"/>
      <point x="233" y="282"/>
      <point x="228" y="290"/>
      <point x="222" y="290" type="curve" smooth="yes"/>
      <point x="205" y="290"/>
      <point x="188" y="272"/>
      <point x="170" y="235" type="curve" smooth="yes"/>
      <point x="154" y="203"/>
      <point x="146" y="178"/>
      <point x="146" y="159" type="curve" smooth="yes"/>
      <point x="146" y="53"/>
      <point x="205" y="0"/>
      <point x="323" y="0" type="curve" smooth="yes"/>
      <point x="883" y="0" type="line" smooth="yes"/>
      <point x="948" y="0"/>
      <point x="1041" y="-100"/>
      <point x="1162" y="-299" type="curve"/>
      <point x="1131" y="-320"/>
      <point x="1116" y="-350"/>
      <point x="1116" y="-388" type="curve" smooth="yes"/>
      <point x="1116" y="-448"/>
      <point x="1164" y="-496"/>
    </contour>
  </outline>
</glyph>
<glyph name="U0713Medi" format="2">
  <advance width="951"/>
  <note>
U0713Medi
</note>
  <anchor x="570" y="915" name="class0"/>
  <anchor x="330" y="-165" name="class0_"/>
  <anchor x="570" y="900" name="class1"/>
  <anchor x="360" y="-195" name="class2"/>
  <anchor x="375" y="-180" name="class3"/>
  <outline>
    <contour>
      <point x="972" y="-511" type="curve" smooth="yes"/>
      <point x="1032" y="-511"/>
      <point x="1080" y="-463"/>
      <point x="1080" y="-403" type="curve" smooth="yes"/>
      <point x="1080" y="-343"/>
      <point x="1032" y="-295"/>
      <point x="972" y="-295" type="curve" smooth="yes"/>
      <point x="963" y="-295" type="line"/>
      <point x="901" y="-179"/>
      <point x="847" y="-81"/>
      <point x="800" y="0" type="curve"/>
      <point x="952" y="0" type="line"/>
      <point x="952" y="200" type="line"/>
      <point x="707" y="200" type="line"/>
      <point x="534" y="576"/>
      <point x="447" y="786"/>
      <point x="447" y="830" type="curve" smooth="yes"/>
      <point x="447" y="838"/>
      <point x="449" y="851"/>
      <point x="454" y="868" type="curve" smooth="yes"/>
      <point x="459" y="885"/>
      <point x="461" y="897"/>
      <point x="461" y="906" type="curve" smooth="yes"/>
      <point x="461" y="927"/>
      <point x="453" y="938"/>
      <point x="437" y="938" type="curve"/>
      <point x="365" y="878" type="line"/>
      <point x="332" y="871"/>
      <point x="302" y="859"/>
      <point x="277" y="841" type="curve" smooth="yes"/>
      <point x="246" y="818"/>
      <point x="231" y="792"/>
      <point x="231" y="762" type="curve" smooth="yes"/>
      <point x="231" y="721"/>
      <point x="277" y="626"/>
      <point x="368" y="477" type="curve" smooth="yes"/>
      <point x="469" y="312"/>
      <point x="523" y="219"/>
      <point x="530" y="200" type="curve"/>
      <point x="0" y="200" type="line"/>
      <point x="0" y="0" type="line"/>
      <point x="602" y="0" type="line" smooth="yes"/>
      <point x="659" y="0"/>
      <point x="715" y="-33"/>
      <point x="770" y="-100" type="curve" smooth="yes"/>
      <point x="794" y="-129"/>
      <point x="841" y="-201"/>
      <point x="910" y="-314" type="curve"/>
      <point x="879" y="-335"/>
      <point x="863" y="-365"/>
      <point x="863" y="-403" type="curve" smooth="yes"/>
      <point x="863" y="-463"/>
      <point x="912" y="-511"/>
    </contour>
  </outline>
</glyph>
<glyph name="U0714Fina" format="2">
  <advance width="1238"/>
  <note>
U0714Fina
</note>
  <anchor x="960" y="885" name="class0"/>
  <anchor x="615" y="-165" name="class0_"/>
  <anchor x="930" y="885" name="class1"/>
  <anchor x="540" y="-150" name="class2"/>
  <anchor x="585" y="-135" name="class3"/>
  <outline>
    <contour>
      <point x="1193" y="-446" type="curve" smooth="yes"/>
      <point x="1253" y="-446"/>
      <point x="1302" y="-397"/>
      <point x="1302" y="-338" type="curve" smooth="yes"/>
      <point x="1302" y="-278"/>
      <point x="1253" y="-229"/>
      <point x="1193" y="-229" type="curve" smooth="yes"/>
      <point x="1190" y="-229"/>
      <point x="1188" y="-229"/>
      <point x="1185" y="-230" type="curve"/>
      <point x="1078" y="0" type="line"/>
      <point x="1238" y="0" type="line"/>
      <point x="1238" y="200" type="line"/>
      <point x="985" y="200" type="line"/>
      <point x="812" y="576"/>
      <point x="725" y="786"/>
      <point x="725" y="830" type="curve" smooth="yes"/>
      <point x="725" y="838"/>
      <point x="727" y="851"/>
      <point x="732" y="868" type="curve" smooth="yes"/>
      <point x="737" y="885"/>
      <point x="739" y="897"/>
      <point x="739" y="906" type="curve" smooth="yes"/>
      <point x="739" y="927"/>
      <point x="731" y="938"/>
      <point x="715" y="938" type="curve"/>
      <point x="643" y="878" type="line"/>
      <point x="610" y="871"/>
      <point x="580" y="859"/>
      <point x="555" y="841" type="curve" smooth="yes"/>
      <point x="524" y="818"/>
      <point x="509" y="792"/>
      <point x="509" y="762" type="curve" smooth="yes"/>
      <point x="509" y="722"/>
      <point x="566" y="606"/>
      <point x="680" y="414" type="curve"/>
      <point x="491" y="200" type="line"/>
      <point x="323" y="200" type="line" smooth="yes"/>
      <point x="292" y="200"/>
      <point x="269" y="208"/>
      <point x="255" y="223" type="curve" smooth="yes"/>
      <point x="247" y="232"/>
      <point x="241" y="247"/>
      <point x="236" y="266" type="curve" smooth="yes"/>
      <point x="233" y="282"/>
      <point x="228" y="290"/>
      <point x="222" y="290" type="curve" smooth="yes"/>
      <point x="205" y="290"/>
      <point x="188" y="272"/>
      <point x="170" y="235" type="curve" smooth="yes"/>
      <point x="154" y="203"/>
      <point x="146" y="178"/>
      <point x="146" y="159" type="curve" smooth="yes"/>
      <point x="146" y="53"/>
      <point x="205" y="0"/>
      <point x="323" y="0" type="curve" smooth="yes"/>
      <point x="724" y="0" type="line" smooth="yes"/>
      <point x="895" y="0"/>
      <point x="1031" y="-83"/>
      <point x="1132" y="-248" type="curve"/>
      <point x="1101" y="-270"/>
      <point x="1085" y="-300"/>
      <point x="1085" y="-338" type="curve" smooth="yes"/>
      <point x="1085" y="-397"/>
      <point x="1133" y="-446"/>
    </contour>
    <contour>
      <point x="595" y="200" type="line"/>
      <point x="722" y="344" type="line"/>
      <point x="769" y="264"/>
      <point x="792" y="216"/>
      <point x="792" y="200" type="curve"/>
    </contour>
  </outline>
</glyph>
<glyph name="U0716Fina" format="2">
  <advance width="877"/>
  <note>
U0716Fina
</note>
  <anchor x="330" y="720" name="class0"/>
  <anchor x="390" y="-150" name="class0_"/>
  <anchor x="345" y="720" name="class1"/>
  <anchor x="375" y="-180" name="class2"/>
  <anchor x="360" y="-150" name="class3"/>
  <outline>
    <contour>
      <point x="693" y="0" type="curve" smooth="yes"/>
      <point x="877" y="0" type="line"/>
      <point x="877" y="200" type="line"/>
      <point x="797" y="200" type="line" smooth="yes"/>
      <point x="738" y="200"/>
      <point x="708" y="257"/>
      <point x="708" y="371" type="curve" smooth="yes"/>
      <point x="708" y="448"/>
      <point x="741" y="642"/>
      <point x="741" y="642" type="curve"/>
      <point x="741" y="661"/>
      <point x="734" y="671"/>
      <point x="720" y="671" type="curve" smooth="yes"/>
      <point x="723" y="671"/>
      <point x="709" y="662"/>
      <point x="677" y="645" type="curve" smooth="yes"/>
      <point x="590" y="598"/>
      <point x="500" y="574"/>
      <point x="408" y="574" type="curve" smooth="yes"/>
      <point x="360" y="574"/>
      <point x="316" y="581"/>
      <point x="276" y="596" type="curve" smooth="yes"/>
      <point x="249" y="607"/>
      <point x="224" y="621"/>
      <point x="200" y="639" type="curve" smooth="yes"/>
      <point x="168" y="661" type="line"/>
      <point x="153" y="661"/>
      <point x="146" y="627"/>
      <point x="146" y="558" type="curve" smooth="yes"/>
      <point x="146" y="423"/>
      <point x="201" y="374"/>
      <point x="340" y="374" type="curve" smooth="yes"/>
      <point x="402" y="374"/>
      <point x="460" y="381"/>
      <point x="515" y="394" type="curve"/>
      <point x="511" y="345" type="line" smooth="yes"/>
      <point x="509" y="324"/>
      <point x="508" y="306"/>
      <point x="508" y="293" type="curve" smooth="yes"/>
      <point x="508" y="206"/>
      <point x="517" y="141"/>
      <point x="536" y="98" type="curve" smooth="yes"/>
      <point x="564" y="33"/>
      <point x="616" y="0"/>
    </contour>
  </outline>
</glyph>
